<svg width="30" height="30" viewBox="0 0 30 30" fill="none" xmlns="http://www.w3.org/2000/svg">
<g clip-path="url(#clip0)">
<path d="M1.5 30H8.5C8.8702 29.9987 9.22667 29.8597 9.5 29.61C9.77333 29.8597 10.1298 29.9987 10.5 30H17.5C17.8702 29.9987 18.2267 29.8597 18.5 29.61C18.7733 29.8597 19.1298 29.9987 19.5 30H26.5C27.3284 30 28 29.3284 28 28.5V21.5C28 20.6716 27.3284 20 26.5 20H19.5C19.2708 20.0014 19.045 20.056 18.8405 20.1595C18.944 19.955 18.9986 19.7292 19 19.5V12.5C19 11.6716 18.3284 11 17.5 11H10.5C10.2708 11.0014 10.045 11.056 9.8405 11.1595C9.94401 10.955 9.99861 10.7292 10 10.5V3.5C10 2.67157 9.32843 2 8.5 2H1.5C0.671573 2 0 2.67157 0 3.5V10.5C0.00130183 10.8702 0.140324 11.2267 0.39 11.5C0.140324 11.7733 0.00130183 12.1298 0 12.5V19.5C0.00130183 19.8702 0.140324 20.2267 0.39 20.5C0.140324 20.7733 0.00130183 21.1298 0 21.5V28.5C0 29.3284 0.671573 30 1.5 30ZM8.5 29H1.5C1.22386 29 1 28.7762 1 28.5V21.5C1 21.2239 1.22386 21 1.5 21H8.5C8.77614 21 9 21.2239 9 21.5V28.5C9 28.7762 8.77614 29 8.5 29ZM1 19.5V12.5C1 12.2239 1.22386 12 1.5 12H8.5C8.77614 12 9 12.2239 9 12.5V19.5C9 19.7762 8.77614 20 8.5 20H1.5C1.22386 20 1 19.7762 1 19.5ZM17.5 29H10.5C10.2239 29 10 28.7762 10 28.5V21.5C10 21.2239 10.2239 21 10.5 21H17.5C17.7761 21 18 21.2239 18 21.5V28.5C18 28.7762 17.7761 29 17.5 29ZM19.5 21H26.5C26.7761 21 27 21.2239 27 21.5V28.5C27 28.7762 26.7761 29 26.5 29H19.5C19.2239 29 19 28.7762 19 28.5V21.5C19 21.2239 19.2239 21 19.5 21ZM10.5 12H17.5C17.7761 12 18 12.2239 18 12.5V19.5C18 19.7762 17.7761 20 17.5 20H10.5C10.2239 20 10 19.7762 10 19.5V12.5C10 12.2239 10.2239 12 10.5 12ZM1 3.5C1 3.22386 1.22386 3 1.5 3H8.5C8.77614 3 9 3.22386 9 3.5V10.5C9 10.7761 8.77614 11 8.5 11H1.5C1.22386 11 1 10.7761 1 10.5V3.5Z" fill="#21273A"/>
<path d="M2.49991 5.49972C2.63251 5.49969 2.75966 5.44699 2.85341 5.35322L3.35341 4.85322C3.54289 4.65703 3.54018 4.34517 3.34732 4.15231C3.15445 3.95944 2.8426 3.95673 2.64641 4.14622L2.14641 4.64622C2.00345 4.78921 1.9607 5.00423 2.03807 5.19104C2.11544 5.37785 2.29771 5.49967 2.49991 5.49972Z" fill="#21273A"/>
<path d="M2.49991 7.99972C2.63251 7.99969 2.75966 7.94699 2.85341 7.85322L5.85341 4.85322C6.04289 4.65703 6.04018 4.34517 5.84732 4.15231C5.65445 3.95944 5.3426 3.95673 5.14641 4.14622L2.14641 7.14622C2.00345 7.28922 1.9607 7.50424 2.03807 7.69105C2.11544 7.87786 2.29771 7.99968 2.49991 7.99972Z" fill="#21273A"/>
<path d="M2.49991 14.4997C2.63251 14.4997 2.75966 14.447 2.85341 14.3532L3.35341 13.8532C3.54289 13.657 3.54018 13.3452 3.34732 13.1523C3.15445 12.9594 2.8426 12.9567 2.64641 13.1462L2.14641 13.6462C2.00345 13.7892 1.9607 14.0042 2.03807 14.191C2.11544 14.3779 2.29771 14.4997 2.49991 14.4997Z" fill="#21273A"/>
<path d="M5.14484 13.1462L2.14484 16.1462C2.01487 16.2717 1.96274 16.4576 2.0085 16.6325C2.05425 16.8073 2.19078 16.9438 2.36559 16.9896C2.54041 17.0353 2.72631 16.9832 2.85184 16.8532L5.85184 13.8532C6.04133 13.657 6.03862 13.3452 5.84575 13.1523C5.65289 12.9594 5.34103 12.9567 5.14484 13.1462Z" fill="#21273A"/>
<path d="M2.49991 23.4997C2.63251 23.4997 2.75966 23.447 2.85341 23.3532L3.35341 22.8532C3.54289 22.657 3.54018 22.3452 3.34732 22.1523C3.15445 21.9594 2.8426 21.9567 2.64641 22.1462L2.14641 22.6462C2.00345 22.7892 1.9607 23.0042 2.03807 23.1911C2.11544 23.3779 2.29771 23.4997 2.49991 23.4997Z" fill="#21273A"/>
<path d="M5.14484 22.1462L2.14484 25.1462C2.01487 25.2718 1.96274 25.4577 2.0085 25.6325C2.05425 25.8073 2.19078 25.9438 2.36559 25.9896C2.54041 26.0353 2.72631 25.9832 2.85184 25.8532L5.85184 22.8532C6.04133 22.657 6.03862 22.3452 5.84575 22.1523C5.65289 21.9594 5.34103 21.9567 5.14484 22.1462Z" fill="#21273A"/>
<path d="M11.4999 14.4997C11.6325 14.4997 11.7597 14.447 11.8534 14.3532L12.3534 13.8532C12.5429 13.657 12.5402 13.3452 12.3473 13.1523C12.1544 12.9594 11.8426 12.9567 11.6464 13.1462L11.1464 13.6462C11.0035 13.7892 10.9607 14.0042 11.0381 14.191C11.1154 14.3779 11.2977 14.4997 11.4999 14.4997Z" fill="#21273A"/>
<path d="M11.4999 16.9997C11.6325 16.9997 11.7597 16.947 11.8534 16.8532L14.8534 13.8532C15.0429 13.657 15.0402 13.3452 14.8473 13.1523C14.6544 12.9594 14.3426 12.9567 14.1464 13.1462L11.1464 16.1462C11.0035 16.2892 10.9607 16.5042 11.0381 16.6911C11.1154 16.8779 11.2977 16.9997 11.4999 16.9997Z" fill="#21273A"/>
<path d="M11.4999 23.4997C11.6325 23.4997 11.7597 23.447 11.8534 23.3532L12.3534 22.8532C12.5429 22.657 12.5402 22.3452 12.3473 22.1523C12.1544 21.9594 11.8426 21.9567 11.6464 22.1462L11.1464 22.6462C11.0035 22.7892 10.9607 23.0042 11.0381 23.1911C11.1154 23.3779 11.2977 23.4997 11.4999 23.4997Z" fill="#21273A"/>
<path d="M14.1488 22.1462L11.1487 25.1462C11.0188 25.2718 10.9666 25.4577 11.0124 25.6325C11.0582 25.8073 11.1947 25.9438 11.3695 25.9896C11.5443 26.0353 11.7302 25.9832 11.8558 25.8532L14.8558 22.8532C15.0452 22.657 15.0425 22.3452 14.8497 22.1523C14.6568 21.9594 14.3449 21.9567 14.1488 22.1462Z" fill="#21273A"/>
<path d="M20.4999 23.4997C20.6325 23.4997 20.7597 23.447 20.8534 23.3532L21.3534 22.8532C21.5429 22.657 21.5402 22.3452 21.3473 22.1523C21.1545 21.9594 20.8426 21.9567 20.6464 22.1462L20.1464 22.6462C20.0035 22.7892 19.9607 23.0042 20.0381 23.1911C20.1154 23.3779 20.2977 23.4997 20.4999 23.4997Z" fill="#21273A"/>
<path d="M20.4999 25.9997C20.6325 25.9997 20.7597 25.947 20.8534 25.8532L23.8534 22.8532C24.0429 22.657 24.0402 22.3452 23.8473 22.1523C23.6544 21.9594 23.3426 21.9567 23.1464 22.1462L20.1464 25.1462C20.0035 25.2892 19.9607 25.5042 20.0381 25.691C20.1154 25.8779 20.2977 25.9997 20.4999 25.9997Z" fill="#21273A"/>
<path d="M11.5 10H17.5C17.7761 10 18 9.77614 18 9.5C18 9.22386 17.7761 9 17.5 9H11.5C11.2239 9 11 9.22386 11 9.5C11 9.77614 11.2239 10 11.5 10Z" fill="#21273A"/>
<path d="M11.5 8H17.5C17.7761 8 18 7.77614 18 7.5C18 7.22386 17.7761 7 17.5 7H11.5C11.2239 7 11 7.22386 11 7.5C11 7.77614 11.2239 8 11.5 8Z" fill="#21273A"/>
<path d="M11.5 6H17.5C17.7761 6 18 5.77614 18 5.5C18 5.22386 17.7761 5 17.5 5H11.5C11.2239 5 11 5.22386 11 5.5C11 5.77614 11.2239 6 11.5 6Z" fill="#21273A"/>
<path d="M11.5 4H17.5C17.7761 4 18 3.77614 18 3.5C18 3.22386 17.7761 3 17.5 3H11.5C11.2239 3 11 3.22386 11 3.5C11 3.77614 11.2239 4 11.5 4Z" fill="#21273A"/>
<path d="M28.5003 10.0001C29.0167 10 29.4967 9.73436 29.771 9.29683C30.0453 8.85929 30.0752 8.31142 29.8503 7.8466L26.3548 0.855099C26.1067 0.334275 25.582 0.00182046 25.0052 7.45159e-06C24.4283 -0.00180555 23.9015 0.327345 23.6503 0.846599L20.1458 7.8551C19.9244 8.31988 19.9568 8.86571 20.2317 9.30099C20.5066 9.73627 20.9855 10.0002 21.5003 10.0001H23.5003V11.1391C23.1919 11.3163 23.0013 11.6444 23.0003 12.0001V16.5001C23.0003 17.3285 23.6718 18.0001 24.5003 18.0001H25.5003C26.3287 18.0001 27.0003 17.3285 27.0003 16.5001V12.0001C26.9992 11.6444 26.8086 11.3163 26.5003 11.1391V10.0001H28.5003ZM21.5003 9.0001C21.3303 9.00015 21.172 8.91387 21.0799 8.77104C20.9878 8.62821 20.9746 8.44838 21.0448 8.2936L24.5503 1.2851C24.6403 1.11752 24.8158 1.01367 25.0061 1.01546C25.1963 1.01724 25.3699 1.12436 25.4568 1.2936L28.9503 8.2851C29.0239 8.43979 29.0133 8.62143 28.922 8.76643C28.8307 8.91144 28.6716 8.99962 28.5003 9.0001H26.5003V7.5001C26.5003 6.67168 25.8287 6.0001 25.0003 6.0001C24.1718 6.0001 23.5003 6.67168 23.5003 7.5001V9.0001H21.5003ZM24.5003 7.5001C24.5003 7.22396 24.7241 7.0001 25.0003 7.0001C25.2764 7.0001 25.5003 7.22396 25.5003 7.5001V11.0001H24.5003V7.5001ZM26.0003 16.5001C26.0003 16.7763 25.7764 17.0001 25.5003 17.0001H24.5003C24.2241 17.0001 24.0003 16.7763 24.0003 16.5001V12.0001H26.0003V16.5001Z" fill="#21273A"/>
</g>
<defs>
<clipPath id="clip0">
<rect width="30" height="30" fill="white"/>
</clipPath>
</defs>
</svg>
