<svg width="30" height="26" viewBox="0 0 30 26" fill="none" xmlns="http://www.w3.org/2000/svg">
<path d="M28.5938 0.34375H14.5312C14.4069 0.343756 14.2877 0.393144 14.1998 0.48105C14.1119 0.568957 14.0625 0.688182 14.0625 0.8125V6.4375H11.7188C11.5944 6.43751 11.4752 6.48689 11.3873 6.5748C11.2994 6.66271 11.25 6.78193 11.25 6.90625V8.3125H10.7812V9.25H11.25V10.1875H10.7812V11.125H11.25V17.1765L10.3049 11.9787C10.2853 11.8707 10.2284 11.773 10.1441 11.7026C10.0598 11.6323 9.95353 11.5937 9.84375 11.5938H3.75C3.64022 11.5937 3.53392 11.6323 3.44963 11.7026C3.36535 11.773 3.30843 11.8707 3.2888 11.9787L2.3513 17.1349C2.34627 17.1626 2.34374 17.1906 2.34375 17.2188V19.0938H1.40625C1.28193 19.0938 1.16271 19.1431 1.0748 19.2311C0.986894 19.319 0.937506 19.4382 0.9375 19.5625V23.7812C0.93742 24.1976 1.07594 24.6021 1.33121 24.931C1.58648 25.2599 1.94398 25.4945 2.34732 25.5977C2.75066 25.7009 3.17689 25.667 3.55878 25.5011C3.94067 25.3353 4.2565 25.0471 4.45644 24.6819L4.82477 25.0502C4.9127 25.1381 5.03193 25.1875 5.15625 25.1875H11.8868C12.2286 25.4895 12.6689 25.6562 13.125 25.6562C13.5811 25.6562 14.0214 25.4895 14.3632 25.1875H27.1875C27.3118 25.1875 27.431 25.1381 27.5189 25.0502C27.6069 24.9623 27.6562 24.8431 27.6562 24.7188V23.7812C27.6563 23.6829 27.6253 23.587 27.5678 23.5072C27.5103 23.4273 27.4291 23.3677 27.3358 23.3365L27.2637 23.3125H28.5938C28.7181 23.3125 28.8373 23.2631 28.9252 23.1752C29.0131 23.0873 29.0625 22.9681 29.0625 22.8438V0.8125C29.0625 0.688182 29.0131 0.568957 28.9252 0.48105C28.8373 0.393144 28.7181 0.343756 28.5938 0.34375ZM28.125 11.5938H15V3.625H19.2188V5.96875C19.2188 6.06146 19.2463 6.15208 19.2978 6.22916C19.3493 6.30625 19.4225 6.36632 19.5081 6.4018C19.5938 6.43728 19.688 6.44657 19.779 6.42849C19.8699 6.41041 19.9534 6.36577 20.019 6.30023L20.625 5.69415L21.231 6.30023C21.319 6.38811 21.4382 6.43747 21.5625 6.43747C21.6868 6.43747 21.806 6.38811 21.894 6.30023L22.5 5.69415L23.106 6.30023C23.1716 6.36577 23.2551 6.41041 23.346 6.42849C23.437 6.44657 23.5312 6.43728 23.6169 6.4018C23.7025 6.36632 23.7757 6.30625 23.8272 6.22916C23.8787 6.15208 23.9062 6.06146 23.9062 5.96875V3.625H28.125V11.5938ZM19.2188 13.9375H15V12.5312H19.2188V13.9375ZM20.1562 12.5312H22.9688V16.0871L22.8315 15.9498C22.7435 15.8619 22.6243 15.8125 22.5 15.8125C22.3757 15.8125 22.2565 15.8619 22.1685 15.9498L21.5625 16.5559L20.9565 15.9498C20.8685 15.8619 20.7493 15.8125 20.625 15.8125C20.5007 15.8125 20.3815 15.8619 20.2935 15.9498L20.1562 16.0871V12.5312ZM23.9062 12.5312H28.125V13.9375H23.9062V12.5312ZM20.1562 1.28125H22.9688V4.8371L22.8315 4.69977C22.7435 4.61189 22.6243 4.56253 22.5 4.56253C22.3757 4.56253 22.2565 4.61189 22.1685 4.69977L21.5625 5.30585L20.9565 4.69977C20.8685 4.61189 20.7493 4.56253 20.625 4.56253C20.5007 4.56253 20.3815 4.61189 20.2935 4.69977L20.1562 4.8371V1.28125ZM23.9062 1.28125H28.125V2.6875H23.9062V1.28125ZM15 1.28125H19.2188V2.6875H15V1.28125ZM12.1875 10.1875V9.25H13.125V8.3125H12.1875V7.375H14.0625V22.1585C13.7778 21.993 13.4543 21.906 13.125 21.9062H12.1875V11.125H13.125V10.1875H12.1875ZM10.2196 16.75H8.90625L9.60938 15.8125H10.0491L10.2196 16.75ZM4.14122 12.5312H9.45253L9.87867 14.875H9.375C9.30223 14.875 9.23045 14.8919 9.16536 14.9245C9.10026 14.957 9.04364 15.0043 8.99998 15.0625L7.73436 16.75H6.5625V15.3438C6.56249 15.2194 6.51311 15.1002 6.4252 15.0123C6.33729 14.9244 6.21807 14.875 6.09375 14.875H5.15625C5.0692 14.875 4.98387 14.8992 4.90982 14.945C4.83578 14.9908 4.77593 15.0562 4.737 15.1341L3.92904 16.75H3.37416L4.14122 12.5312ZM5.625 16.75H4.97721L5.44596 15.8125H5.625V16.75ZM3.28125 17.6875H10.39L11.1571 21.9062H10.0379L7.36273 19.231C7.2748 19.1431 7.15557 19.0938 7.03125 19.0938H3.28125V17.6875ZM2.8125 24.7188C2.62708 24.7188 2.44582 24.6638 2.29165 24.5608C2.13748 24.4577 2.01732 24.3113 1.94636 24.14C1.87541 23.9687 1.85684 23.7802 1.89301 23.5984C1.92919 23.4165 2.01848 23.2494 2.14959 23.1183C2.2807 22.9872 2.44775 22.8979 2.6296 22.8618C2.81146 22.8256 2.99996 22.8442 3.17127 22.9151C3.34257 22.9861 3.48899 23.1062 3.592 23.2604C3.69502 23.4146 3.75 23.5958 3.75 23.7812C3.74972 24.0298 3.65085 24.2681 3.4751 24.4438C3.29934 24.6196 3.06105 24.7185 2.8125 24.7188ZM4.67598 23.5755C4.64204 23.2657 4.5313 22.9692 4.3538 22.7129C4.1763 22.4566 3.93766 22.2487 3.6595 22.108C3.38133 21.9673 3.07245 21.8982 2.76084 21.907C2.44923 21.9158 2.14475 22.0023 1.875 22.1585V20.0312H6.8371L9.51227 22.7065C9.6002 22.7944 9.71943 22.8437 9.84375 22.8438H11.5023C11.2559 23.269 11.1866 23.7741 11.3093 24.25H5.3504L4.67598 23.5755ZM13.125 24.7188C12.9396 24.7188 12.7583 24.6638 12.6042 24.5608C12.45 24.4577 12.3298 24.3113 12.2589 24.14C12.1879 23.9687 12.1693 23.7802 12.2055 23.5984C12.2417 23.4165 12.331 23.2494 12.4621 23.1183C12.5932 22.9872 12.7602 22.8979 12.9421 22.8618C13.124 22.8256 13.3125 22.8442 13.4838 22.9151C13.6551 22.9861 13.8015 23.1062 13.9045 23.2604C14.0075 23.4146 14.0625 23.5958 14.0625 23.7812C14.0622 24.0298 13.9634 24.2681 13.7876 24.4438C13.6118 24.6196 13.3736 24.7185 13.125 24.7188ZM26.7188 24.25H14.9407C14.9802 24.0969 15.0001 23.9394 15 23.7812V23.3125H24.299L26.7188 24.1191V24.25ZM24.375 22.375H15V14.875H19.2188V17.2188C19.2188 17.3115 19.2463 17.4021 19.2978 17.4792C19.3493 17.5562 19.4225 17.6163 19.5081 17.6518C19.5938 17.6873 19.688 17.6966 19.779 17.6785C19.8699 17.6604 19.9534 17.6158 20.019 17.5502L20.625 16.9441L21.231 17.5502C21.319 17.6381 21.4382 17.6875 21.5625 17.6875C21.6868 17.6875 21.806 17.6381 21.894 17.5502L22.5 16.9441L23.106 17.5502C23.1716 17.6158 23.2551 17.6604 23.346 17.6785C23.437 17.6966 23.5312 17.6873 23.6169 17.6518C23.7025 17.6163 23.7757 17.5562 23.8272 17.4792C23.8787 17.4021 23.9062 17.3115 23.9062 17.2188V14.875H28.125V22.375H24.375Z" fill="#21273A"/>
</svg>
