<svg width="27" height="27" viewBox="0 0 27 27" fill="none" xmlns="http://www.w3.org/2000/svg">
<path d="M26.5199 27H0.480116C0.2149 27 0 26.7851 0 26.5199V0.480116C0 0.2149 0.2149 0 0.480116 0H26.5199C26.7851 0 27 0.2149 27 0.480116V26.5199C27 26.7851 26.7851 27 26.5199 27ZM20.1875 26.0398H26.0398V20.1875L20.6114 25.6159C20.6106 25.6167 20.6098 25.6177 20.6089 25.6184C20.6081 25.6192 20.6072 25.6201 20.6064 25.6209L20.1875 26.0398ZM12.7139 26.0398H18.8298L19.5907 25.2789L16.5327 22.2209L12.7139 26.0398ZM5.73623 26.0398H11.3559L19.7026 17.693L16.8928 14.8832L8.03004 23.746L5.73623 26.0398ZM0.960232 26.0398H4.37827L7.01161 23.4064L4.0614 20.4562L0.960232 23.5574V26.0398ZM17.2116 21.5418L20.2695 24.5998L26.0398 18.8296V12.7139L20.721 18.0326L17.2116 21.5418ZM4.74047 19.7771L7.6905 22.7274L22.4153 8.00257L19.4651 5.05236L13.6923 10.8253C13.6918 10.8257 13.6914 10.826 13.691 10.8264L4.74047 19.7771ZM0.960232 15.7495V22.1992L3.71687 19.4424C3.7186 19.4409 3.72013 19.4391 3.72167 19.4376C3.7232 19.4359 3.72493 19.4343 3.72647 19.4328L12.6724 10.4867L9.51494 7.32926L0.960232 15.7495ZM17.5717 14.2041L20.3815 17.014L26.0257 11.3699C26.0304 11.3653 26.0352 11.3607 26.0398 11.3563V5.73604L17.5717 14.2041ZM0.960232 7.91385V14.4021L4.76237 10.6597L1.5043 7.40147L0.960232 7.91385ZM2.20354 6.74275L5.44682 9.98603L14.5844 0.992112H8.30889L2.20354 6.74275ZM10.1992 6.65556L13.3515 9.80781L22.1992 0.960232H15.9856L10.1992 6.65556ZM20.1439 4.37347L23.0942 7.32369L26.0398 4.37808V0.960232H23.5572L20.1439 4.37347ZM0.960232 0.960232V6.59487L1.1398 6.42587C1.14997 6.41358 1.16054 6.40187 1.17206 6.39035C1.1905 6.37191 1.21008 6.3552 1.23063 6.34041L6.94209 0.960232H0.960232Z" fill="#21273A"/>
</svg>
