<svg width="33" height="33" viewBox="0 0 33 33" fill="none" xmlns="http://www.w3.org/2000/svg">
<g clip-path="url(#clip0)">
<path d="M33 7.58382C33 5.10791 30.9858 3.09375 28.5099 3.09375C26.0343 3.09375 24.0201 5.10791 24.0201 7.58382V10.1139H1.31046C0.587883 10.1139 0 10.7017 0 11.4243L0.0861054 29.0794C0.249504 29.5863 0.792824 29.9279 1.31046 29.9279H28.5099C30.9858 29.9279 33 27.9137 33 25.4381V7.58382ZM24.0201 19.8214L19.0691 22.471C18.3414 22.8602 18.9329 24.0307 19.6877 23.6264L24.0201 21.3078V24.0111L15.4239 28.6174H10.3822L15.1077 26.0854C15.8494 25.6878 15.2313 24.5322 14.4886 24.93L7.60748 28.6174L2.58568 28.6172L24.0201 17.1314V19.8214ZM11.5255 11.4243H16.4761L21.8559 16.8041L18.6327 18.5313L11.5255 11.4243ZM7.14825 16.4423L1.31046 19.527V16.9018L5.43043 14.7245L7.14825 16.4423ZM1.31046 21.0095L8.11807 17.4122L9.81727 19.1111L1.31046 23.6062V21.0095ZM10.7871 20.0809L12.5155 21.8093L1.31046 27.8135V25.0886L10.7871 20.0809ZM24.0201 15.6445L23.0626 16.1576L18.3294 11.4243H24.0201V15.6445ZM17.4258 19.1781L13.7222 21.1628L3.98401 11.4243H9.672L17.4258 19.1781ZM1.31046 11.4243H2.13048L4.46086 13.7547L1.31046 15.4194V11.4243ZM18.1987 28.6174L24.0216 25.4973C24.0375 26.7146 24.5395 27.8168 25.3429 28.6174H18.1987ZM28.5099 28.6174C26.7569 28.6174 25.3306 27.1912 25.3306 25.4381C25.3306 23.685 26.7569 22.2587 28.5099 22.2587C30.2633 22.2587 31.6895 23.685 31.6895 25.4381C31.6895 27.1912 30.2633 28.6174 28.5099 28.6174ZM28.5099 20.948C27.269 20.948 26.1443 21.4543 25.3306 22.2711V19.6909C25.3306 17.962 26.781 16.5116 28.5099 16.5116C30.2388 16.5116 31.6895 17.962 31.6895 19.6909V22.2711C30.8758 21.4543 29.7512 20.948 28.5099 20.948ZM31.6127 16.4501C29.8713 14.7822 27.0333 14.8147 25.3308 16.5237V16.042C25.3308 16.0403 25.3308 16.0388 25.3308 16.037V13.6502C25.3308 11.9213 26.7813 10.4709 28.5102 10.4709C30.2391 10.4709 31.6895 11.9213 31.6895 13.6502V16.5237C31.6639 16.4992 31.6382 16.4746 31.6127 16.4501ZM31.6138 10.4104C29.8723 8.74171 27.0341 8.77343 25.3306 10.4827V7.58382C25.3306 5.83074 26.7569 4.40446 28.5099 4.40446C30.2633 4.40446 31.6895 5.83074 31.6895 7.58382V10.4827C31.6644 10.4588 31.6389 10.4346 31.6138 10.4104C31.6379 10.4336 31.5861 10.3838 31.6138 10.4104Z" fill="#21273A"/>
<path d="M28.5099 23.2988C27.3306 23.2988 26.3711 24.2583 26.3711 25.4376C26.3711 26.6169 27.3306 27.5764 28.5099 27.5764C29.6894 27.5764 30.6489 26.6169 30.6489 25.4376C30.6489 24.2583 29.6894 23.2988 28.5099 23.2988ZM28.5099 26.2659C28.0534 26.2659 27.6818 25.8943 27.6818 25.4376C27.6818 24.9809 28.0534 24.6095 28.5099 24.6095C28.9666 24.6095 29.3382 24.9809 29.3382 25.4376C29.3382 25.8943 28.9666 26.2659 28.5099 26.2659Z" fill="#21273A"/>
<path d="M17.0733 23.5742C16.7171 23.5742 16.418 23.8736 16.418 24.2296C16.418 24.5858 16.7173 24.8847 17.0733 24.8849C17.4193 24.8849 17.7121 24.6032 17.7272 24.2583C17.7433 23.8917 17.4409 23.5742 17.0733 23.5742Z" fill="#21273A"/>
</g>
<defs>
<clipPath id="clip0">
<rect width="33" height="33" fill="white"/>
</clipPath>
</defs>
</svg>
