<svg width="28" height="28" viewBox="0 0 28 28" fill="none" xmlns="http://www.w3.org/2000/svg">
<path d="M24.8828 24.9375V3.11719H3.0625V24.9375H24.8828ZM3.88281 21.4375H6.5625V24.1172H3.88281V21.4375ZM17.0625 17.1172H14.3828V14.4375H17.0625V17.1172ZM17.8828 14.4375H20.5625V17.1172H17.8828V14.4375ZM14.3828 17.9375H17.0625V20.6172H14.3828V17.9375ZM13.5625 20.6172H10.8828V17.9375H13.5625V20.6172ZM14.3828 13.6172V10.9375H17.0625V13.6172H14.3828ZM14.3828 10.1172V7.4375H17.0625V10.1172H14.3828ZM13.5625 10.1172H10.8828V7.4375H13.5625V10.1172ZM13.5625 10.9375V13.6172H10.8828V10.9375H13.5625ZM13.5625 14.4375V17.1172H10.8828V14.4375H13.5625ZM10.0625 17.1172H7.38281V14.4375H10.0625V17.1172ZM10.0625 17.9375V20.6172H7.38281V17.9375H10.0625ZM10.0625 21.4375V24.1172H7.38281V21.4375H10.0625ZM10.8828 21.4375H13.5625V24.1172H10.8828V21.4375ZM14.3828 21.4375H17.0625V24.1172H14.3828V21.4375ZM17.8828 21.4375H20.5625V24.1172H17.8828V21.4375ZM17.8828 20.6172V17.9375H20.5625V20.6172H17.8828ZM21.3828 17.9375H24.0625V20.6172H21.3828V17.9375ZM21.3828 17.1172V14.4375H24.0625V17.1172H21.3828ZM21.3828 13.6172V10.9375H24.0625V13.6172H21.3828ZM20.5625 13.6172H17.8828V10.9375H20.5625V13.6172ZM17.8828 10.1172V7.4375H20.5625V10.1172H17.8828ZM17.8828 6.61719V3.9375H20.5625V6.61719H17.8828ZM17.0625 6.61719H14.3828V3.9375H17.0625V6.61719ZM13.5625 6.61719H10.8828V3.9375H13.5625V6.61719ZM10.0625 6.61719H7.38281V3.9375H10.0625V6.61719ZM10.0625 7.4375V10.1172H8.3125V10.9375H10.0625V13.6172H7.38281V7.4375H10.0625ZM6.5625 10.1172H3.88281V7.4375H6.5625V10.1172ZM6.5625 10.9375V13.6172H3.88281V10.9375H6.5625ZM6.5625 14.4375V17.1172H3.88281V14.4375H6.5625ZM6.5625 17.9375V20.6172H3.88281V17.9375H6.5625ZM21.3828 24.1172V21.4375H24.0625V24.1172H21.3828ZM24.0625 10.1172H21.3828V7.4375H23.1875V6.61719H21.3828V3.9375H24.0625V10.1172ZM6.5625 3.9375V6.61719H3.88281V3.9375H6.5625Z" fill="#21273A"/>
<path d="M28 3.9375V3.11719H26.6328V1.36719H24.8828V0H24.0625V1.36719H21.3828V0H20.5625V1.36719H17.8828V0H17.0625V1.36719H14.3828V0H13.5625V1.36719H10.8828V0H10.0625V1.36719H7.38281V0H6.5625V1.36719H3.88281V0H3.0625V1.36719H1.3125V3.11719H0V3.9375H1.3125V6.61719H0V7.4375H1.3125V10.1172H0V10.9375H1.3125V13.6172H0V14.4375H1.3125V17.1172H0V17.9375H1.3125V20.6172H0V21.4375H1.3125V24.1172H0V24.9375H1.3125V26.6875H3.0625V28H3.88281V26.6875H6.5625V28H7.38281V26.6875H10.0625V28H10.8828V26.6875H13.5625V28H14.3828V26.6875H17.0625V28H17.8828V26.6875H20.5625V28H21.3828V26.6875H24.0625V28H24.8828V26.6875H26.6328V24.9375H28V24.1172H26.6328V23.1875H25.8125V25.8672H2.13281V2.1875H25.8125V22.3125H26.6328V21.4375H28V20.6172H26.6328V17.9375H28V17.1172H26.6328V14.4375H28V13.6172H26.6328V10.9375H28V10.1172H26.6328V7.4375H28V6.61719H26.6328V3.9375H28Z" fill="#21273A"/>
<path d="M7.875 18.4297H8.75V19.25H7.875V18.4297Z" fill="#21273A"/>
<path d="M21.875 21.9297H22.75V22.75H21.875V21.9297Z" fill="#21273A"/>
<path d="M15.75 8.80469H16.625V9.625H15.75V8.80469Z" fill="#21273A"/>
<path d="M14.875 7.92969H15.75V8.75H14.875V7.92969Z" fill="#21273A"/>
</svg>
