<svg width="24" height="24" viewBox="0 0 24 24" fill="none" xmlns="http://www.w3.org/2000/svg">
<g clip-path="url(#clip0)">
<path d="M23.9959 12C23.9959 11.8253 23.8987 11.6651 23.7437 11.5844L19.2242 9.23279L23.7437 6.8812C23.8987 6.80053 23.9959 6.64029 23.9959 6.46558C23.9959 6.29087 23.8987 6.13064 23.7437 6.04996L19.8509 4.02446C19.6212 3.90504 19.3385 3.99429 19.219 4.22382C19.0996 4.45334 19.1888 4.73628 19.4184 4.85571L22.5124 6.46554L12.0019 11.9344L1.49137 6.46554L12.0019 0.996666L15.6782 2.90953C15.9079 3.02896 16.1906 2.93966 16.3101 2.71018C16.4295 2.48065 16.3402 2.19771 16.1107 2.07829L12.2181 0.052884C12.0825 -0.017628 11.9212 -0.017628 11.7856 0.052884L0.260062 6.04991C0.10503 6.13054 0.0078125 6.29078 0.0078125 6.46554C0.0078125 6.64029 0.10503 6.80048 0.260062 6.88116L4.77952 9.23274L0.260062 11.5844C0.10503 11.6651 0.0078125 11.8253 0.0078125 12C0.0078125 12.1747 0.10503 12.3349 0.260062 12.4156L4.77952 14.7672L0.260062 17.1188C0.10503 17.1995 0.0078125 17.3597 0.0078125 17.5345C0.0078125 17.7092 0.10503 17.8694 0.260062 17.9501L11.7856 23.9471C11.8534 23.9823 11.9276 24 12.0019 24C12.0761 24 12.1503 23.9824 12.2181 23.9471L23.7437 17.9501C23.8987 17.8694 23.9959 17.7092 23.9959 17.5345C23.9959 17.3597 23.8987 17.1995 23.7437 17.1188L19.2242 14.7672L23.7437 12.4156C23.8987 12.3349 23.9959 12.1747 23.9959 12ZM12.2181 12.8782L18.2091 9.7609L19.6059 10.4877L9.11219 15.9653L7.24271 14.9926L11.5459 12.7535L11.7855 12.8782C11.8533 12.9134 11.9276 12.9311 12.0018 12.9311C12.0761 12.9311 12.1503 12.9134 12.2181 12.8782ZM10.5309 12.2253L6.22762 14.4644L4.36704 13.4963L8.67028 11.2572L10.5309 12.2253ZM5.79461 9.7609L7.65519 10.729L3.35195 12.9681L1.49133 11.9999L5.79461 9.7609ZM22.5124 17.5345L12.0019 23.0033L1.49137 17.5345L5.79461 15.2954L11.7856 18.4127C11.8534 18.4479 11.9276 18.4656 12.0019 18.4656C12.0761 18.4656 12.1503 18.448 12.2181 18.4127L18.2091 15.2954L22.5124 17.5345ZM12.0019 17.4689L10.1262 16.4929L20.6201 11.0154L22.5124 12L12.0019 17.4689Z" fill="#21273A"/>
<path d="M17.7654 3.93508C17.8886 3.93508 18.0095 3.88495 18.0966 3.79781C18.1837 3.71066 18.2339 3.58979 18.2339 3.46656C18.2339 3.34334 18.1838 3.22247 18.0966 3.13532C18.0095 3.04818 17.8886 2.99805 17.7654 2.99805C17.6422 2.99805 17.5213 3.04818 17.4342 3.13532C17.347 3.22247 17.2969 3.34334 17.2969 3.46656C17.2969 3.58979 17.347 3.71066 17.4342 3.79781C17.5213 3.88495 17.6422 3.93508 17.7654 3.93508Z" fill="#21273A"/>
</g>
<defs>
<clipPath id="clip0">
<rect width="24" height="24" fill="white"/>
</clipPath>
</defs>
</svg>
