<svg width="28" height="28" viewBox="0 0 28 28" fill="none" xmlns="http://www.w3.org/2000/svg">
<g clip-path="url(#clip0)">
<path d="M25.6666 0H3.26665C1.46338 0.00207813 0.00207813 1.46338 0 3.26665V25.6666C0.00153125 26.9547 1.0453 27.9985 2.33335 28H13.5334C14.0486 27.9994 14.4661 27.5819 14.4667 27.0666V21.1933L21.1932 14.4666H27.0667C27.5819 14.466 27.9995 14.0486 28.0001 13.5333V2.3333C27.9985 1.0453 26.9547 0.00153125 25.6666 0ZM13.5334 27.0666H8.59348L13.5334 22.1267V27.0666ZM27.0666 13.5334H22.1265L27.0666 8.59299V13.5334ZM27.0666 6.69353C27.0656 7.06459 26.9182 7.42027 26.6565 7.68338L20.6701 13.6699L20.6699 13.6702L13.6706 20.6696L13.6695 20.6707L7.68359 26.6568C7.42148 26.9201 7.06491 27.0678 6.69331 27.0667H2.33335C1.56051 27.0659 0.934172 26.4395 0.933352 25.6667V3.2667C0.934883 1.97865 1.97865 0.934883 3.2667 0.933352H25.6667C26.4395 0.934172 27.0659 1.56051 27.0667 2.33335V6.69353H27.0666Z" fill="#21273A"/>
<path d="M5.13413 2.80078C3.84542 2.80078 2.80078 3.84542 2.80078 5.13413C2.80231 6.42219 3.84608 7.46595 5.13413 7.46748C6.42279 7.46748 7.46748 6.42284 7.46748 5.13413C7.46743 3.84542 6.42279 2.80078 5.13413 2.80078ZM5.13413 6.53413C4.36091 6.53413 3.73413 5.90736 3.73413 5.13413C3.73495 4.36129 4.36129 3.73495 5.13413 3.73413C5.9073 3.73413 6.53413 4.36091 6.53413 5.13413C6.53413 5.9073 5.9073 6.53413 5.13413 6.53413Z" fill="#21273A"/>
<path d="M5.13413 20.5332C3.84548 20.5332 2.80078 21.5779 2.80078 22.8666C2.80078 24.1552 3.84542 25.1999 5.13413 25.1999C6.42219 25.1983 7.46595 24.1546 7.46748 22.8665C7.46743 21.5778 6.42279 20.5332 5.13413 20.5332ZM5.13413 24.2665C4.36091 24.2665 3.73413 23.6397 3.73413 22.8665C3.73413 22.0933 4.36091 21.4665 5.13413 21.4665C5.9073 21.4665 6.53413 22.0933 6.53413 22.8665C6.53326 23.6393 5.90698 24.2657 5.13413 24.2665Z" fill="#21273A"/>
<path d="M22.8646 2.80078C21.5759 2.80078 20.5312 3.84542 20.5312 5.13413C20.5328 6.42219 21.5765 7.46595 22.8646 7.46748C24.1533 7.46748 25.198 6.42284 25.198 5.13413C25.198 3.84542 24.1533 2.80078 22.8646 2.80078ZM22.8646 6.53413C22.0914 6.53413 21.4646 5.90736 21.4646 5.13413C21.4654 4.36129 22.0918 3.73495 22.8646 3.73413C23.6378 3.73413 24.2646 4.36091 24.2646 5.13413C24.2646 5.9073 23.6378 6.53413 22.8646 6.53413Z" fill="#21273A"/>
</g>
<defs>
<clipPath id="clip0">
<rect width="28" height="28" fill="white"/>
</clipPath>
</defs>
</svg>
