<svg width="23" height="23" viewBox="0 0 23 23" fill="none" xmlns="http://www.w3.org/2000/svg">
<g clip-path="url(#clip0)">
<path d="M7.70204 0.960485C7.70204 0.430868 7.27122 0 6.74155 0H0.960485C0.430868 0 0 0.430868 0 0.960485V19.1246C0 21.248 1.72756 22.9756 3.85102 22.9756C5.97448 22.9756 7.70204 21.248 7.70204 19.1246V0.960485ZM7.02783 19.1246C7.02783 20.8763 5.60272 22.3014 3.85102 22.3014C2.09932 22.3014 0.674214 20.8763 0.674214 19.1246V0.960485C0.674214 0.802629 0.802629 0.674214 0.960485 0.674214H6.74155C6.89941 0.674214 7.02783 0.802629 7.02783 0.960485V19.1246Z" fill="#21273A"/>
<path d="M3.84996 17.3379C2.85145 17.3379 2.03906 18.1503 2.03906 19.1488C2.03906 20.1473 2.8514 20.9597 3.84996 20.9597C4.84851 20.9597 5.66085 20.1473 5.66085 19.1488C5.66085 18.1502 4.84851 17.3379 3.84996 17.3379ZM3.84996 20.2855C3.22321 20.2855 2.71328 19.7756 2.71328 19.1488C2.71328 18.522 3.22316 18.0121 3.84996 18.0121C4.47675 18.0121 4.98664 18.522 4.98664 19.1488C4.98664 19.7755 4.47675 20.2855 3.84996 20.2855Z" fill="#21273A"/>
<path d="M5.29952 2.57812H2.40449C2.03929 2.57812 1.74219 2.87523 1.74219 3.24043V6.18683C1.74219 6.37301 1.89312 6.52394 2.07929 6.52394C2.26547 6.52394 2.4164 6.37301 2.4164 6.18683V5.94848H5.28766V8.13994H2.4164V7.62349C2.4164 7.43732 2.26547 7.28639 2.07929 7.28639C1.89312 7.28639 1.74219 7.43732 1.74219 7.62349V13.6586C1.74219 14.0238 2.03929 14.3209 2.40449 14.3209H5.29952C5.66472 14.3209 5.96183 14.0238 5.96183 13.6586V3.24043C5.96183 2.87523 5.66472 2.57812 5.29952 2.57812ZM2.41636 5.27426V3.25234H5.28761V5.27426H2.41636ZM5.28761 8.81415V11.0056H2.41636V8.81415H5.28761ZM2.41636 13.6467V11.6798H5.28761V13.6467H2.41636Z" fill="#21273A"/>
<path d="M8.9505 9.55537L14.4646 4.04129C14.5187 3.98722 14.5906 3.95742 14.667 3.95742C14.7435 3.95742 14.8154 3.98722 14.8695 4.04129L18.9573 8.12914C19.0114 8.18321 19.0412 8.25508 19.0412 8.33154C19.0412 8.40799 19.0114 8.47986 18.9573 8.53394L15.8792 11.6121C15.7475 11.7437 15.7475 11.9572 15.8792 12.0888C15.945 12.1546 16.0313 12.1875 16.1175 12.1875C16.2038 12.1875 16.2901 12.1546 16.3559 12.0888L19.434 9.0107C19.6154 8.82929 19.7154 8.5881 19.7154 8.33154C19.7154 8.07498 19.6154 7.83374 19.434 7.65238L15.3462 3.56453C15.1648 3.38312 14.9236 3.2832 14.667 3.2832C14.4105 3.2832 14.1693 3.38312 13.9879 3.56453L8.47374 9.07866C8.34209 9.21031 8.34209 9.42376 8.47374 9.55537C8.60539 9.68707 8.81885 9.68702 8.9505 9.55537Z" fill="#21273A"/>
<path d="M8.7121 19.5941C8.79835 19.5941 8.88465 19.5612 8.95045 19.4953L15.341 13.1048C15.4727 12.9731 15.4727 12.7596 15.341 12.628C15.2094 12.4964 14.9959 12.4964 14.8643 12.628L8.47374 19.0186C8.34209 19.1502 8.34209 19.3637 8.47374 19.4953C8.53954 19.5612 8.62584 19.5941 8.7121 19.5941Z" fill="#21273A"/>
<path d="M10.6226 14.4064L8.9505 12.7343C8.81885 12.6026 8.60539 12.6026 8.47378 12.7343C8.34213 12.8659 8.34213 13.0794 8.47378 13.211L10.1459 14.8831L8.74675 16.2823C8.6151 16.4139 8.6151 16.6274 8.74675 16.759C8.81255 16.8248 8.89885 16.8577 8.98511 16.8577C9.07136 16.8577 9.15766 16.8248 9.22346 16.759L16.5902 9.39227C16.8485 9.13404 16.8485 8.71383 16.5902 8.4556L14.5431 6.40851C14.2849 6.15029 13.8647 6.15029 13.6064 6.40851L8.47374 11.5413C8.34209 11.6729 8.34209 11.8864 8.47374 12.018C8.60539 12.1496 8.81885 12.1496 8.95045 12.018L10.1419 10.8265L12.1722 12.8568L10.6226 14.4064ZM14.0747 6.89372L16.105 8.924L14.6753 10.3537L12.645 8.32346L14.0747 6.89372ZM10.6187 10.3498L12.1683 8.80017L14.1986 10.8305L12.649 12.3801L10.6187 10.3498Z" fill="#21273A"/>
<path d="M22.0418 15.2988H14.2437C14.0575 15.2988 13.9066 15.4498 13.9066 15.6359C13.9066 15.8221 14.0575 15.973 14.2437 15.973H22.0418C22.1996 15.973 22.3281 16.1015 22.3281 16.2593V22.0404C22.3281 22.1982 22.1996 22.3267 22.0418 22.3267H7.18476C6.99859 22.3267 6.84766 22.4776 6.84766 22.6638C6.84766 22.8499 6.99859 23.0009 7.18476 23.0009H22.0418C22.5714 23.0009 23.0023 22.57 23.0023 22.0404V16.2593C23.0023 15.7297 22.5714 15.2988 22.0418 15.2988Z" fill="#21273A"/>
<path d="M14.0185 20.5845C13.8323 20.5845 13.6814 20.7355 13.6814 20.9216C13.6814 21.1078 13.8323 21.2587 14.0185 21.2587H19.7599C20.1251 21.2587 20.4222 20.9616 20.4222 20.5964V17.7014C20.4222 17.3362 20.1251 17.0391 19.7599 17.0391H12.5012C12.315 17.0391 12.1641 17.19 12.1641 17.3762C12.1641 17.5623 12.315 17.7133 12.5012 17.7133H14.1861V20.5845H14.0185ZM19.748 20.5845H17.7261V17.7133H19.748V20.5845ZM14.8604 17.7133H17.0518V20.5845H14.8604V17.7133Z" fill="#21273A"/>
<path d="M11.6568 17.8828C11.4707 17.8828 11.3197 18.0337 11.3197 18.2199V20.5847H9.34101C9.15484 20.5847 9.00391 20.7356 9.00391 20.9218C9.00391 21.1079 9.15484 21.2589 9.34101 21.2589H12.5811C12.7673 21.2589 12.9182 21.1079 12.9182 20.9218C12.9182 20.7356 12.7673 20.5847 12.5811 20.5847H11.994V18.2199C11.994 18.0337 11.843 17.8828 11.6568 17.8828Z" fill="#21273A"/>
</g>
<defs>
<clipPath id="clip0">
<rect width="23" height="23" fill="white"/>
</clipPath>
</defs>
</svg>
