<svg width="23" height="23" viewBox="0 0 23 23" fill="none" xmlns="http://www.w3.org/2000/svg">
<g clip-path="url(#clip0)">
<path d="M6.75877 14.016C7.0946 13.8465 7.49764 13.9731 7.67639 14.3041L8.94494 16.653C9.04269 16.834 9.2509 16.9254 9.45031 16.8751C9.64972 16.8247 9.78943 16.6453 9.78943 16.4396V13.0097C9.78938 12.7617 9.58827 12.5605 9.34016 12.5605C9.09206 12.5605 8.89094 12.7617 8.89094 13.0098V14.6624L8.46688 13.8772C8.05531 13.1152 7.12717 12.8237 6.35407 13.2139C5.69241 13.5477 5.35168 14.284 5.52548 15.0044L6.34787 18.4131C6.54009 19.2099 6.8828 19.9495 7.36643 20.6114L8.97751 22.816C9.06547 22.9364 9.20207 23.0002 9.34057 23.0002C9.43252 23.0002 9.52533 22.9721 9.60525 22.9137C9.80556 22.7673 9.84931 22.4862 9.70291 22.2859L8.09183 20.0812C7.67846 19.5156 7.38556 18.8835 7.22128 18.2024L6.3989 14.7937C6.32338 14.4807 6.4714 14.161 6.75877 14.016Z" fill="#21273A"/>
<path d="M16.9009 12.1006C16.6358 12.1006 16.3863 12.1685 16.1687 12.2877C15.9483 11.7135 15.3915 11.3046 14.7406 11.3046C14.4599 11.3046 14.1968 11.381 13.9704 11.5135C13.7285 10.9871 13.1966 10.6205 12.5803 10.6205C12.3554 10.6205 12.1419 10.6697 11.9494 10.7572V8.60945C11.9494 7.76617 11.2633 7.08008 10.42 7.08008C9.57667 7.08008 8.89062 7.76613 8.89062 8.60945V9.38812C8.89062 9.63618 9.09174 9.83734 9.33984 9.83734C9.58795 9.83734 9.78906 9.63618 9.78906 9.38812V8.60949C9.78906 8.26162 10.0721 7.97856 10.42 7.97856C10.7679 7.97856 11.0509 8.26162 11.0509 8.60949V14.9483C11.0509 15.1964 11.252 15.3975 11.5001 15.3975C11.7482 15.3975 11.9494 15.1964 11.9494 14.9483V12.1498C11.9494 11.8019 12.2324 11.5189 12.5803 11.5189C12.9282 11.5189 13.2112 11.8019 13.2112 12.1498V14.9483C13.2112 15.1964 13.4123 15.3975 13.6604 15.3975C13.9085 15.3975 14.1097 15.1964 14.1097 14.9483V12.834C14.1097 12.4861 14.3927 12.203 14.7406 12.203C15.0885 12.203 15.3715 12.4861 15.3715 12.834V14.9483C15.3715 15.1964 15.5726 15.3975 15.8207 15.3975C16.0688 15.3975 16.27 15.1964 16.27 14.9483V13.6299C16.27 13.282 16.553 12.999 16.9009 12.999C17.2488 12.999 17.5318 13.282 17.5318 13.6299V17.4204C17.5318 18.4304 17.3785 19.4312 17.0763 20.395L16.4426 22.4157C16.3684 22.6524 16.5001 22.9045 16.7369 22.9787C16.7816 22.9928 16.8269 22.9994 16.8714 22.9994C17.0625 22.9994 17.2397 22.8765 17.2999 22.6845L17.9336 20.6638C18.2631 19.6129 18.4303 18.5216 18.4303 17.4204V13.6299C18.4303 12.7867 17.7443 12.1006 16.9009 12.1006Z" fill="#21273A"/>
<path d="M22.9605 2.38217C22.8709 2.10639 22.6369 1.90923 22.3498 1.86759L20.9739 1.66809L20.3583 0.421413C20.2299 0.16145 19.9701 0 19.6802 0C19.6802 0 19.6801 0 19.68 0C19.39 4.4922e-05 19.1302 0.161674 19.0019 0.421772L18.387 1.66872L17.0111 1.86902C16.7242 1.9108 16.4903 2.1081 16.4008 2.38396C16.3113 2.65978 16.3847 2.95681 16.5924 3.15914L17.5883 4.12936L17.3536 5.49975C17.3047 5.78559 17.42 6.069 17.6546 6.23935C17.7872 6.33561 17.9422 6.38444 18.0983 6.38444C18.2185 6.38444 18.3394 6.35542 18.4511 6.29671L19.6815 5.64939L20.9123 6.29608C21.169 6.43103 21.4742 6.40884 21.7088 6.23827C21.9433 6.06774 22.0585 5.78433 22.0094 5.49849L21.774 4.12824L22.7693 3.15752C22.9769 2.95501 23.0502 2.6579 22.9605 2.38217ZM21.0932 3.5372C20.9149 3.711 20.8337 3.96131 20.8759 4.20667L21.0752 5.36669L20.0333 4.81927C19.8128 4.70337 19.5497 4.70351 19.3293 4.81941L18.2877 5.36741L18.4864 4.20721C18.5283 3.96185 18.447 3.71168 18.2686 3.53792L17.4255 2.71657L18.5904 2.54703C18.8367 2.51114 19.0495 2.35643 19.1596 2.13312L19.6803 1.07754L20.2015 2.13281C20.3117 2.35607 20.5246 2.51064 20.771 2.54645L21.9358 2.7154L21.0932 3.5372Z" fill="#21273A"/>
<path d="M14.7808 2.38217C14.6912 2.10639 14.4572 1.90918 14.1702 1.86759L12.7943 1.66809L12.1786 0.421413C12.0502 0.16145 11.7905 0 11.5005 0C11.5005 0 11.5004 0 11.5003 0C11.2103 4.4922e-05 10.9505 0.161674 10.8223 0.421772L10.2073 1.66872L8.83145 1.86902C8.54449 1.9108 8.31058 2.1081 8.2211 2.38396C8.13157 2.65978 8.20502 2.95681 8.41269 3.15914L9.40852 4.12932L9.17385 5.49971C9.12493 5.78554 9.24029 6.06896 9.47491 6.2393C9.60743 6.33557 9.76246 6.3844 9.91852 6.3844C10.0388 6.3844 10.1597 6.35538 10.2713 6.29667L11.5018 5.64939L12.7327 6.29604C12.9893 6.43098 13.2945 6.40879 13.5291 6.23822C13.7636 6.0677 13.8788 5.78429 13.8297 5.49845L13.5943 4.12819L14.5896 3.15748C14.7972 2.95501 14.8705 2.65794 14.7808 2.38217ZM12.9136 3.5372C12.7353 3.71096 12.6541 3.96122 12.6963 4.20667L12.8955 5.36669L11.8536 4.81927C11.6331 4.70342 11.3699 4.70346 11.1497 4.81941L10.108 5.36741L10.3067 4.20721C10.3486 3.9618 10.2673 3.71163 10.089 3.53792L9.2459 2.71657L10.4107 2.54703C10.657 2.51114 10.8698 2.35643 10.98 2.13312L11.5006 1.0775L12.0218 2.13281C12.132 2.35602 12.3449 2.51064 12.5914 2.54645L13.7562 2.7154L12.9136 3.5372Z" fill="#21273A"/>
<path d="M6.59725 2.38217C6.50759 2.10639 6.27359 1.90923 5.98658 1.86759L4.61067 1.66809L3.99506 0.421413C3.86667 0.16145 3.60689 0 3.31696 0C3.31691 0 3.31682 0 3.31674 0C3.02676 4.4922e-05 2.76693 0.161674 2.63868 0.421772L2.0237 1.66872L0.647876 1.86902C0.360915 1.9108 0.127051 2.1081 0.0375214 2.38392C-0.0520081 2.65974 0.0213495 2.95676 0.229069 3.15914L1.22494 4.12936L0.990271 5.49975C0.941351 5.78559 1.05671 6.069 1.29134 6.23939C1.4239 6.33561 1.57888 6.38449 1.73499 6.38444C1.85524 6.38444 1.97613 6.35542 2.0878 6.29671L3.31831 5.64943L4.54912 6.29608C4.80585 6.43094 5.11101 6.40879 5.34555 6.23831C5.58008 6.06774 5.69526 5.78424 5.64616 5.49845L5.41077 4.12819L6.40611 3.15748C6.61365 2.95501 6.68692 2.65794 6.59725 2.38217ZM4.73002 3.53716C4.55173 3.71091 4.47047 3.96122 4.51265 4.20667L4.71192 5.36669L3.67005 4.81927C3.44961 4.70342 3.18642 4.70346 2.96612 4.81941L1.92438 5.36746L2.12302 4.20735C2.16507 3.96198 2.08372 3.71177 1.90533 3.53796L1.06233 2.71657L2.22711 2.54703C2.47341 2.51114 2.68626 2.35643 2.79636 2.13312L3.317 1.0775L3.83819 2.13281C3.94838 2.35602 4.16127 2.51064 4.40775 2.54645L5.57263 2.7154L4.73002 3.53716Z" fill="#21273A"/>
<path d="M9.65744 10.9226C9.57389 10.839 9.45803 10.791 9.33984 10.791C9.2217 10.791 9.1058 10.839 9.02225 10.9226C8.93869 11.0062 8.89062 11.122 8.89062 11.2402C8.89062 11.3584 8.93869 11.4743 9.02225 11.5578C9.1058 11.6413 9.2217 11.6895 9.33984 11.6895C9.45799 11.6895 9.57389 11.6414 9.65744 11.5578C9.741 11.4743 9.78906 11.3584 9.78906 11.2402C9.78906 11.122 9.741 11.0061 9.65744 10.9226Z" fill="#21273A"/>
</g>
<defs>
<clipPath id="clip0">
<rect width="23" height="23" fill="white"/>
</clipPath>
</defs>
</svg>
