<svg width="30" height="30" viewBox="0 0 30 30" fill="none" xmlns="http://www.w3.org/2000/svg">
<path d="M28.4766 0.9375H1.52344C1.19988 0.9375 0.9375 1.19982 0.9375 1.52344V28.4766C0.9375 28.8001 1.19988 29.0625 1.52344 29.0625H28.4766C28.8002 29.0625 29.0625 28.8001 29.0625 28.4766V1.52344C29.0625 1.19982 28.8002 0.9375 28.4766 0.9375ZM27.8906 27.8906H2.10938V2.10938H27.8906V27.8906Z" fill="#21273A"/>
<path d="M15 24.375C20.1694 24.375 24.375 20.1694 24.375 15C24.375 9.83063 20.1694 5.625 15 5.625C9.83063 5.625 5.625 9.83063 5.625 15C5.625 20.1694 9.83063 24.375 15 24.375ZM15 6.79688C19.5233 6.79688 23.2031 10.4768 23.2031 15C23.2031 19.5232 19.5233 23.2031 15 23.2031C10.4768 23.2031 6.79688 19.5232 6.79688 15C6.79688 10.4768 10.4768 6.79688 15 6.79688Z" fill="#21273A"/>
<path d="M15 21.4453C18.5539 21.4453 21.4453 18.5539 21.4453 15C21.4453 11.4461 18.5539 8.55469 15 8.55469C11.4461 8.55469 8.55469 11.4461 8.55469 15C8.55469 18.5539 11.4461 21.4453 15 21.4453ZM15 9.72656C17.9078 9.72656 20.2734 12.0922 20.2734 15C20.2734 17.9078 17.9078 20.2734 15 20.2734C12.0922 20.2734 9.72656 17.9078 9.72656 15C9.72656 12.0922 12.0922 9.72656 15 9.72656Z" fill="#21273A"/>
<path d="M12.0703 15C12.0703 13.3846 13.3846 12.0703 15 12.0703C15.3236 12.0703 15.5859 11.808 15.5859 11.4844C15.5859 11.1608 15.3236 10.8984 15 10.8984C12.7384 10.8984 10.8984 12.7384 10.8984 15C10.8984 15.3236 11.1608 15.5859 11.4844 15.5859C11.808 15.5859 12.0703 15.3236 12.0703 15Z" fill="#21273A"/>
</svg>
