<svg width="29" height="29" viewBox="0 0 29 29" fill="none" xmlns="http://www.w3.org/2000/svg">
<path d="M20.6901 0H3.55129C1.71179 0.00238039 0.22113 1.49304 0.21875 3.33254V20.4318C0.22113 22.2713 1.71179 23.762 3.55129 23.7643H8.78814V22.8122H3.55129C2.23732 22.8106 1.17245 21.7458 1.1709 20.4318V12.378H4.22827C4.51041 12.3574 4.72244 12.1119 4.70179 11.8297C4.6978 11.7754 4.68519 11.7219 4.66436 11.6715C4.24124 10.7086 4.67876 9.5851 5.64162 9.16198C6.60449 8.73887 7.72803 9.17639 8.15115 10.1393C8.36568 10.6275 8.36568 11.1833 8.15115 11.6715C8.03355 11.9175 8.1377 12.2123 8.38371 12.3299C8.44733 12.3603 8.51677 12.3767 8.58723 12.3781H11.6446V15.2345C11.4873 15.2077 11.3281 15.1945 11.1685 15.195C9.59092 15.1945 8.31164 16.4729 8.31105 18.0505C8.31063 19.187 8.9841 20.2157 10.0259 20.6699L10.4068 19.7977C9.44239 19.3782 9.00065 18.2563 9.42013 17.2919C9.7228 16.596 10.4097 16.1463 11.1685 16.1472C11.4309 16.1471 11.6904 16.2019 11.9302 16.3081C12.1712 16.4132 12.4518 16.3031 12.557 16.0622C12.5832 16.0022 12.5967 15.9375 12.5968 15.872V12.378H15.0176C14.9905 12.5352 14.977 12.6945 14.9771 12.8541C14.98 14.2105 15.9339 15.3791 17.2623 15.6534L17.4527 14.7208C16.5671 14.5375 15.9313 13.7584 15.9293 12.8541C15.9292 12.5917 15.984 12.3322 16.0902 12.0924C16.1954 11.8514 16.0853 11.5708 15.8443 11.4656C15.7843 11.4394 15.7196 11.4259 15.6541 11.4259H12.5968V9.005C12.754 9.03208 12.9133 9.04564 13.0728 9.04547C14.6504 9.04547 15.9293 7.7666 15.9293 6.189C15.9293 4.6114 14.6504 3.33254 13.0728 3.33254C12.9133 3.33236 12.754 3.34593 12.5968 3.37301V0.952154H20.6901C22.004 0.953701 23.0689 2.01857 23.0704 3.33254V11.4259H20.0131C19.7502 11.426 19.5371 11.6393 19.5372 11.9022C19.5373 11.9676 19.5508 12.0324 19.577 12.0924C19.6832 12.3322 19.738 12.5917 19.7379 12.8541H20.6901C20.6902 12.6945 20.6767 12.5352 20.6496 12.378H23.5465C23.8094 12.378 24.0226 12.1648 24.0226 11.9019V3.33254C24.0202 1.49304 22.5296 0.00238039 20.6901 0ZM13.0728 4.28469C14.1245 4.28469 14.9771 5.13729 14.9771 6.189C14.9771 7.24072 14.1245 8.09331 13.0728 8.09331C12.8105 8.09337 12.551 8.03856 12.3111 7.9324C12.0702 7.82724 11.7895 7.93734 11.6844 8.17829C11.6582 8.23828 11.6447 8.30302 11.6446 8.36848V11.3863H9.22708C9.25094 11.242 9.26332 11.096 9.26421 10.9498C9.26421 10.9412 9.26421 10.9336 9.26421 10.925C9.26421 10.9164 9.26421 10.915 9.26421 10.9103C9.26421 9.33266 7.98535 8.0538 6.40775 8.0538C4.83015 8.0538 3.55129 9.33266 3.55129 10.9103C3.55129 10.915 3.55129 10.9203 3.55129 10.925C3.55129 10.9298 3.55129 10.9412 3.55129 10.9498C3.55218 11.096 3.56456 11.242 3.58842 11.3863H1.1709V3.33254C1.17245 2.01857 2.23732 0.953701 3.55129 0.952154H11.6446V4.00952C11.6447 4.27244 11.858 4.48548 12.1209 4.48536C12.1864 4.4853 12.2511 4.47179 12.3111 4.44561C12.551 4.33944 12.8105 4.28463 13.0728 4.28469Z" fill="#21273A"/>
<path d="M27.7646 20.4623L23.7622 17.7063L22.2249 13.5992C22.1332 13.3528 21.8591 13.2274 21.6127 13.3191C21.6039 13.3224 21.5951 13.3259 21.5865 13.3297L18.492 14.6985C18.26 14.8009 18.1491 15.0672 18.2397 15.304C18.2911 15.4373 18.3392 15.5383 18.3901 15.643C18.4411 15.7477 18.4882 15.8458 18.5458 16.0005C18.9154 16.988 18.4178 18.0886 17.4323 18.4633C16.4472 18.8317 15.35 18.3319 14.9815 17.3468C14.889 17.0997 14.849 16.8361 14.8638 16.5728C14.8776 16.3102 14.6759 16.0862 14.4134 16.0724C14.3476 16.0689 14.2818 16.0791 14.2202 16.1024L10.9124 17.3483C10.6668 17.4408 10.5424 17.7147 10.6343 17.9605L11.8217 21.1326C11.6643 21.1613 11.5097 21.204 11.3599 21.2602C9.8784 21.8123 9.125 23.4608 9.67708 24.9423C10.2291 26.4238 11.8777 27.1772 13.3592 26.6251C13.5117 26.5683 13.6591 26.4986 13.7998 26.4166L14.651 28.6904C14.7433 28.9366 15.0176 29.0614 15.2638 28.9692C15.2641 28.9691 15.2644 28.9689 15.2647 28.9689L19.9816 27.1917C20.2779 27.8286 20.8232 28.3154 21.4894 28.538L21.7903 27.6335C21.3979 27.5012 21.0717 27.2226 20.88 26.8556L22.3154 26.3152C22.7869 27.6414 24.0429 28.5265 25.4503 28.5247V27.5725C24.139 27.5645 23.078 26.5034 23.07 25.1922C23.07 25.0659 23.0197 24.9448 22.9305 24.8556L21.2728 23.1979C21.027 22.95 20.9993 22.5597 21.2075 22.2795C21.3288 22.1158 21.516 22.0138 21.7193 22.0005C21.9229 21.9834 22.1234 22.0584 22.2659 22.2048L25.5898 25.5287L26.263 24.8556L25.2794 23.872C25.5218 23.1473 25.5068 22.3613 25.2371 21.6463L24.3449 19.2636L27.2218 21.2445C27.6032 21.5122 27.8304 21.9488 27.8307 22.4147V28.5642H28.7829V22.4147C28.7822 21.6368 28.4021 20.9081 27.7646 20.4623ZM24.3454 21.9801C24.4769 22.3296 24.5245 22.7051 24.4844 23.0765L22.939 21.5316C22.3012 20.8774 21.2538 20.8643 20.5996 21.5021C19.9454 22.14 19.9323 23.1873 20.5701 23.8415C20.5798 23.8515 20.5896 23.8613 20.5996 23.871L22.1054 25.3769L15.3775 27.911L14.4701 25.4864C14.4136 25.3357 14.2848 25.2238 14.1278 25.1888C14.0939 25.1813 14.0592 25.1775 14.0245 25.1774C13.8999 25.1773 13.7803 25.226 13.6912 25.3131C12.9268 26.0353 11.7215 26.0011 10.9992 25.2366C10.2769 24.4721 10.3112 23.2668 11.0757 22.5446C11.2555 22.3747 11.4666 22.2415 11.6974 22.1523C11.849 22.0962 12.0073 22.0603 12.1683 22.0457C12.2673 22.0336 12.3671 22.0302 12.4668 22.0357C12.7293 22.0495 12.9534 21.8478 12.9671 21.5852C12.9706 21.5199 12.9605 21.4547 12.9376 21.3935L11.6941 18.0733L13.9612 17.2197C14.2587 18.769 15.7559 19.7837 17.3051 19.4862C17.4634 19.4558 17.6189 19.412 17.7698 19.3554C19.246 18.7953 19.9922 17.1476 19.4394 15.6687C19.3956 15.5515 19.3561 15.4587 19.318 15.3759L21.5079 14.4061L24.3454 21.9801Z" fill="#21273A"/>
</svg>
