<svg width="10" height="14" viewBox="0 0 10 14" fill="none" xmlns="http://www.w3.org/2000/svg">
<path d="M8.17906 13.4431C8.36955 13.4473 8.55661 13.3921 8.71423 13.2851C8.87186 13.178 8.99222 13.0245 9.05858 12.8459C9.12494 12.6673 9.134 12.4725 9.08451 12.2885C9.03502 12.1045 8.92942 11.9405 8.78242 11.8193L3.1732 7.014L8.78242 2.21036C8.88411 2.13562 8.96927 2.04073 9.03258 1.93155C9.09588 1.82237 9.13596 1.70127 9.15031 1.57588C9.16465 1.45049 9.15296 1.32352 9.11595 1.20286C9.07894 1.0822 9.01741 0.970454 8.93523 0.874676C8.85304 0.778897 8.75197 0.701204 8.63833 0.646298C8.5247 0.591392 8.40095 0.560554 8.27484 0.555688C8.14873 0.550821 8.02297 0.571976 7.90544 0.617963C7.78791 0.66395 7.68114 0.733706 7.59182 0.822867L1.16979 6.31756C1.06894 6.40362 0.987952 6.51045 0.932422 6.63084C0.876891 6.75123 0.848135 6.88227 0.848135 7.01485C0.848135 7.14743 0.876891 7.27847 0.932422 7.39886C0.987952 7.51925 1.06894 7.62618 1.16979 7.71225L7.59182 13.2122C7.75405 13.3563 7.96214 13.4382 8.17906 13.4433V13.4431Z" fill="#21273A"/>
</svg>
