<svg width="24" height="24" viewBox="0 0 24 24" fill="none" xmlns="http://www.w3.org/2000/svg">
<g clip-path="url(#clip0)">
<path d="M5.41898 22.092C5.52588 22.1776 5.67794 22.1776 5.78484 22.092L7.42626 20.7789L9.06767 22.092C9.17457 22.1776 9.32663 22.1776 9.43353 22.092L11.2268 20.6573C12.4524 23.2393 15.3637 24.5583 18.113 23.7771C20.8623 22.9958 22.6451 20.3429 22.3295 17.5024C22.0141 14.6616 19.6928 12.4644 16.8391 12.3055V8.0956H20.6788C20.8405 8.0956 20.9714 7.9645 20.9714 7.80291V2.35884C20.9701 1.10063 19.9825 0.0645971 18.7258 0.00266773V0H4.32483C2.85396 0.00171496 1.66187 1.19381 1.66016 2.66468V21.8633C1.66016 21.976 1.72456 22.0785 1.82613 22.1273C1.9275 22.1759 2.04774 22.1623 2.13558 22.092L3.77738 20.7789L5.41898 22.092ZM21.7796 18.1482C21.7796 21.0571 19.4215 23.415 16.5127 23.4152C13.6039 23.4152 11.2459 21.0571 11.2459 18.1483C11.2459 15.2396 13.6039 12.8815 16.5127 12.8815C19.4202 12.8847 21.7761 15.2409 21.7796 18.1482ZM20.3861 2.35884V7.51022H16.8391V2.35884C16.8443 1.38303 17.6368 0.594712 18.6126 0.594712C19.5886 0.594712 20.3811 1.38303 20.3861 2.35884ZM2.24553 21.2545V2.66468C2.24687 1.51679 3.17695 0.586709 4.32483 0.585375H17.06C16.5476 1.03241 16.2538 1.67895 16.2538 2.35884V12.3022C14.4037 12.384 12.7015 13.3365 11.6643 14.8709C10.6271 16.405 10.3775 18.3395 10.9911 20.0868L10.8857 20.1802L9.25022 21.4885L7.60899 20.1754C7.50209 20.0899 7.35003 20.0899 7.24313 20.1754L5.60172 21.4885L3.96012 20.1754C3.85322 20.0899 3.70135 20.0899 3.59426 20.1754L2.24553 21.2545Z" fill="#21273A"/>
<path d="M3.84347 9.92522H3.97381C4.13558 9.92522 4.26649 9.79412 4.26649 9.63253C4.26649 9.47094 4.13558 9.33984 3.97381 9.33984H3.84347C3.68188 9.33984 3.55078 9.47094 3.55078 9.63253C3.55078 9.79412 3.68188 9.92522 3.84347 9.92522Z" fill="#21273A"/>
<path d="M5.27706 9.92522H6.2626C6.42438 9.92522 6.55529 9.79412 6.55529 9.63253C6.55529 9.47094 6.42438 9.33984 6.2626 9.33984H5.27706C5.11547 9.33984 4.98438 9.47094 4.98438 9.63253C4.98438 9.79412 5.11547 9.92522 5.27706 9.92522Z" fill="#21273A"/>
<path d="M7.58566 9.92522H14.6509C14.8125 9.92522 14.9436 9.79412 14.9436 9.63253C14.9436 9.47094 14.8125 9.33984 14.6509 9.33984H7.58566C7.42388 9.33984 7.29297 9.47094 7.29297 9.63253C7.29297 9.79412 7.42388 9.92522 7.58566 9.92522Z" fill="#21273A"/>
<path d="M3.84347 7.14592H3.97381C4.13558 7.14592 4.26649 7.01482 4.26649 6.85324C4.26649 6.69165 4.13558 6.56055 3.97381 6.56055H3.84347C3.68188 6.56055 3.55078 6.69165 3.55078 6.85324C3.55078 7.01482 3.68188 7.14592 3.84347 7.14592Z" fill="#21273A"/>
<path d="M5.27706 7.14592H6.2626C6.42438 7.14592 6.55529 7.01482 6.55529 6.85324C6.55529 6.69165 6.42438 6.56055 6.2626 6.56055H5.27706C5.11547 6.56055 4.98438 6.69165 4.98438 6.85324C4.98438 7.01482 5.11547 7.14592 5.27706 7.14592Z" fill="#21273A"/>
<path d="M7.58566 7.14592H14.6509C14.8125 7.14592 14.9436 7.01482 14.9436 6.85324C14.9436 6.69165 14.8125 6.56055 14.6509 6.56055H7.58566C7.42388 6.56055 7.29297 6.69165 7.29297 6.85324C7.29297 7.01482 7.42388 7.14592 7.58566 7.14592Z" fill="#21273A"/>
<path d="M3.84347 4.36662H3.97381C4.13558 4.36662 4.26649 4.23552 4.26649 4.07394C4.26649 3.91235 4.13558 3.78125 3.97381 3.78125H3.84347C3.68188 3.78125 3.55078 3.91235 3.55078 4.07394C3.55078 4.23552 3.68188 4.36662 3.84347 4.36662Z" fill="#21273A"/>
<path d="M5.27706 4.36662H6.2626C6.42438 4.36662 6.55529 4.23552 6.55529 4.07394C6.55529 3.91235 6.42438 3.78125 6.2626 3.78125H5.27706C5.11547 3.78125 4.98438 3.91235 4.98438 4.07394C4.98438 4.23552 5.11547 4.36662 5.27706 4.36662Z" fill="#21273A"/>
<path d="M7.58566 4.36662H14.6509C14.8125 4.36662 14.9436 4.23552 14.9436 4.07394C14.9436 3.91235 14.8125 3.78125 14.6509 3.78125H7.58566C7.42388 3.78125 7.29297 3.91235 7.29297 4.07394C7.29297 4.23552 7.42388 4.36662 7.58566 4.36662Z" fill="#21273A"/>
<path d="M3.84347 12.7045H3.97381C4.13558 12.7045 4.26649 12.5734 4.26649 12.4118C4.26649 12.25 4.13558 12.1191 3.97381 12.1191H3.84347C3.68188 12.1191 3.55078 12.25 3.55078 12.4118C3.55078 12.5734 3.68188 12.7045 3.84347 12.7045Z" fill="#21273A"/>
<path d="M5.27706 12.7045H6.2626C6.42438 12.7045 6.55529 12.5734 6.55529 12.4118C6.55529 12.25 6.42438 12.1191 6.2626 12.1191H5.27706C5.11547 12.1191 4.98438 12.25 4.98438 12.4118C4.98438 12.5734 5.11547 12.7045 5.27706 12.7045Z" fill="#21273A"/>
<path d="M7.58566 12.7045H11.8712C12.0328 12.7045 12.1639 12.5734 12.1639 12.4118C12.1639 12.25 12.0328 12.1191 11.8712 12.1191H7.58566C7.42388 12.1191 7.29297 12.25 7.29297 12.4118C7.29297 12.5734 7.42388 12.7045 7.58566 12.7045Z" fill="#21273A"/>
<path d="M4.37968 19.0105V19.2498C4.37968 19.4116 4.51078 19.5425 4.67237 19.5425C4.83415 19.5425 4.96506 19.4116 4.96506 19.2498V19.0105C5.50794 18.8638 5.85817 18.3377 5.78405 17.7803C5.71011 17.2227 5.23469 16.8064 4.67237 16.8064C4.37625 16.8064 4.13616 16.5663 4.13616 16.2702C4.13616 15.9741 4.37625 15.734 4.67237 15.7342C4.96849 15.7342 5.20858 15.9741 5.20858 16.2702C5.20858 16.432 5.33968 16.5629 5.50127 16.5629C5.66286 16.5629 5.79396 16.432 5.79396 16.2702C5.7932 15.7639 5.45382 15.3205 4.96506 15.1877V14.986C4.96506 14.8243 4.83415 14.6934 4.67237 14.6934C4.51078 14.6934 4.37968 14.8243 4.37968 14.986V15.1877C3.8368 15.3344 3.48657 15.8605 3.56069 16.4179C3.63462 16.9754 4.11005 17.3918 4.67237 17.3918C4.96849 17.39 5.20973 17.6288 5.21144 17.9247C5.21296 18.2209 4.97439 18.4621 4.67828 18.4638C4.67637 18.4638 4.67447 18.4634 4.67237 18.4634C4.67046 18.4634 4.66856 18.4634 4.66646 18.4638C4.37282 18.4604 4.13654 18.2216 4.13616 17.928C4.13616 17.7662 4.00506 17.6353 3.84347 17.6353C3.68188 17.6353 3.55078 17.7662 3.55078 17.928C3.55154 18.4345 3.89092 18.8777 4.37968 19.0105Z" fill="#21273A"/>
<path d="M7.33956 18.3041H9.81369C9.97527 18.3041 10.1064 18.173 10.1064 18.0114C10.1064 17.8498 9.97527 17.7188 9.81369 17.7188H7.33956C7.17797 17.7188 7.04688 17.8498 7.04688 18.0114C7.04688 18.173 7.17797 18.3041 7.33956 18.3041Z" fill="#21273A"/>
<path d="M15.6992 15.6566C15.7017 16.4468 16.1505 17.1681 16.8584 17.5195V21.47C16.862 21.9738 17.2713 22.3802 17.7751 22.3802C18.2789 22.3802 18.6882 21.9738 18.6918 21.47V17.5195C19.3999 17.1681 19.8487 16.4468 19.8512 15.6566C19.8536 14.8685 19.4076 14.1475 18.7012 13.798C18.6105 13.7526 18.5028 13.7576 18.4165 13.8109C18.3304 13.8643 18.2778 13.9584 18.2778 14.0598V14.9259L17.7841 15.2546L17.2722 14.8965L17.2751 14.0598C17.2757 13.9582 17.2235 13.8635 17.1371 13.8098C17.0508 13.7561 16.943 13.7511 16.8519 13.7963C16.1438 14.1452 15.6964 14.8672 15.6992 15.6566ZM16.6878 14.6351L16.6865 15.0478C16.6861 15.1437 16.7328 15.2336 16.8113 15.2887L17.6122 15.8489C17.7109 15.9181 17.842 15.9196 17.9422 15.8527L18.7324 15.3264C18.814 15.2721 18.863 15.1806 18.863 15.0827V14.636C19.2035 15.0002 19.3397 15.5105 19.2262 15.996C19.1124 16.4815 18.7637 16.8783 18.2966 17.0532C18.1823 17.0961 18.1065 17.2052 18.1065 17.3274V21.47C18.1042 21.6516 17.9565 21.7975 17.7751 21.7975C17.5935 21.7975 17.4458 21.6516 17.4435 21.47V17.3274C17.4435 17.2052 17.3677 17.0961 17.2534 17.0532C16.7861 16.8781 16.4374 16.4811 16.3237 15.9954C16.2101 15.5095 16.3467 14.9992 16.6878 14.6351Z" fill="#21273A"/>
<path d="M15.7561 18.256H14.9512V14.0974C14.9512 13.9358 14.8201 13.8047 14.6585 13.8047C14.4969 13.8047 14.3658 13.9358 14.3658 14.0974V18.256H13.4607C13.2991 18.256 13.168 18.3871 13.168 18.5487C13.168 18.7103 13.2991 18.8414 13.4607 18.8414H13.6455L13.3539 19.8553C13.3463 19.8816 13.3425 19.9088 13.3425 19.9361V21.5219C13.3431 22.0785 13.7941 22.5297 14.3507 22.5303H14.9233C15.4799 22.5299 15.9312 22.0786 15.9317 21.5219V19.9361C15.9317 19.9086 15.9279 19.8814 15.9203 19.8551L15.629 18.8414H15.7561C15.9176 18.8414 16.0487 18.7103 16.0487 18.5487C16.0487 18.3871 15.9176 18.256 15.7561 18.256ZM15.3462 19.9774V21.5219C15.346 21.7555 15.1568 21.9447 14.9233 21.9449H14.3507C14.1173 21.9447 13.9281 21.7555 13.9279 21.5219V19.9774L14.2543 18.8414H15.0196L15.3462 19.9774Z" fill="#21273A"/>
</g>
<defs>
<clipPath id="clip0">
<rect width="24" height="24" fill="white"/>
</clipPath>
</defs>
</svg>
