<svg width="13" height="15" viewBox="0 0 13 15" fill="none" xmlns="http://www.w3.org/2000/svg">
<path d="M6.50201 0C3.4466 0 0.960938 2.48566 0.960938 5.54107C0.960938 6.54694 1.41205 7.62875 1.43095 7.67438C1.57665 8.02021 1.86413 8.55737 2.07143 8.87223L5.87065 14.6287C6.02613 14.8647 6.25624 15 6.50201 15C6.74777 15 6.97789 14.8647 7.13336 14.6291L10.9329 8.87223C11.1405 8.55737 11.4277 8.02021 11.5734 7.67438C11.5923 7.62907 12.0431 6.54726 12.0431 5.54107C12.0431 2.48566 9.55742 0 6.50201 0ZM10.9723 7.42145C10.8423 7.73142 10.5747 8.23109 10.3886 8.51336L6.58903 14.2702C6.51407 14.384 6.49027 14.384 6.41531 14.2702L2.61576 8.51336C2.42965 8.23109 2.16205 7.73109 2.03199 7.42112C2.02645 7.40776 1.61283 6.41199 1.61283 5.54107C1.61283 2.84518 3.80611 0.65189 6.50201 0.65189C9.1979 0.65189 11.3912 2.84518 11.3912 5.54107C11.3912 6.4133 10.9766 7.41167 10.9723 7.42145Z" fill="#21273A"/>
<path d="M6.50382 2.60742C4.88615 2.60742 3.57031 3.92359 3.57031 5.54093C3.57031 7.15827 4.88615 8.47444 6.50382 8.47444C8.12148 8.47444 9.43732 7.15827 9.43732 5.54093C9.43732 3.92359 8.12148 2.60742 6.50382 2.60742ZM6.50382 7.82255C5.246 7.82255 4.2222 6.79908 4.2222 5.54093C4.2222 4.28278 5.246 3.25931 6.50382 3.25931C7.76164 3.25931 8.78543 4.28278 8.78543 5.54093C8.78543 6.79908 7.76164 7.82255 6.50382 7.82255Z" fill="#21273A"/>
</svg>
