<svg width="28" height="28" viewBox="0 0 28 28" fill="none" xmlns="http://www.w3.org/2000/svg">
<g clip-path="url(#clip0)">
<path d="M0.601131 -0.0546875H27.5082C27.8101 -0.0546875 28.0547 0.189911 28.0547 0.49176V27.3989C28.0547 27.7007 27.8101 27.9453 27.5082 27.9453H0.601131C0.299282 27.9453 0.0546837 27.7007 0.0546837 27.3989V0.49176C0.0546837 0.189911 0.299282 -0.0546875 0.601131 -0.0546875V-0.0546875ZM1.14737 26.8526H26.962V1.03799H1.14737V26.8526Z" fill="#21273A"/>
<path d="M24.1762 24.6664H18.2783C18.2712 24.6666 18.2642 24.6674 18.2571 24.6674C18.2499 24.6674 18.243 24.6666 18.236 24.6664H3.87561C3.57397 24.6664 3.32937 24.4218 3.32937 24.1199V3.76889C3.32937 3.46725 3.57397 3.22266 3.87561 3.22266H24.1762C24.4781 3.22266 24.7227 3.46725 24.7227 3.76889V24.1199C24.7227 24.4218 24.4781 24.6664 24.1762 24.6664ZM23.63 10.2359H18.8036V23.5737H23.63V10.2359ZM17.7107 23.5737V18.6069H16.5088C16.207 18.6069 15.9624 18.3623 15.9624 18.0607C15.9624 17.7589 16.207 17.5143 16.5088 17.5143H17.7107V10.2359H10.399V17.5143H12.1379C12.4395 17.5143 12.6841 17.7589 12.6841 18.0607C12.6841 18.3623 12.4395 18.6069 12.1379 18.6069H4.42205V23.5737H17.7107ZM4.42205 17.5143H9.30633V4.31534H4.42205V17.5143ZM10.399 4.31534V9.14322H23.63V4.31534H10.399Z" fill="#21273A"/>
<path d="M13.8557 17.8764C13.8693 17.8431 13.8862 17.8113 13.9059 17.7818C13.9255 17.7519 13.9486 17.7239 13.9736 17.6987C14.1005 17.572 14.2895 17.5135 14.4664 17.5496C14.5014 17.5562 14.5358 17.5671 14.5692 17.5808C14.6021 17.5944 14.6337 17.6113 14.6631 17.631C14.6933 17.6506 14.721 17.6737 14.7462 17.6987C14.7712 17.7239 14.7943 17.7519 14.8144 17.7818C14.8343 17.8113 14.8505 17.8431 14.8642 17.8764C14.8778 17.9091 14.8887 17.9435 14.896 17.9785C14.903 18.0136 14.9062 18.0495 14.9062 18.0851C14.9062 18.1206 14.903 18.1567 14.896 18.1915C14.8887 18.2266 14.8778 18.2609 14.8642 18.2943C14.8505 18.3272 14.8343 18.3588 14.8144 18.3883C14.7943 18.4184 14.7712 18.4462 14.7462 18.4714C14.721 18.4966 14.6933 18.5194 14.6631 18.5391C14.6337 18.5587 14.6021 18.5756 14.5692 18.5893C14.5358 18.603 14.5014 18.6139 14.4664 18.6205C14.4316 18.6275 14.3955 18.6314 14.3598 18.6314C14.2162 18.6314 14.0753 18.5731 13.9736 18.4714C13.9486 18.4462 13.9255 18.4184 13.9059 18.3883C13.8862 18.3588 13.8693 18.3272 13.8557 18.2943C13.842 18.2609 13.8311 18.2266 13.8245 18.1915C13.8174 18.1567 13.8136 18.1206 13.8136 18.0851C13.8136 18.0495 13.8174 18.0136 13.8245 17.9785C13.8311 17.9435 13.842 17.9091 13.8557 17.8764Z" fill="#21273A"/>
</g>
<defs>
<clipPath id="clip0">
<rect width="28" height="28" fill="white" transform="matrix(-1 0 0 1 28 0)"/>
</clipPath>
</defs>
</svg>
