<svg width="28" height="28" viewBox="0 0 28 28" fill="none" xmlns="http://www.w3.org/2000/svg">
<path d="M27.9916 14.425C27.9886 14.394 27.9824 14.3633 27.9731 14.3336C27.9643 14.3036 27.9524 14.2745 27.9376 14.2469C27.9308 14.2342 27.9297 14.22 27.9216 14.2078C27.913 14.195 27.8998 14.1882 27.8902 14.1766C27.8123 14.081 27.6994 14.0206 27.5767 14.0087C27.5623 14.0051 27.5478 14.0022 27.5332 14H18.6666V0.466648C18.6666 0.451883 18.6596 0.439414 18.6582 0.424977C18.6553 0.393969 18.6491 0.363344 18.6398 0.333594C18.631 0.30357 18.6191 0.274477 18.6043 0.246914C18.5974 0.234227 18.5964 0.220008 18.5882 0.207758C18.5796 0.194852 18.5662 0.188016 18.5566 0.176258C18.5177 0.128953 18.4702 0.0895234 18.4165 0.0601563C18.362 0.0318828 18.3028 0.0143281 18.2417 0.00842187C18.2273 0.00710937 18.2148 0 18.2 0H14.4666C14.4526 0 14.4407 0.00683594 14.4269 0.00803906C14.3642 0.0143828 14.3032 0.0327031 14.2473 0.062125C14.2345 0.0690703 14.2201 0.0701094 14.2078 0.0784219L0.207812 9.41172C0.194906 9.42031 0.188125 9.4337 0.176367 9.44327C0.151758 9.46323 0.129336 9.48577 0.109484 9.51043C0.0526094 9.5807 0.0176094 9.66612 0.00885937 9.75614C0.00514062 9.77058 0.0021875 9.78523 0 9.8V27.5334C0 27.7911 0.208906 28 0.466648 28H13.5333H13.5335H13.5337C13.5889 27.9988 13.6435 27.9877 13.6948 27.9674C13.7107 27.961 13.7262 27.9537 13.7413 27.9455C13.7588 27.9386 13.7757 27.9307 13.7921 27.9216L27.7921 18.5882C27.805 18.5796 27.8118 18.5662 27.8235 18.5567C27.8706 18.518 27.9099 18.4707 27.9392 18.4173C27.9674 18.3633 27.985 18.3045 27.9911 18.2439C27.9948 18.2294 27.9978 18.2148 27.9999 18.2V14.4666C28 14.4519 27.9929 14.4394 27.9916 14.425ZM14.608 0.933352H16.6587L4.05874 9.33335H2.00796L14.608 0.933352ZM17.7334 1.33864V14.2169L4.66665 22.9281V10.0498L17.7334 1.33864ZM13.0666 27.0666H0.933351V10.2666H3.73335V23.8C3.73335 23.8148 3.74041 23.8272 3.74177 23.8417C3.74834 23.9039 3.76666 23.9643 3.79575 24.0197C3.80259 24.0324 3.80362 24.0466 3.81177 24.0588C3.82588 24.0779 3.84141 24.0959 3.85831 24.1125C3.86526 24.1201 3.87078 24.1283 3.87816 24.1355C3.91584 24.1715 3.95943 24.2009 4.00701 24.2223C4.01707 24.2269 4.0273 24.23 4.03774 24.2339C4.08926 24.2543 4.144 24.2653 4.1994 24.2665L4.20011 24.2667H13.0668V27.0666H13.0666ZM13.392 23.3334H5.74126L18.3413 14.9334H25.992L13.392 23.3334ZM27.0666 17.9502L14 26.6614V24.0497L27.0666 15.3386V17.9502Z" fill="#21273A"/>
</svg>
