<svg width="11" height="23" viewBox="0 0 11 23" fill="none" xmlns="http://www.w3.org/2000/svg">
<path d="M5.5013 0C2.53866 0 0.128906 2.40976 0.128906 5.3724V15.3497C0.128906 15.7734 0.474227 16.1172 0.896391 16.1172C1.32153 16.1172 1.66388 15.7734 1.66388 15.3497V5.3724C1.66388 3.25735 3.38453 1.53497 5.5013 1.53497C7.61807 1.53497 9.33872 3.25706 9.33872 5.3724V19.1871C9.33872 20.4566 8.30722 21.4896 7.03627 21.4896C5.76853 21.4896 4.73382 20.4566 4.73382 19.1871V6.90737C4.73382 6.4852 5.07914 6.13988 5.5013 6.13988C5.92347 6.13988 6.26879 6.4852 6.26879 6.90737V16.1172C6.26879 16.5408 7.03627 16.8847 7.03627 16.8847C7.46141 16.8847 7.80375 16.5408 7.80375 16.1172V6.90737C7.80375 5.6379 6.77226 4.60491 5.5013 4.60491C4.23356 4.60491 3.19885 5.6379 3.19885 6.90737V19.1871C3.19885 21.161 4.69525 22.7888 6.61358 23H7.45891C9.377 22.7888 10.8736 21.161 10.8736 19.1871V5.3724C10.8737 2.40832 8.46394 0 5.5013 0Z" fill="#FFC620"/>
</svg>
