<svg width="15" height="15" viewBox="0 0 15 15" fill="none" xmlns="http://www.w3.org/2000/svg">
<path d="M14.0789 10.5909C14.0541 10.5703 11.2434 8.57063 10.4845 8.69297C10.1184 8.75766 9.90938 9.0075 9.48984 9.50719C9.42234 9.58781 9.25969 9.78047 9.13406 9.91781C8.8689 9.83143 8.61027 9.72616 8.36016 9.60281C7.06899 8.97422 6.02578 7.93101 5.39719 6.63984C5.27384 6.38973 5.16857 6.1311 5.08219 5.86594C5.22 5.73984 5.41313 5.57719 5.49563 5.50781C5.99297 5.09062 6.24234 4.88109 6.30703 4.51453C6.43969 3.75562 4.42969 0.945937 4.40906 0.920625C4.31753 0.790808 4.19831 0.682933 4.06002 0.604789C3.92172 0.526645 3.76781 0.480181 3.60938 0.46875C2.79469 0.46875 0.46875 3.48563 0.46875 3.99422C0.46875 4.02375 0.511406 7.02562 4.21312 10.7911C7.97438 14.4886 10.9762 14.5312 11.0058 14.5312C11.5139 14.5312 14.5312 12.2053 14.5312 11.3906C14.5197 11.2322 14.4731 11.0783 14.3949 10.94C14.3167 10.8017 14.2088 10.6825 14.0789 10.5909ZM10.9537 13.5909C10.5469 13.5562 8.025 13.2239 4.875 10.1297C1.76578 6.96422 1.44187 4.43813 1.40953 4.04672C2.02396 3.08233 2.766 2.20548 3.61547 1.44C3.63422 1.45875 3.65906 1.48688 3.69094 1.52344C4.34242 2.41276 4.90363 3.36481 5.36625 4.36547C5.21581 4.51682 5.0568 4.65939 4.89 4.7925C4.63134 4.98959 4.39382 5.21297 4.18125 5.45906C4.14528 5.50953 4.11968 5.56663 4.10592 5.62705C4.09216 5.68748 4.09052 5.75003 4.10109 5.81109C4.20029 6.24081 4.35223 6.65662 4.55344 7.04906C5.27432 8.52939 6.47051 9.72541 7.95094 10.4461C8.3433 10.6476 8.75913 10.7997 9.18891 10.8989C9.24996 10.9097 9.31257 10.9082 9.37303 10.8944C9.43349 10.8807 9.49058 10.8549 9.54094 10.8188C9.7879 10.6053 10.0121 10.3669 10.2098 10.1072C10.357 9.93188 10.5534 9.69797 10.628 9.63188C11.6312 10.094 12.5853 10.6559 13.4761 11.3091C13.515 11.3419 13.5427 11.3672 13.5609 11.3836C12.7954 12.2333 11.9184 12.9755 10.9537 13.59V13.5909Z" fill="#21273A"/>
<path d="M10.7812 7.03125H11.7188C11.7176 6.03703 11.3222 5.08385 10.6192 4.38083C9.91615 3.67781 8.96297 3.28237 7.96875 3.28125V4.21875C8.71444 4.21949 9.42938 4.51605 9.95667 5.04333C10.484 5.57062 10.7805 6.28556 10.7812 7.03125Z" fill="#21273A"/>
<path d="M13.125 7.03125H14.0625C14.0606 5.41566 13.418 3.86677 12.2756 2.72437C11.1332 1.58198 9.58434 0.939361 7.96875 0.9375V1.875C9.33578 1.87661 10.6464 2.42038 11.613 3.38701C12.5796 4.35365 13.1234 5.66422 13.125 7.03125Z" fill="#21273A"/>
</svg>
