<svg width="28" height="28" viewBox="0 0 28 28" fill="none" xmlns="http://www.w3.org/2000/svg">
<path d="M27.125 0.4375H0.875C0.758968 0.4375 0.647688 0.483594 0.565641 0.565641C0.483594 0.647688 0.4375 0.758968 0.4375 0.875V27.125C0.4375 27.241 0.483594 27.3523 0.565641 27.4344C0.647688 27.5164 0.758968 27.5625 0.875 27.5625H27.125C27.241 27.5625 27.3523 27.5164 27.4344 27.4344C27.5164 27.3523 27.5625 27.241 27.5625 27.125V0.875C27.5625 0.758968 27.5164 0.647688 27.4344 0.565641C27.3523 0.483594 27.241 0.4375 27.125 0.4375ZM14.4375 13.5625V7.875H26.6875V13.5625H14.4375ZM13.5625 20.125H1.3125V14.4375H13.5625V20.125ZM26.6875 7H14.4375V1.3125H26.6875V7ZM13.5625 1.3125V13.5625H7.875V1.3125H13.5625ZM1.3125 1.3125H7V13.5625H1.3125V1.3125ZM1.3125 21H13.5625V26.6875H1.3125V21ZM14.4375 26.6875V14.4375H20.125V26.6875H14.4375ZM26.6875 26.6875H21V14.4375H26.6875V26.6875Z" fill="#21273A"/>
</svg>
