<svg width="28" height="28" viewBox="0 0 28 28" fill="none" xmlns="http://www.w3.org/2000/svg">
<path d="M3.01159 17.3706C2.90992 17.2689 2.76883 17.2109 2.625 17.2109C2.48117 17.2109 2.34008 17.2689 2.23836 17.3706C2.13664 17.4729 2.07812 17.6134 2.07812 17.7578C2.07812 17.9016 2.13659 18.0422 2.23836 18.1445C2.34013 18.2462 2.48123 18.3047 2.625 18.3047C2.76883 18.3047 2.90992 18.2462 3.01159 18.1445C3.1133 18.0422 3.17188 17.9016 3.17188 17.7578C3.17188 17.6134 3.11336 17.4729 3.01159 17.3706Z" fill="#21273A"/>
<path d="M24.2811 0H3.71875C2.81411 0 2.07812 0.735984 2.07812 1.64062V12.2781C2.07812 12.279 2.07812 12.28 2.07812 12.2809V15.8411C2.07812 16.1431 2.32302 16.388 2.625 16.388C2.92698 16.388 3.17188 16.1431 3.17188 15.8411V13.3151L3.17789 13.3192C5.38251 14.8189 7.0379 16.9331 7.96491 19.4333C9.1712 22.6865 11.5245 25.3309 14.557 26.9061H8.2769L7.81331 26.4136C6.69025 25.2207 6.07173 23.6614 6.07173 22.023C6.07173 21.721 5.82684 21.4762 5.52486 21.4762C5.22288 21.4762 4.97798 21.721 4.97798 22.023C4.97798 23.8255 5.61755 25.5462 6.78573 26.906H3.71875C3.4172 26.906 3.17188 26.6607 3.17188 26.3592V19.8673C3.17188 19.5653 2.92698 19.3204 2.625 19.3204C2.32302 19.3204 2.07812 19.5653 2.07812 19.8673V26.3592C2.07812 27.2639 2.81411 27.9998 3.71875 27.9998H17.3335C17.3347 27.9998 17.336 28 17.3372 28C17.3386 28 17.34 27.9998 17.3414 27.9998H24.2811C25.1858 27.9998 25.9218 27.2639 25.9218 26.3592V1.64062C25.9218 0.735984 25.1858 0 24.2811 0ZM24.8281 6.73214C24.2817 6.42223 23.6703 6.25729 23.0342 6.25729C21.9949 6.25729 21.0205 6.69566 20.2904 7.49164C18.8128 9.10273 18.8128 11.7242 20.2904 13.3353C21.0205 14.1313 21.9949 14.5697 23.0342 14.5697C23.6702 14.5697 24.2817 14.4047 24.8281 14.0949V19.3669C24.4 19.9391 23.9331 20.4518 23.4374 20.8909C23.2113 21.0912 23.1904 21.4368 23.3907 21.6629C23.4988 21.7849 23.6492 21.8471 23.8003 21.8471C23.9292 21.8471 24.0586 21.8018 24.1627 21.7096C24.3905 21.5078 24.6125 21.2922 24.8281 21.0645V26.3592C24.828 26.6608 24.5827 26.9061 24.2811 26.9061H17.4314L16.6888 26.6427C13.1147 25.3749 10.3089 22.6086 8.99046 19.053C7.98399 16.3385 6.18669 14.0431 3.79307 12.4148L3.17193 11.9923V1.64062C3.17193 1.33908 3.41726 1.09375 3.7188 1.09375H4.55317C5.21199 2.49856 5.55997 4.05251 5.55997 5.60383V7.05687C5.55997 7.35891 5.80486 7.60375 6.10684 7.60375C6.40883 7.60375 6.65372 7.35891 6.65372 7.05687V5.60383C6.65372 4.06202 6.34184 2.51787 5.7487 1.09375H11.5501C9.75647 3.6126 8.76952 6.92459 8.76952 10.4384C8.76952 14.0024 9.78431 17.3593 11.6268 19.8911C13.5075 22.4752 16.0245 23.8983 18.7143 23.8983C19.0163 23.8983 19.2612 23.6535 19.2612 23.3515C19.2612 23.0494 19.0163 22.8046 18.7143 22.8046C16.3835 22.8046 14.1806 21.5413 12.5112 19.2475C8.97602 14.3901 8.97602 6.48654 12.5112 1.62914C12.6453 1.44495 12.7844 1.26574 12.9263 1.0937H24.2812C24.5827 1.0937 24.8281 1.33902 24.8281 1.64057V6.73214ZM24.828 8.08588V12.7413C24.3277 13.2162 23.6981 13.4761 23.0341 13.4761C22.305 13.4761 21.6168 13.1636 21.0964 12.5962C19.9927 11.3927 19.9927 9.43452 21.0964 8.23102C21.6168 7.66358 22.305 7.35109 23.0341 7.35109C23.6981 7.35115 24.3277 7.61102 24.828 8.08588Z" fill="#21273A"/>
<path d="M19.1753 2.79937C19.0719 2.5156 18.7579 2.36925 18.4743 2.47261C17.3655 2.87643 16.3447 3.59666 15.5224 4.55539C15.3258 4.78464 15.3522 5.12988 15.5815 5.32653C15.6847 5.41502 15.8113 5.45828 15.9373 5.45828C16.0913 5.45828 16.2445 5.39353 16.3527 5.26742C17.0529 4.45099 17.9159 3.83991 18.8485 3.50035C19.1323 3.397 19.2786 3.08314 19.1753 2.79937Z" fill="#21273A"/>
<path d="M21.5441 18.1542C21.5268 17.8527 21.2704 17.6227 20.9667 17.6395L20.9569 17.6401C20.6554 17.6574 20.425 17.9158 20.4423 18.2174C20.459 18.5082 20.7001 18.733 20.9878 18.733C20.9983 18.733 21.009 18.7326 21.0197 18.732L21.0294 18.7315C21.331 18.7142 21.5614 18.4557 21.5441 18.1542Z" fill="#21273A"/>
<path d="M19.1701 17.4324C18.1097 17.1202 17.1352 16.4725 16.3521 15.5593C14.5755 13.4879 14.0398 10.3889 14.9875 7.66416C15.0866 7.37891 14.9358 7.06719 14.6506 6.96799C14.3649 6.86879 14.0536 7.01962 13.9544 7.30492C12.8813 10.3904 13.4966 13.9099 15.5219 16.2714C16.4429 17.3453 17.5976 18.1096 18.8612 18.4817C18.9128 18.4969 18.9648 18.5042 19.0159 18.5042C19.2522 18.5042 19.4702 18.3498 19.5403 18.1116C19.6256 17.8218 19.4599 17.5178 19.1701 17.4324Z" fill="#21273A"/>
</svg>
