<svg width="23" height="23" viewBox="0 0 23 23" fill="none" xmlns="http://www.w3.org/2000/svg">
<path d="M3.23438 18.6875C2.95007 18.6875 2.67214 18.7718 2.43574 18.9298C2.19935 19.0877 2.0151 19.3122 1.9063 19.5749C1.7975 19.8376 1.76903 20.1266 1.8245 20.4054C1.87996 20.6843 2.01687 20.9404 2.21791 21.1415C2.41895 21.3425 2.67509 21.4794 2.95393 21.5349C3.23278 21.5903 3.52181 21.5619 3.78448 21.4531C4.04715 21.3443 4.27166 21.16 4.42961 20.9236C4.58757 20.6872 4.67188 20.4093 4.67188 20.125C4.67148 19.7439 4.5199 19.3785 4.2504 19.109C3.9809 18.8395 3.6155 18.6879 3.23438 18.6875ZM3.23438 20.8438C3.09222 20.8438 2.95326 20.8016 2.83506 20.7226C2.71686 20.6436 2.62474 20.5314 2.57034 20.4001C2.51594 20.2687 2.5017 20.1242 2.52944 19.9848C2.55717 19.8454 2.62562 19.7173 2.72614 19.6168C2.82666 19.5162 2.95473 19.4478 3.09415 19.4201C3.23358 19.3923 3.37809 19.4066 3.50943 19.461C3.64076 19.5154 3.75302 19.6075 3.83199 19.7257C3.91097 19.8439 3.95313 19.9828 3.95313 20.125C3.95291 20.3156 3.87711 20.4982 3.74237 20.633C3.60762 20.7677 3.42493 20.8435 3.23438 20.8438Z" fill="#21273A"/>
<path d="M4.3125 12.9375H2.15625C2.06094 12.9375 1.96953 12.9754 1.90213 13.0428C1.83474 13.1102 1.79688 13.2016 1.79688 13.2969V17.6094C1.79688 17.7047 1.83474 17.7961 1.90213 17.8635C1.96953 17.9309 2.06094 17.9688 2.15625 17.9688H4.3125C4.40781 17.9688 4.49922 17.9309 4.56662 17.8635C4.63401 17.7961 4.67188 17.7047 4.67188 17.6094V13.2969C4.67188 13.2016 4.63401 13.1102 4.56662 13.0428C4.49922 12.9754 4.40781 12.9375 4.3125 12.9375ZM3.95313 17.25H2.51562V13.6562H3.95313V17.25Z" fill="#21273A"/>
<path d="M4.3125 7.1875H2.15625C2.06094 7.1875 1.96953 7.22536 1.90213 7.29276C1.83474 7.36015 1.79688 7.45156 1.79688 7.54688V11.8594C1.79688 11.9547 1.83474 12.0461 1.90213 12.1135C1.96953 12.1809 2.06094 12.2188 2.15625 12.2188H4.3125C4.40781 12.2188 4.49922 12.1809 4.56662 12.1135C4.63401 12.0461 4.67188 11.9547 4.67188 11.8594V7.54688C4.67188 7.45156 4.63401 7.36015 4.56662 7.29276C4.49922 7.22536 4.40781 7.1875 4.3125 7.1875ZM3.95313 11.5H2.51562V7.90625H3.95313V11.5Z" fill="#21273A"/>
<path d="M4.3125 1.4375H2.15625C2.06094 1.4375 1.96953 1.47536 1.90213 1.54276C1.83474 1.61015 1.79688 1.70156 1.79688 1.79688V6.10938C1.79688 6.20469 1.83474 6.2961 1.90213 6.36349C1.96953 6.43089 2.06094 6.46875 2.15625 6.46875H4.3125C4.40781 6.46875 4.49922 6.43089 4.56662 6.36349C4.63401 6.2961 4.67188 6.20469 4.67188 6.10938V1.79688C4.67188 1.70156 4.63401 1.61015 4.56662 1.54276C4.49922 1.47536 4.40781 1.4375 4.3125 1.4375ZM3.95313 5.75H2.51562V2.15625H3.95313V5.75Z" fill="#21273A"/>
<path d="M8.54786 14.1727C8.587 14.1991 8.63095 14.2175 8.6772 14.2269C8.72346 14.2362 8.77111 14.2364 8.81743 14.2274C8.86376 14.2184 8.90785 14.2003 8.9472 14.1742C8.98654 14.1482 9.02037 14.1146 9.04674 14.0755L11.4572 10.4999C11.5105 10.4209 11.5302 10.324 11.512 10.2305C11.4938 10.137 11.4392 10.0545 11.3602 10.0012L9.57229 8.79574C9.53315 8.76936 9.4892 8.75095 9.44295 8.74156C9.39669 8.73217 9.34904 8.73198 9.30271 8.74101C9.25639 8.75004 9.21229 8.7681 9.17295 8.79417C9.1336 8.82024 9.09978 8.8538 9.07341 8.89295L6.6629 12.4687C6.60967 12.5477 6.58998 12.6447 6.60818 12.7382C6.62637 12.8317 6.68096 12.9141 6.75993 12.9674L8.54786 14.1727ZM9.4684 9.59258L10.6604 10.3963L8.65175 13.3759L7.45974 12.5722L9.4684 9.59258Z" fill="#21273A"/>
<path d="M11.9629 9.46635C12.0219 9.46644 12.0799 9.45202 12.1319 9.42435C12.184 9.39669 12.2284 9.35663 12.2612 9.30773L14.6719 5.73195C14.6983 5.69283 14.7167 5.64891 14.7261 5.60267C14.7355 5.55644 14.7357 5.5088 14.7267 5.46249C14.7177 5.41617 14.6997 5.37209 14.6736 5.33275C14.6476 5.29342 14.614 5.2596 14.5749 5.23324L12.7871 4.02808C12.7081 3.97486 12.6112 3.95521 12.5177 3.97344C12.4241 3.99167 12.3417 4.04629 12.2884 4.12529L9.87774 7.70107C9.82451 7.78008 9.80483 7.87699 9.82302 7.97051C9.84122 8.06402 9.8958 8.14649 9.97477 8.19977L11.7624 9.40494C11.8216 9.44494 11.8915 9.46633 11.9629 9.46635ZM12.6835 4.82467L13.8753 5.62834L11.8661 8.60827L10.6744 7.80457L12.6835 4.82467Z" fill="#21273A"/>
<path d="M14.8549 14.5223C14.8122 14.5023 14.7659 14.4908 14.7188 14.4887C14.6716 14.4865 14.6245 14.4936 14.5801 14.5097L10.5227 15.9714C10.4331 16.0037 10.3599 16.0703 10.3194 16.1565C10.2788 16.2427 10.2741 16.3415 10.3064 16.4312L11.0372 18.4597C11.0623 18.5292 11.1082 18.5894 11.1687 18.6319C11.2292 18.6744 11.3014 18.6972 11.3754 18.6972C11.4169 18.6973 11.4581 18.6901 11.4972 18.6759L15.5544 17.2141C15.5988 17.1981 15.6396 17.1735 15.6745 17.1418C15.7094 17.11 15.7377 17.0717 15.7578 17.029C15.7778 16.9863 15.7893 16.9401 15.7915 16.8929C15.7937 16.8458 15.7865 16.7987 15.7705 16.7543L15.0398 14.7258C15.0239 14.6814 14.9994 14.6406 14.9676 14.6057C14.9359 14.5708 14.8976 14.5424 14.8549 14.5223ZM11.5918 17.8781L11.1045 16.5256L14.4857 15.3073L14.9729 16.6599L11.5918 17.8781Z" fill="#21273A"/>
<path d="M16.7853 16.7486C16.8269 16.7486 16.8681 16.7413 16.9071 16.727L20.9644 15.2656C21.0089 15.2497 21.0497 15.2252 21.0846 15.1934C21.1196 15.1617 21.1479 15.1234 21.168 15.0807C21.1881 15.0379 21.1995 14.9917 21.2017 14.9445C21.2038 14.8974 21.1967 14.8503 21.1806 14.8059L20.4496 12.777C20.4338 12.7325 20.4093 12.6916 20.3776 12.6565C20.3459 12.6215 20.3075 12.5931 20.2648 12.573C20.222 12.5529 20.1757 12.5415 20.1285 12.5394C20.0813 12.5373 20.0342 12.5446 19.9898 12.5608L15.9328 14.0229C15.8884 14.0388 15.8476 14.0634 15.8127 14.0952C15.7778 14.1269 15.7495 14.1652 15.7294 14.2079C15.7094 14.2506 15.6979 14.2969 15.6957 14.344C15.6935 14.3911 15.7006 14.4382 15.7166 14.4826L16.4475 16.511C16.4726 16.5805 16.5184 16.6406 16.5789 16.6831C16.6393 16.7257 16.7114 16.7485 16.7853 16.7486ZM19.8955 13.3587L20.3827 14.7116L17.0016 15.9294L16.5145 14.5769L19.8955 13.3587Z" fill="#21273A"/>
<path d="M22.5325 14.3175L21.8029 12.2906C21.7232 12.0684 21.6004 11.8641 21.4415 11.6894C21.2827 11.5148 21.091 11.3731 20.8773 11.2726C20.6637 11.1722 20.4323 11.1148 20.1965 11.1039C19.9606 11.0929 19.725 11.1286 19.5029 11.2089L11.7943 13.9833C11.7073 14.0176 11.6371 14.0845 11.5986 14.1697C11.5601 14.255 11.5563 14.3519 11.5881 14.4399C11.62 14.5278 11.6848 14.5999 11.769 14.6408C11.8531 14.6817 11.9499 14.6882 12.0387 14.6589L19.7473 11.8845C20.0166 11.7878 20.3132 11.802 20.572 11.924C20.8308 12.046 21.0305 12.2658 21.1273 12.535L21.8568 14.5619C21.953 14.8307 21.939 15.1267 21.8178 15.3852C21.6966 15.6437 21.4781 15.8438 21.21 15.9419L7.02903 21.0522L5.77315 21.5037L6.45511 20.492L10.1448 19.1619C10.2344 19.1295 10.3075 19.063 10.3481 18.9768C10.3886 18.8905 10.3933 18.7918 10.361 18.7021L9.63148 16.6753C9.5991 16.5862 9.53293 16.5135 9.44733 16.4729C9.36172 16.4323 9.26357 16.4271 9.17414 16.4584L15.862 6.53649C16.1276 6.14072 16.2256 5.65589 16.1347 5.18802C16.0438 4.72015 15.7713 4.30731 15.3768 4.03981L13.5912 2.83604C13.3957 2.70382 13.1761 2.61147 12.9448 2.56429C12.7136 2.51711 12.4753 2.51602 12.2436 2.56109C12.0119 2.60616 11.7914 2.6965 11.5948 2.82693C11.3981 2.95737 11.229 3.12533 11.0974 3.3212L6.88909 9.56354C6.86139 9.60263 6.84178 9.64686 6.83142 9.69364C6.82106 9.74042 6.82016 9.78879 6.82877 9.83592C6.83738 9.88305 6.85533 9.92798 6.88155 9.96807C6.90778 10.0082 6.94176 10.0426 6.98149 10.0694C7.02123 10.0961 7.06591 10.1147 7.11292 10.124C7.15992 10.1332 7.20831 10.133 7.25522 10.1232C7.30213 10.1135 7.34663 10.0945 7.38609 10.0673C7.42555 10.0402 7.45918 10.0054 7.485 9.96504L11.6937 3.72219C11.7727 3.6048 11.8741 3.50415 11.9921 3.426C12.11 3.34785 12.2423 3.29373 12.3812 3.26673C12.5201 3.23974 12.6629 3.24041 12.8016 3.2687C12.9402 3.29699 13.0719 3.35235 13.1891 3.4316L14.9748 4.63551C15.2116 4.79627 15.3752 5.04424 15.4298 5.32523C15.4844 5.60623 15.4255 5.8974 15.2661 6.13514L7.96818 16.9616L7.96362 16.9664C6.50998 19.1252 6.91568 18.5229 6.10924 19.7192V18.4306L8.24336 15.2662C8.26977 15.2271 8.2882 15.183 8.2976 15.1367C8.307 15.0904 8.30719 15.0427 8.29814 14.9963C8.2891 14.9499 8.27101 14.9058 8.24489 14.8664C8.21878 14.827 8.18517 14.7931 8.14596 14.7667L6.35628 13.5628C6.28345 13.515 6.19558 13.4956 6.10939 13.5084V1.79688C6.10883 1.32049 5.91933 0.86377 5.58247 0.526912C5.24562 0.190054 4.7889 0.000561146 4.31251 0L2.15626 0C1.67987 0.000561146 1.22316 0.190054 0.886299 0.526912C0.549441 0.86377 0.359948 1.32049 0.359387 1.79688V20.125C0.358072 20.5866 0.468246 21.0417 0.680539 21.4516C0.892833 21.8615 1.20097 22.2141 1.57875 22.4794C1.95653 22.7446 2.39278 22.9148 2.8504 22.9753C3.30803 23.0358 3.77351 22.9849 4.20725 22.8269L4.20793 22.8311L21.4543 16.6175C21.9014 16.4543 22.2658 16.1208 22.4678 15.6899C22.6698 15.2589 22.693 14.7655 22.5325 14.3175ZM9.07649 17.2567L9.56291 18.6079L7.13573 19.4829C7.52633 18.9028 7.2531 19.3083 8.49553 17.465L9.07649 17.2567ZM6.25328 14.3599L7.44641 15.1622L6.10953 17.1449V14.5738L6.25328 14.3599ZM1.07814 20.125V1.79688C1.07845 1.51103 1.19214 1.23699 1.39426 1.03487C1.59638 0.832753 1.87042 0.719064 2.15626 0.71875H4.31251C4.59835 0.719064 4.87239 0.832753 5.07451 1.03487C5.27663 1.23699 5.39032 1.51103 5.39064 1.79688C5.39064 16.5011 5.39028 7.57074 5.39028 20.125C5.39396 20.4105 5.34092 20.6939 5.23422 20.9587C5.12752 21.2235 4.96929 21.4645 4.76872 21.6677C4.56814 21.8708 4.32921 22.0322 4.06579 22.1423C3.80237 22.2524 3.51971 22.3091 3.23421 22.3091C2.9487 22.3091 2.66604 22.2524 2.40262 22.1423C2.1392 22.0322 1.90027 21.8708 1.6997 21.6677C1.49912 21.4645 1.34089 21.2235 1.2342 20.9587C1.1275 20.6939 1.07445 20.4105 1.07814 20.125Z" fill="#21273A"/>
</svg>
