<svg width="23" height="23" viewBox="0 0 23 23" fill="none" xmlns="http://www.w3.org/2000/svg">
<g clip-path="url(#clip0)">
<path d="M9.62283 19.3291C9.523 18.8292 9.31711 18.3564 9.01904 17.9428C8.72097 17.5292 8.33765 17.1843 7.89495 16.9314C7.46938 16.6896 7.01402 16.5045 6.54047 16.3808C6.96259 16.0639 7.27432 15.6222 7.43151 15.1183C7.58871 14.6143 7.58339 14.0737 7.41633 13.573C7.24927 13.0723 6.92893 12.6368 6.50065 12.3282C6.07238 12.0196 5.55789 11.8535 5.03001 11.8535C4.50214 11.8535 3.98765 12.0196 3.55938 12.3282C3.1311 12.6368 2.81076 13.0723 2.6437 13.573C2.47664 14.0737 2.47132 14.6143 2.62852 15.1183C2.78571 15.6222 3.09743 16.0639 3.51956 16.3808C3.04638 16.5046 2.59139 16.6897 2.16616 16.9314C1.72351 17.1843 1.34023 17.5291 1.04217 17.9427C0.744102 18.3562 0.538177 18.8289 0.438281 19.3288L0.00703093 21.4897C-0.00966 21.5728 0.00358605 21.6592 0.0444267 21.7335C0.0852674 21.8078 0.151072 21.8653 0.230203 21.8958C3.32013 23.0861 6.74205 23.0861 9.83198 21.8958C9.91111 21.8653 9.97692 21.8078 10.0178 21.7335C10.0586 21.6592 10.0718 21.5728 10.0552 21.4897L9.62283 19.3291ZM3.23422 14.3741C3.23422 14.0187 3.3396 13.6713 3.53705 13.3758C3.73449 13.0803 4.01512 12.85 4.34346 12.714C4.67179 12.578 5.03309 12.5424 5.38165 12.6117C5.73021 12.6811 6.05038 12.8522 6.30168 13.1035C6.55297 13.3548 6.72411 13.675 6.79344 14.0235C6.86277 14.3721 6.82719 14.7334 6.69119 15.0617C6.55519 15.3901 6.32488 15.6707 6.02938 15.8681C5.73389 16.0656 5.38648 16.171 5.03109 16.171C4.55471 16.1704 4.098 15.9809 3.76114 15.644C3.42428 15.3072 3.23479 14.8505 3.23422 14.3741ZM0.771422 21.3312L1.14409 19.4697C1.22381 19.0705 1.38821 18.6931 1.62621 18.3629C1.86421 18.0327 2.17027 17.7575 2.52373 17.5556C3.29001 17.1273 4.15324 16.9024 5.03109 16.9024C5.90895 16.9024 6.77217 17.1273 7.53845 17.5556C7.89197 17.7575 8.19806 18.0328 8.43607 18.3631C8.67407 18.6933 8.83845 19.0708 8.91809 19.47L9.29076 21.3312C6.53666 22.3177 3.52553 22.3177 0.771422 21.3312Z" fill="#21273A"/>
<path d="M22.9927 21.4897L22.5614 19.3277C22.4616 18.8277 22.2557 18.355 21.9576 17.9414C21.6595 17.5277 21.2762 17.1828 20.8335 16.93C20.4075 16.6886 19.9518 16.504 19.478 16.3808C19.9001 16.0639 20.2118 15.6222 20.369 15.1183C20.5262 14.6143 20.5209 14.0737 20.3538 13.573C20.1868 13.0723 19.8664 12.6368 19.4382 12.3282C19.0099 12.0196 18.4954 11.8535 17.9675 11.8535C17.4396 11.8535 16.9251 12.0196 16.4969 12.3282C16.0686 12.6368 15.7483 13.0723 15.5812 13.573C15.4141 14.0737 15.4088 14.6143 15.566 15.1183C15.7232 15.6222 16.0349 16.0639 16.4571 16.3808C15.9839 16.5046 15.5289 16.6897 15.1037 16.9314C14.661 17.1843 14.2777 17.5291 13.9797 17.9427C13.6816 18.3562 13.4757 18.8289 13.3758 19.3288L12.9445 21.4897C12.9278 21.5728 12.9411 21.6592 12.9819 21.7335C13.0228 21.8078 13.0886 21.8653 13.1677 21.8958C16.2576 23.0861 19.6796 23.0861 22.7695 21.8958C22.8486 21.8653 22.9144 21.8078 22.9553 21.7335C22.9961 21.6592 23.0093 21.5728 22.9927 21.4897ZM16.1717 14.3741C16.1717 14.0187 16.2771 13.6713 16.4745 13.3758C16.672 13.0803 16.9526 12.85 17.281 12.714C17.6093 12.578 17.9706 12.5424 18.3191 12.6117C18.6677 12.6811 18.9879 12.8522 19.2392 13.1035C19.4905 13.3548 19.6616 13.675 19.7309 14.0235C19.8003 14.3721 19.7647 14.7334 19.6287 15.0617C19.4927 15.3901 19.2624 15.6707 18.9669 15.8681C18.6714 16.0656 18.324 16.171 17.9686 16.171C17.4922 16.1704 17.0355 15.9809 16.6986 15.644C16.3618 15.3072 16.1723 14.8505 16.1717 14.3741ZM13.7089 21.3312L14.0816 19.4697C14.1613 19.0705 14.3257 18.6931 14.5637 18.3629C14.8017 18.0327 15.1078 17.7575 15.4612 17.5556C16.2275 17.1273 17.0907 16.9024 17.9686 16.9024C18.8464 16.9024 19.7097 17.1273 20.476 17.5556C20.8295 17.7575 21.1356 18.0328 21.3736 18.3631C21.6116 18.6933 21.7759 19.0708 21.8556 19.47L22.2283 21.3312C19.4742 22.3177 16.463 22.3177 13.7089 21.3312Z" fill="#21273A"/>
<path d="M13.9933 8.60488L15.5095 10.9768C15.548 11.037 15.6034 11.0844 15.6689 11.113C15.7344 11.1415 15.8069 11.1499 15.8772 11.137C15.9474 11.1242 16.0123 11.0907 16.0634 11.0408C16.1146 10.991 16.1497 10.927 16.1643 10.8571L16.6815 8.40219C19.3965 7.81425 21.2031 6.19095 21.2031 4.3125C21.2031 1.93452 18.2203 0 14.5547 0C10.8891 0 7.90625 1.93452 7.90625 4.3125C7.90625 6.55788 10.5656 8.42016 13.9933 8.60488ZM14.5547 0.71875C17.825 0.71875 20.4844 2.33091 20.4844 4.3125C20.4844 5.86428 18.7684 7.27483 16.3117 7.74238C16.242 7.7556 16.1778 7.78913 16.1272 7.83875C16.0765 7.88838 16.0417 7.95187 16.027 8.02125L15.6418 9.84688L14.4986 8.05934C14.4672 8.01033 14.4244 7.96968 14.3738 7.94089C14.3232 7.91209 14.2664 7.89601 14.2082 7.89403C11.0774 7.7837 8.625 6.21 8.625 4.3125C8.625 2.33091 11.2844 0.71875 14.5547 0.71875Z" fill="#21273A"/>
<path d="M13.6455 9.33428C13.634 9.28849 13.6136 9.24542 13.5854 9.20753C13.5572 9.16964 13.5219 9.13767 13.4814 9.11344C13.4409 9.08921 13.396 9.0732 13.3493 9.06633C13.3026 9.05945 13.255 9.06184 13.2092 9.07337C12.0442 9.36092 10.8347 9.42192 9.6467 9.25306C9.56212 9.24074 9.47593 9.25951 9.40413 9.30589L7.72656 10.3718L7.99106 9.18082C8.00966 9.09717 7.99776 9.00962 7.9575 8.93397C7.91723 8.85833 7.85126 8.79955 7.77148 8.76826C6.05583 8.09551 5.03125 6.96707 5.03125 5.75023C5.03125 4.55531 6.02241 3.43837 7.68236 2.76274C7.72609 2.74495 7.76588 2.71872 7.79947 2.68555C7.83305 2.65238 7.85978 2.61292 7.87812 2.56942C7.89645 2.52592 7.90604 2.47924 7.90634 2.43203C7.90663 2.38483 7.89763 2.33802 7.87984 2.2943C7.86204 2.25057 7.83581 2.21078 7.80264 2.17719C7.76947 2.14361 7.73001 2.11688 7.68651 2.09854C7.64301 2.0802 7.59633 2.07061 7.54912 2.07032C7.50192 2.07002 7.45512 2.07903 7.41139 2.09682C5.47112 2.88673 4.3125 4.25271 4.3125 5.75023C4.3125 7.20031 5.39458 8.51742 7.22344 9.31918L6.83567 11.0629C6.82015 11.1323 6.8256 11.2048 6.85132 11.2712C6.87704 11.3375 6.92188 11.3947 6.98015 11.4356C7.03842 11.4764 7.10751 11.499 7.17865 11.5005C7.24979 11.5021 7.31979 11.4825 7.37977 11.4442L9.67977 9.98079C10.9171 10.141 12.1734 10.0696 13.3846 9.7702C13.4769 9.74696 13.5563 9.68798 13.6052 9.60624C13.6542 9.5245 13.6686 9.42668 13.6455 9.33428Z" fill="#21273A"/>
<path d="M12.2188 2.51562H14.0156V3.23438H12.2188V2.51562Z" fill="#21273A"/>
<path d="M14.7344 2.51562H15.4531V3.23438H14.7344V2.51562Z" fill="#21273A"/>
<path d="M16.1719 2.51562H17.9688V3.23438H16.1719V2.51562Z" fill="#21273A"/>
<path d="M11.1406 3.95312H15.4531V4.67188H11.1406V3.95312Z" fill="#21273A"/>
<path d="M16.1719 3.95312H17.9688V4.67188H16.1719V3.95312Z" fill="#21273A"/>
<path d="M11.1406 5.39062H12.5781V6.10938H11.1406V5.39062Z" fill="#21273A"/>
<path d="M13.2969 5.39062H17.25V6.10938H13.2969V5.39062Z" fill="#21273A"/>
</g>
<defs>
<clipPath id="clip0">
<rect width="23" height="23" fill="white"/>
</clipPath>
</defs>
</svg>
