<svg width="23" height="23" viewBox="0 0 23 23" fill="none" xmlns="http://www.w3.org/2000/svg">
<path d="M20.159 7.51795H18.5011V4.25531C18.5011 3.69662 18.2789 3.17589 17.9153 2.79517L16.844 1.67419C15.9349 0.737482 15.8202 0.472848 15.2787 0.21001C15.0271 0.0844531 14.6956 0 14.3614 0H6.53639C5.37071 0 4.42272 0.948435 4.42272 2.11366V13.5121H3.97696C3.30448 13.5121 2.75756 14.059 2.75756 14.7315C2.75756 15.0661 2.89304 15.3692 3.11163 15.5896C2.89304 15.8099 2.75756 16.113 2.75756 16.4477C2.75756 16.5732 2.77517 16.6477 2.7815 16.6888C0.135333 16.958 -0.918804 20.2333 1.01782 22.0109C1.60271 22.5479 2.37905 22.8523 3.22088 22.818C3.49908 22.818 9.22671 22.8157 9.23394 22.8157C9.90598 22.8157 10.4534 22.2688 10.4534 21.5963C10.4534 21.2617 10.3179 20.9586 10.0993 20.7382C10.3048 20.5309 10.4366 20.2514 10.4516 19.9406H10.9091V20.185C10.9091 21.7372 12.1718 23 13.7241 23H20.159C21.7113 23 22.9741 21.7372 22.9741 20.185V10.333C22.9741 8.7807 21.7113 7.51795 20.159 7.51795ZM17.2826 3.17953C17.2826 3.17953 17.283 3.17953 17.2835 3.18042C17.2839 3.18042 17.2839 3.18042 17.2839 3.18042C17.2844 3.18132 17.2853 3.18222 17.2857 3.18267L17.2862 3.18312C17.2871 3.18447 17.288 3.18537 17.2889 3.18581C17.2893 3.18626 17.2898 3.18671 17.2902 3.18761C17.2907 3.18806 17.2911 3.18806 17.2911 3.18851C17.2916 3.18896 17.292 3.18896 17.2925 3.18986C17.2934 3.19031 17.2938 3.19121 17.2943 3.19165H15.4837V1.27767C16.9028 2.77756 17.2225 3.11583 17.2826 3.17953ZM3.97696 14.2347H9.23399C9.5077 14.2347 9.73078 14.4578 9.73078 14.7315C9.73078 15.0056 9.50765 15.2282 9.23399 15.2282H3.97696C3.70325 15.2282 3.48017 15.0056 3.48017 14.7315C3.48013 14.4577 3.70325 14.2347 3.97696 14.2347ZM3.97696 15.9509H9.23399C9.5077 15.9509 9.73078 16.174 9.73078 16.4477C9.73078 16.7218 9.50765 16.9444 9.23399 16.9444H5.60282C5.45512 16.8767 5.30202 16.8216 5.14529 16.7791C4.91134 16.7154 4.66925 16.6793 4.42268 16.673C4.35179 16.6712 4.28086 16.6716 4.20997 16.6748H3.53569C3.50003 16.6066 3.48013 16.5294 3.48013 16.4476C3.48013 16.174 3.70325 15.9509 3.97696 15.9509ZM9.73078 18.1639C9.73078 18.438 9.50765 18.6607 9.23399 18.6607H7.21201C7.07473 18.2953 6.86787 17.9588 6.59869 17.6671H9.23399C9.50765 17.6671 9.73078 17.8902 9.73078 18.1639ZM2.21917 17.5154C1.99923 17.724 1.80364 17.9719 1.6501 18.2452H1.22918C1.50424 17.9042 1.84614 17.6617 2.21917 17.5154ZM0.844829 18.9226H1.371C1.35927 18.9732 1.29962 19.1679 1.27253 19.4642H0.716577C0.738275 19.2781 0.781175 19.0965 0.844829 18.9226ZM0.903093 20.7134C0.823177 20.5318 0.765812 20.3399 0.733288 20.1416H1.2852C1.38412 20.7026 1.38951 20.6059 1.41435 20.7134H0.903093ZM1.35384 21.3908C1.57557 21.3904 1.70432 21.3917 1.73455 21.3899C1.86959 21.6031 2.03216 21.8005 2.22052 21.9779C1.89308 21.8492 1.60181 21.6528 1.35384 21.3908ZM4.43669 22.141C3.11478 22.1979 1.99559 21.1741 1.93958 19.849C1.84879 17.7394 4.36846 16.5245 5.95505 17.981C7.51914 19.4167 6.56707 22.0534 4.43669 22.141ZM9.23399 22.0931H6.3178C6.6407 21.8199 6.90582 21.4816 7.09414 21.0995H9.23399C9.5077 21.0995 9.73078 21.3227 9.73078 21.5963C9.73078 21.8704 9.50765 22.0931 9.23399 22.0931ZM9.72674 19.9406C9.69691 20.1863 9.48735 20.3769 9.23399 20.3769H7.34345C7.40895 20.0635 7.42746 19.7256 7.38725 19.3833H9.23399C9.53838 19.3833 9.76555 19.6557 9.72674 19.9406ZM10.9091 19.218H10.2569C10.2113 19.1471 10.1584 19.0816 10.0993 19.022C10.5712 18.546 10.5717 17.7818 10.0993 17.3058C10.3179 17.0854 10.4534 16.7824 10.4534 16.4477C10.4534 16.113 10.3179 15.81 10.0993 15.5896C10.8589 14.8236 10.3161 13.5121 9.23394 13.5121H5.14529V2.11366C5.14529 1.3468 5.76944 0.722613 6.53634 0.722613H14.7611V3.55301C14.7611 3.75264 14.9228 3.91431 15.1224 3.91431H17.7355C17.811 4.20698 17.7644 4.11031 17.7784 7.5179H13.7241C12.1718 7.5179 10.9091 8.78065 10.9091 10.3329V19.218ZM22.2966 20.185C22.2966 21.3637 21.3378 22.3226 20.159 22.3226H13.7242C12.5459 22.3226 11.5865 21.3638 11.5865 20.185V10.333C11.5865 9.15422 12.5458 8.19537 13.7242 8.19537H20.1591C21.3378 8.19537 22.2967 9.15418 22.2967 10.333V20.185H22.2966Z" fill="#21273A"/>
<path d="M20.1375 8.96289H13.7505C13.1224 8.96289 12.6133 9.47204 12.6133 10.1001V11.3398C12.6133 11.9679 13.1224 12.477 13.7505 12.477H14.9794C15.1664 12.477 15.3181 12.3254 15.3181 12.1383C15.3181 11.9513 15.1664 11.7996 14.9794 11.7996H13.7505C13.4976 11.7996 13.2907 11.5927 13.2907 11.3398V10.1001C13.2907 9.84722 13.4976 9.64031 13.7505 9.64031H20.1375C20.3913 9.64031 20.5973 9.84673 20.5973 10.1001V11.3398C20.5973 11.5932 20.3913 11.7996 20.1375 11.7996H16.44C16.2529 11.7996 16.1013 11.9513 16.1013 12.1383C16.1013 12.3254 16.2529 12.477 16.44 12.477H20.1375C20.7649 12.477 21.2747 11.9667 21.2747 11.3398V10.1001C21.2747 9.47325 20.7648 8.96289 20.1375 8.96289Z" fill="#21273A"/>
<path d="M14.4799 16.1016H13.3223C12.9316 16.1016 12.6133 16.4195 12.6133 16.8106V17.9677C12.6133 18.3588 12.9317 18.6768 13.3223 18.6768H14.4799C14.871 18.6768 15.1889 18.3588 15.1889 17.9677V16.8106C15.1889 16.4195 14.871 16.1016 14.4799 16.1016ZM14.5115 17.9677C14.5115 17.9853 14.497 17.9993 14.4798 17.9993H13.3223C13.3051 17.9993 13.2907 17.9853 13.2907 17.9677V16.8106C13.2907 16.793 13.3051 16.779 13.3223 16.779H14.4798C14.497 16.779 14.5115 16.793 14.5115 16.8106V17.9677Z" fill="#21273A"/>
<path d="M20.6005 13.0762H19.4434C19.0523 13.0762 18.7344 13.3941 18.7344 13.7852V14.9423C18.7344 15.3335 19.0523 15.6514 19.4434 15.6514H20.6005C20.9917 15.6514 21.3096 15.3334 21.3096 14.9423V13.7852C21.3096 13.3941 20.9916 13.0762 20.6005 13.0762ZM20.6321 14.9423C20.6321 14.9599 20.6181 14.9739 20.6005 14.9739H19.4434C19.4263 14.9739 19.4118 14.9599 19.4118 14.9423C19.4258 13.7974 19.3824 13.7536 19.4434 13.7536H20.6005C20.6181 13.7536 20.6321 13.7676 20.6321 13.7852V14.9423Z" fill="#21273A"/>
<path d="M14.4799 13.0762H13.3223C12.9316 13.0762 12.6133 13.3941 12.6133 13.7852V14.9423C12.6133 15.3335 12.9317 15.6514 13.3223 15.6514H14.4799C14.871 15.6514 15.1889 15.3334 15.1889 14.9423V13.7852C15.1889 13.3941 14.871 13.0762 14.4799 13.0762ZM14.5115 14.9423C14.5115 14.9599 14.497 14.9739 14.4798 14.9739H13.3223C13.3051 14.9739 13.2907 14.9599 13.2907 14.9423V13.7852C13.2907 13.7676 13.3051 13.7536 13.3223 13.7536H14.4798C14.497 13.7536 14.5115 13.7676 14.5115 13.7852V14.9423Z" fill="#21273A"/>
<path d="M15.0078 19.2174C14.8778 19.0711 14.6881 18.9785 14.4772 18.9785H13.3196C13.1087 18.9785 12.919 19.0711 12.7894 19.2174C12.5433 19.4934 12.6268 19.7942 12.6106 19.94V20.8447C12.6106 21.2358 12.929 21.5537 13.3196 21.5537H14.4772C14.8683 21.5537 15.1862 21.2357 15.1862 20.8447V19.94C15.17 19.7974 15.2526 19.4934 15.0078 19.2174ZM14.4772 20.8763C13.3336 20.8623 13.288 20.9057 13.288 20.8447C13.288 19.6194 13.2744 19.6559 13.3196 19.6559H14.4772C14.5327 19.6559 14.4984 19.7332 14.5088 19.94C14.5088 19.9401 14.5381 20.8763 14.4772 20.8763Z" fill="#21273A"/>
<path d="M20.4208 16.1016H19.6232C19.1332 16.1016 18.7344 16.5004 18.7344 16.9904V20.584C18.7344 21.1192 19.1698 21.5546 19.7045 21.5546H20.3395C20.8747 21.5546 21.3097 21.1192 21.3097 20.584V16.9904C21.3096 16.5004 20.9113 16.1016 20.4208 16.1016ZM20.3395 20.8772H19.7045C19.5433 20.8772 19.4118 20.7457 19.4118 20.584V16.9904C19.4118 16.8739 19.5067 16.779 19.6232 16.779H20.4208C20.5373 16.779 20.6321 16.8739 20.6321 16.9904V20.584C20.6322 20.7457 20.5012 20.8772 20.3395 20.8772Z" fill="#21273A"/>
<path d="M8.7434 9.83988C8.33039 9.68814 8.03202 9.57853 8.03202 9.19588C8.03202 8.84715 8.26363 8.67034 8.72035 8.67034C9.2052 8.67034 9.33574 8.88377 9.50653 8.88377C9.69242 8.88377 9.79524 8.68651 9.79524 8.55009C9.79524 8.26789 9.33493 8.12796 8.92345 8.09103V7.83659C8.92345 7.6596 8.77947 7.51562 8.60248 7.51562C8.42549 7.51562 8.28151 7.6596 8.28151 7.83659V8.13159C7.71887 8.26519 7.40971 8.65381 7.40971 9.22962C7.40971 10.018 7.9901 10.2361 8.45657 10.4114C8.91325 10.583 9.27402 10.7186 9.27402 11.24C9.27402 11.6707 9.0349 11.889 8.56317 11.889C7.87281 11.889 7.86634 11.4229 7.60301 11.4229C7.43995 11.4229 7.30859 11.6055 7.30859 11.7566C7.30859 12.0235 7.70611 12.3744 8.28151 12.4654V12.7113C8.28151 12.8883 8.42549 13.0323 8.60248 13.0323C8.77947 13.0323 8.92345 12.8883 8.92345 12.7113V12.4588C9.54238 12.3423 9.89636 11.8879 9.89636 11.2063C9.89632 10.2635 9.25708 10.0286 8.7434 9.83988Z" fill="#21273A"/>
<path d="M18.0115 19.1773C17.8841 19.0544 17.7107 18.9785 17.5201 18.9785H16.3625C16.1516 18.9785 15.9619 19.0711 15.8318 19.2174C15.5866 19.4938 15.6697 19.7942 15.6535 19.94V20.8447C15.6535 21.2358 15.9714 21.5537 16.3625 21.5537H17.5201C17.9107 21.5537 18.2286 21.2357 18.2286 20.8447V19.6871C18.2286 19.4871 18.1451 19.306 18.0115 19.1773ZM17.5201 20.8763C16.3765 20.8623 16.3309 20.9057 16.3309 20.8447V19.6871C16.3309 19.67 16.3453 19.6559 16.3625 19.6559H17.5201C17.5372 19.6559 17.5512 19.67 17.5512 19.6871C17.5377 20.8334 17.5801 20.8763 17.5201 20.8763Z" fill="#21273A"/>
<path d="M17.5228 13.0762H16.3653C15.9742 13.0762 15.6562 13.3941 15.6562 13.7852V14.9423C15.6562 15.3335 15.9742 15.6514 16.3653 15.6514H17.5228C17.6141 15.6514 17.7008 15.6342 17.7807 15.6026C18.0445 15.4992 18.2315 15.2422 18.2315 14.9423V13.7852C18.2314 13.3927 17.9117 13.0762 17.5228 13.0762ZM17.5228 14.9739H16.3653C16.3481 14.9739 16.3337 14.9599 16.3337 14.9423V13.7852C16.3337 13.7243 16.3757 13.7672 17.5228 13.7536C17.54 13.7536 17.554 13.7676 17.554 13.7852V14.9423C17.554 14.9599 17.54 14.9739 17.5228 14.9739Z" fill="#21273A"/>
<path d="M17.7807 16.1503C17.7008 16.1187 17.6141 16.1016 17.5228 16.1016H16.3653C15.9742 16.1016 15.6562 16.4195 15.6562 16.8106V17.9677C15.6562 18.3588 15.9742 18.6768 16.3653 18.6768H17.5228C17.9135 18.6768 18.2314 18.3588 18.2314 17.9677V16.8106C18.2314 16.5108 18.0445 16.2538 17.7807 16.1503ZM17.554 17.9677C17.554 17.9853 17.54 17.9993 17.5228 17.9993H16.3653C16.3481 17.9993 16.3337 17.9853 16.3337 17.9677V16.8106C16.3337 16.793 16.3481 16.779 16.3653 16.779H17.5228C17.54 16.779 17.554 16.793 17.554 16.8106V17.9677Z" fill="#21273A"/>
<path d="M15.5646 4.62891H14.7137C14.5267 4.62891 14.375 4.78065 14.375 4.96762C14.375 5.15503 14.5267 5.30633 14.7137 5.30633H15.5646C15.7515 5.30633 15.9033 5.15503 15.9033 4.96762C15.9033 4.78065 15.7515 4.62891 15.5646 4.62891Z" fill="#21273A"/>
<path d="M13.3611 4.62891H7.35434C7.16737 4.62891 7.01562 4.78065 7.01562 4.96762C7.01562 5.15503 7.16737 5.30633 7.35434 5.30633H13.3611C13.5481 5.30633 13.6998 5.15503 13.6998 4.96762C13.6998 4.78065 13.5481 4.62891 13.3611 4.62891Z" fill="#21273A"/>
<path d="M8.43102 6.31055H7.35434C7.16737 6.31055 7.01562 6.46229 7.01562 6.64926C7.01562 6.83622 7.16737 6.98797 7.35434 6.98797H8.43102C8.61799 6.98797 8.76974 6.83622 8.76974 6.64926C8.76974 6.46229 8.61799 6.31055 8.43102 6.31055Z" fill="#21273A"/>
<path d="M15.565 6.31055H9.78402C9.59706 6.31055 9.44531 6.46229 9.44531 6.64926C9.44531 6.83622 9.59706 6.98797 9.78402 6.98797H15.565C15.7519 6.98797 15.9037 6.83622 15.9037 6.64926C15.9037 6.46229 15.7519 6.31055 15.565 6.31055Z" fill="#21273A"/>
<path d="M4.14171 19.099C4.14171 19.0139 4.17307 18.9894 4.2024 18.9732C4.29341 18.9228 4.50221 18.908 4.69349 19.0063C4.74429 19.0324 4.80188 19.0621 4.87681 19.0621C5.2109 19.0621 5.47513 18.4413 4.67709 18.304V18.2827C4.67709 18.0934 4.5231 17.9395 4.33384 17.9395C4.14459 17.9395 3.99059 18.0934 3.99059 18.2827V18.3478C3.6562 18.4691 3.46703 18.7449 3.46703 19.1192C3.46703 19.6969 3.88673 19.8547 4.19328 19.9698C4.48559 20.0796 4.58666 20.1277 4.58666 20.3265C4.58666 20.4508 4.5532 20.5659 4.31021 20.5659C3.95614 20.5659 3.99855 20.286 3.73355 20.286C3.54627 20.286 3.40625 20.4712 3.40625 20.6368C3.40625 20.8715 3.65027 21.0942 3.99059 21.1845V21.2102C3.99059 21.3995 4.14459 21.5535 4.33384 21.5535C4.5231 21.5535 4.67709 21.3995 4.67709 21.2102V21.1755C5.04536 21.0572 5.26139 20.7401 5.26139 20.3063C5.26139 19.277 4.14171 19.4316 4.14171 19.099Z" fill="#21273A"/>
</svg>
