<svg width="23" height="23" viewBox="0 0 23 23" fill="none" xmlns="http://www.w3.org/2000/svg">
<path d="M9.10285 16.291H8.14453V18.2077H9.10285V16.291Z" fill="#21273A"/>
<path d="M13.8958 16.291H12.9375V18.2077H13.8958V16.291Z" fill="#21273A"/>
<path d="M4.31379 16.291H3.35547V18.2077H4.31379V16.291Z" fill="#21273A"/>
<path d="M17.7292 14.8548V13.8965H0.958318C0.429049 13.8964 0 14.3255 0 14.8548V17.7298C0 18.2591 0.429049 18.6881 0.958318 18.6881H17.7291V17.7298H0.958318V14.8548H17.7292Z" fill="#21273A"/>
<path d="M11.5013 15.8125H10.543V18.2083H11.5013V15.8125Z" fill="#21273A"/>
<path d="M16.2903 15.8125H15.332V18.2083H16.2903V15.8125Z" fill="#21273A"/>
<path d="M6.70832 15.8125H5.75V18.2083H6.70832V15.8125Z" fill="#21273A"/>
<path d="M11.0222 7.1875H5.27215C5.00752 7.1875 4.79297 7.40205 4.79297 7.66668V12.4584C4.79297 12.723 5.00752 12.9375 5.27215 12.9375H11.0222C11.2868 12.9375 11.5013 12.723 11.5013 12.4584V7.66668C11.5013 7.40205 11.2868 7.1875 11.0222 7.1875ZM10.543 11.9792H5.75133V8.14586H10.543V11.9792Z" fill="#21273A"/>
<path d="M17.7279 8.14582V7.1875H12.9362C12.6716 7.1875 12.457 7.40205 12.457 7.66668V12.4584C12.457 12.723 12.6716 12.9375 12.9362 12.9375H17.7279V11.9792H13.4154V8.14591H17.7279V8.14582Z" fill="#21273A"/>
<path d="M9.58465 2.875H4.79297V3.83332H9.58465V2.875Z" fill="#21273A"/>
<path d="M5.75129 4.79102H4.79297V5.74933H5.75129V4.79102Z" fill="#21273A"/>
<path d="M7.66535 4.79102H6.70703V5.74933H7.66535V4.79102Z" fill="#21273A"/>
<path d="M16.1525 0.140381C16.0627 0.0505371 15.9408 0 15.8138 0H3.35547C2.56156 0 1.91797 0.643596 1.91797 1.4375V12.9375H2.87629V1.4375C2.87629 1.17287 3.09083 0.958318 3.35547 0.958318H15.6154L16.913 2.25638L17.59 1.57788L16.1525 0.140381Z" fill="#21273A"/>
<path d="M3.35547 22.0423C3.09083 22.0423 2.87629 21.8278 2.87629 21.5632V19.6465H1.91797V21.5632C1.91797 22.3571 2.56156 23.0007 3.35547 23.0007H17.2513V22.0423H3.35547Z" fill="#21273A"/>
<path d="M16.7695 3.8327C16.5049 3.8327 16.2903 3.61815 16.2903 3.35352V0.478516H15.332V3.35352C15.332 4.14742 15.9756 4.79102 16.7695 4.79102H17.2487V3.8327H16.7695Z" fill="#21273A"/>
<path d="M21.0846 18.6875H19.168V19.6458H21.0846V18.6875Z" fill="#21273A"/>
<path d="M21.482 2.60986L20.5237 1.17236C20.4952 1.13422 20.4613 1.1004 20.4232 1.07187C20.203 0.907186 19.891 0.952153 19.7263 1.17236L18.768 2.60986C18.7157 2.6887 18.6876 2.78119 18.6875 2.8758V22.5216C18.6875 22.7863 18.902 23.0008 19.1667 23.0008H21.0834C21.348 23.0008 21.5625 22.7863 21.5625 22.5216V2.8758C21.5624 2.78119 21.5343 2.6887 21.482 2.60986ZM20.6042 22.0425H19.6459V3.01955L20.125 2.3008L20.6042 3.01955V22.0425Z" fill="#21273A"/>
<path d="M22.0403 11.9786V20.1244H21.082V21.0827H22.5195C22.7842 21.0827 22.9987 20.8681 22.9987 20.6035V11.9785H22.0403V11.9786Z" fill="#21273A"/>
</svg>
