<svg width="32" height="32" viewBox="0 0 32 32" fill="none" xmlns="http://www.w3.org/2000/svg">
<path d="M14.7949 21.193C15.0535 21.4517 15.3932 21.5809 15.7329 21.5809C16.0726 21.5809 16.4123 21.4517 16.6709 21.193L20.781 17.0829C21.2981 16.5657 21.2981 15.7242 20.7809 15.207L16.6708 11.0968C16.1536 10.5798 15.312 10.5796 14.7948 11.0969L10.6847 15.207C10.1676 15.7242 10.1676 16.5658 10.6847 17.083L14.7949 21.193ZM11.3565 15.8787L15.4666 11.7686C15.6134 11.6218 15.8524 11.6218 15.9992 11.7686L20.1093 15.8787C20.2561 16.0255 20.2561 16.2644 20.1093 16.4113L15.9992 20.5213C15.8524 20.6682 15.6134 20.6682 15.4666 20.5213L11.3566 16.4112C11.2097 16.2644 11.2097 16.0255 11.3565 15.8787Z" fill="#21273A"/>
<path d="M13.4703 26.1892H6.47523V23.7497H25.4659C25.7282 23.7497 25.9408 23.537 25.9408 23.2747V9.0157C25.9408 8.7534 25.7282 8.54074 25.4659 8.54074H6.47523V6.10128H10.3346C10.5969 6.10128 10.8095 5.88863 10.8095 5.62632C10.8095 5.36402 10.5969 5.15136 10.3346 5.15136H6.44009C6.20957 3.59051 4.86151 2.38867 3.23765 2.38867C1.45243 2.38867 0 3.8411 0 5.62632V26.3723C0 28.1576 1.45243 29.6099 3.23765 29.6099C4.75866 29.6099 6.03738 28.5553 6.38271 27.1391H13.4703C13.7326 27.1391 13.9453 26.9265 13.9453 26.6642C13.9453 26.4019 13.7326 26.1892 13.4703 26.1892ZM22.6725 22.7998C22.7134 21.4714 23.7063 20.3786 24.9908 20.1837V22.7998H22.6725ZM24.9909 11.7802C23.8133 11.6015 22.8802 10.6683 22.7015 9.49066H24.9909V11.7802ZM21.7441 9.49066C21.9344 11.1926 23.289 12.5473 24.9909 12.7375V19.2262C23.1814 19.4285 21.765 20.9471 21.7227 22.7997H6.47523V9.49066H21.7441ZM3.23765 3.33859C4.49908 3.33859 5.52538 4.36489 5.52538 5.62632V24.0835C4.93915 23.4976 4.13 23.1348 3.23765 23.1348C2.34529 23.1348 1.53615 23.4976 0.949921 24.0835V5.62632C0.949921 4.36489 1.97622 3.33859 3.23765 3.33859ZM3.23765 28.66C1.97622 28.66 0.949921 27.6338 0.949921 26.3723C0.949921 25.1109 1.97622 24.0847 3.23765 24.0847C4.49908 24.0847 5.52538 25.111 5.52538 26.3723C5.52531 27.6338 4.49908 28.66 3.23765 28.66Z" fill="#21273A"/>
<path d="M31.5234 8.67884C31.7857 8.67884 31.9984 8.46619 31.9984 8.20388C31.9984 7.94158 31.7857 7.72892 31.5234 7.72892H30.2082V6.73024H31.5234C31.7857 6.73024 31.9984 6.51758 31.9984 6.25528C31.9984 5.99297 31.7857 5.78031 31.5234 5.78031H30.2082V5.62535C30.2082 5.36305 29.9955 5.15039 29.7332 5.15039H12.2328C11.9705 5.15039 11.7578 5.36305 11.7578 5.62535C11.7578 5.88766 11.9705 6.10031 12.2328 6.10031H29.2583V26.1882H15.3685C15.1062 26.1882 14.8936 26.4009 14.8936 26.6632C14.8936 26.9255 15.1062 27.1382 15.3685 27.1382H29.7333C29.9956 27.1382 30.2083 26.9255 30.2083 26.6632V26.2163H31.5235C31.7858 26.2163 31.9984 26.0037 31.9984 25.7414C31.9984 25.4791 31.7858 25.2664 31.5235 25.2664H30.2083V24.2677H31.5235C31.7858 24.2677 31.9984 24.0551 31.9984 23.7928C31.9984 23.5305 31.7858 23.3178 31.5235 23.3178H30.2083V22.3191H31.5235C31.7858 22.3191 31.9984 22.1065 31.9984 21.8442C31.9984 21.5819 31.7858 21.3692 31.5235 21.3692H30.2083V20.3705H31.5235C31.7858 20.3705 31.9984 20.1579 31.9984 19.8956C31.9984 19.6333 31.7858 19.4206 31.5235 19.4206H30.2083V18.4219H31.5235C31.7858 18.4219 31.9984 18.2093 31.9984 17.947C31.9984 17.6847 31.7858 17.472 31.5235 17.472H30.2083V16.4733H31.5235C31.7858 16.4733 31.9984 16.2607 31.9984 15.9984C31.9984 15.7361 31.7858 15.5234 31.5235 15.5234H30.2083V14.5247H31.5235C31.7858 14.5247 31.9984 14.3121 31.9984 14.0498C31.9984 13.7875 31.7858 13.5748 31.5235 13.5748H30.2083V12.5761H31.5235C31.7858 12.5761 31.9984 12.3635 31.9984 12.1012C31.9984 11.8388 31.7858 11.6262 31.5235 11.6262H30.2083V10.6275H31.5235C31.7858 10.6275 31.9984 10.4149 31.9984 10.1525C31.9984 9.89024 31.7858 9.67759 31.5235 9.67759H30.2083V8.6789H31.5234V8.67884Z" fill="#21273A"/>
<path d="M3.23922 25.1172C2.5473 25.1172 1.98438 25.6801 1.98438 26.3721C1.98438 27.064 2.5473 27.627 3.23922 27.627C3.93114 27.627 4.49407 27.064 4.49407 26.3721C4.49407 25.6801 3.93114 25.1172 3.23922 25.1172ZM3.23922 26.677C3.07108 26.677 2.9343 26.5402 2.9343 26.3721C2.9343 26.204 3.07108 26.0671 3.23922 26.0671C3.40736 26.0671 3.54414 26.204 3.54414 26.3721C3.54414 26.5402 3.40736 26.677 3.23922 26.677Z" fill="#21273A"/>
</svg>
