<svg width="34" height="34" viewBox="0 0 34 34" fill="none" xmlns="http://www.w3.org/2000/svg">
<path d="M3.73844 30.6004H30.2584C30.4464 30.6004 30.5984 30.4482 30.5984 30.2604V3.74039C30.5984 3.55263 30.4464 3.40039 30.2584 3.40039H3.73844C3.55051 3.40039 3.39844 3.55263 3.39844 3.74039V30.2604C3.39844 30.4482 3.55051 30.6004 3.73844 30.6004ZM19.8267 10.8804H24.4495V29.9204H19.8267V10.8804ZM24.4495 10.2004H19.8267V4.08039H24.4495V10.2004ZM19.1467 29.9204H14.5238V4.08039H19.1467V29.9204ZM13.8438 16.6604H9.22094V4.08039H13.8438V16.6604ZM9.22094 17.3404H13.8438V29.9204H9.22094V17.3404ZM25.1295 29.9204V24.4804H29.9184V29.9204H25.1295ZM29.9184 23.8004H25.1295V4.08039H29.9184V23.8004ZM4.07844 4.08039H8.54094V29.9204H4.07844V4.08039Z" fill="#21273A"/>
</svg>
