<svg width="19" height="25" viewBox="0 0 19 25" fill="none" xmlns="http://www.w3.org/2000/svg">
<path d="M16.1378 0H1.92839C1.89689 0 1.86559 0.000781256 1.83454 0.00229494C1.83419 0.00229494 1.83385 0.00229494 1.83351 0.00234377C0.805378 0.0524907 0 0.898445 0 1.92873V19.0815C0 19.2838 0.163966 19.4477 0.366214 19.4477C0.568462 19.4477 0.732428 19.2838 0.732428 19.0815V1.92873C0.732428 1.28966 1.2318 0.764948 1.8693 0.733893H1.8696C1.88927 0.732916 1.9091 0.732428 1.92873 0.732428H16.1378C16.7975 0.732428 17.3341 1.2691 17.3341 1.92873V4.13304C17.3341 4.33529 17.4981 4.49926 17.7003 4.49926C17.9026 4.49926 18.0666 4.33529 18.0666 4.13304V1.92873C18.0666 0.865242 17.2013 0 16.1378 0V0Z" fill="#21273A"/>
<path d="M17.7003 5.47656C17.4981 5.47656 17.3341 5.64053 17.3341 5.84278V23.0722C17.3341 23.6912 16.8704 24.203 16.2556 24.2628C16.2555 24.2628 16.2555 24.2628 16.2555 24.2628C16.2167 24.2666 16.1772 24.2685 16.1378 24.2685H1.92873C1.2691 24.2685 0.732428 23.7318 0.732428 23.0722V20.7912C0.732428 20.589 0.568462 20.425 0.366214 20.425C0.163966 20.425 0 20.589 0 20.7912V23.0722C0 24.1357 0.865242 25.0009 1.92873 25.0009H16.1378C16.2008 25.0009 16.2642 24.9979 16.3265 24.9918H16.3266C17.3186 24.8952 18.0666 24.07 18.0666 23.0722V5.84278C18.0666 5.64048 17.9026 5.47656 17.7003 5.47656Z" fill="#21273A"/>
<path d="M15.8238 3.33497C15.8238 2.67535 15.2872 2.13867 14.6275 2.13867H3.43849C2.77886 2.13867 2.24219 2.67535 2.24219 3.33497V7.63554C2.24219 8.29517 2.77886 8.83184 3.43849 8.83184H14.6275C15.2872 8.83184 15.8238 8.29517 15.8238 7.63554V3.33497ZM15.0914 7.63554C15.0914 7.89131 14.8833 8.09941 14.6275 8.09941H3.43849C3.18272 8.09941 2.97462 7.89131 2.97462 7.63554V3.33497C2.97462 3.07921 3.18272 2.8711 3.43849 2.8711H14.6275C14.8833 2.8711 15.0914 3.07921 15.0914 3.33497V7.63554Z" fill="#21273A"/>
<path d="M15.825 10.792C15.825 10.4285 15.5293 10.1328 15.1658 10.1328H13.5264C13.1629 10.1328 12.8672 10.4285 12.8672 10.792V11.8221C12.8672 12.1856 13.1629 12.4813 13.5264 12.4813H15.1658C15.5293 12.4813 15.825 12.1856 15.825 11.8221V10.792ZM15.0925 11.7488H13.5996V10.8652H15.0925V11.7488Z" fill="#21273A"/>
<path d="M2.24219 22.2019C2.24219 22.5654 2.53789 22.8611 2.90137 22.8611H4.41872C4.7822 22.8611 5.0779 22.5654 5.0779 22.2019V20.7764C5.0779 20.4129 4.7822 20.1172 4.41872 20.1172H2.90137C2.53789 20.1172 2.24219 20.4129 2.24219 20.7764V22.2019ZM2.97462 20.8496H4.34548V22.1286H2.97462V20.8496Z" fill="#21273A"/>
<path d="M7.87966 20.1172H6.36231C5.99883 20.1172 5.70312 20.4129 5.70312 20.7764V22.2019C5.70312 22.5654 5.99883 22.8611 6.36231 22.8611H7.87966C8.24314 22.8611 8.53884 22.5654 8.53884 22.2019V20.7764C8.53884 20.4129 8.24314 20.1172 7.87966 20.1172ZM7.80641 22.1286H6.43555V20.8496H7.80641V22.1286Z" fill="#21273A"/>
<path d="M11.3406 20.1172H9.82325C9.45977 20.1172 9.16406 20.4129 9.16406 20.7764V22.2019C9.16406 22.5654 9.45977 22.8611 9.82325 22.8611H11.3406C11.7041 22.8611 11.9998 22.5654 11.9998 22.2019V20.7764C11.9998 20.4129 11.7041 20.1172 11.3406 20.1172ZM11.2674 22.1286H9.89649V20.8496H11.2674V22.1286Z" fill="#21273A"/>
<path d="M2.24219 18.7409C2.24219 19.1044 2.53789 19.4001 2.90137 19.4001H4.41872C4.7822 19.4001 5.0779 19.1044 5.0779 18.7409V17.3154C5.0779 16.952 4.7822 16.6562 4.41872 16.6562H2.90137C2.53789 16.6562 2.24219 16.952 2.24219 17.3154V18.7409ZM2.97462 17.3887H4.34548V18.6677H2.97462V17.3887Z" fill="#21273A"/>
<path d="M8.53884 17.3154C8.53884 16.952 8.24314 16.6562 7.87966 16.6562H6.36231C5.99883 16.6562 5.70312 16.952 5.70312 17.3154V18.7409C5.70312 19.1044 5.99883 19.4001 6.36231 19.4001H7.87966C8.24314 19.4001 8.53884 19.1044 8.53884 18.7409V17.3154ZM7.80641 18.6677H6.43555V17.3887H7.80641V18.6677Z" fill="#21273A"/>
<path d="M11.9998 17.3154C11.9998 16.952 11.7041 16.6562 11.3406 16.6562H9.82325C9.45977 16.6562 9.16406 16.952 9.16406 17.3154V18.7409C9.16406 19.1044 9.45977 19.4001 9.82325 19.4001H11.3406C11.7041 19.4001 11.9998 19.1044 11.9998 18.7409V17.3154ZM11.2674 18.6677H9.89649V17.3887H11.2674V18.6677Z" fill="#21273A"/>
<path d="M2.24219 15.282C2.24219 15.6454 2.53789 15.9411 2.90137 15.9411H4.41872C4.7822 15.9411 5.0779 15.6454 5.0779 15.282V13.8565C5.0779 13.493 4.7822 13.1973 4.41872 13.1973H2.90137C2.53789 13.1973 2.24219 13.493 2.24219 13.8565V15.282ZM2.97462 13.9297H4.34548V15.2087H2.97462V13.9297Z" fill="#21273A"/>
<path d="M8.53884 13.8565C8.53884 13.493 8.24314 13.1973 7.87966 13.1973H6.36231C5.99883 13.1973 5.70312 13.493 5.70312 13.8565V15.282C5.70312 15.6454 5.99883 15.9411 6.36231 15.9411H7.87966C8.24314 15.9411 8.53884 15.6454 8.53884 15.282V13.8565ZM7.80641 15.2087H6.43555V13.9297H7.80641V15.2087Z" fill="#21273A"/>
<path d="M11.9998 13.8565C11.9998 13.493 11.7041 13.1973 11.3406 13.1973H9.82325C9.45977 13.1973 9.16406 13.493 9.16406 13.8565V15.282C9.16406 15.6454 9.45977 15.9411 9.82325 15.9411H11.3406C11.7041 15.9411 11.9998 15.6454 11.9998 15.282V13.8565ZM11.2674 15.2087H9.89649V13.9297H11.2674V15.2087Z" fill="#21273A"/>
<path d="M2.24219 11.8221C2.24219 12.1856 2.53789 12.4813 2.90137 12.4813H7.879C8.24248 12.4813 8.53819 12.1856 8.53819 11.8221V10.792C8.53819 10.4285 8.24248 10.1328 7.879 10.1328H2.90137C2.53789 10.1328 2.24219 10.4285 2.24219 10.792V11.8221ZM2.97462 10.8652H7.80576V11.7488H2.97462V10.8652Z" fill="#21273A"/>
<path d="M11.9998 10.792C11.9998 10.4285 11.7041 10.1328 11.3406 10.1328H9.82325C9.45977 10.1328 9.16406 10.4285 9.16406 10.792V11.8221C9.16406 12.1856 9.45977 12.4813 9.82325 12.4813H11.3406C11.7041 12.4813 11.9998 12.1856 11.9998 11.8221V10.792ZM11.2674 11.7488H9.89649V10.8652H11.2674V11.7488Z" fill="#21273A"/>
<path d="M15.1658 13.1973H13.5264C13.1629 13.1973 12.8672 13.493 12.8672 13.8565V22.2026C12.8672 22.566 13.1629 22.8617 13.5264 22.8617H15.1658C15.5293 22.8617 15.825 22.566 15.825 22.2026V13.8565C15.825 13.493 15.5293 13.1973 15.1658 13.1973ZM15.0925 22.1293H13.5996V13.9297H15.0925V22.1293Z" fill="#21273A"/>
<path d="M8.83277 3.55664H8.38966C7.75694 3.55664 7.24219 4.07139 7.24219 4.70411V6.33987C7.24219 6.97259 7.75694 7.48734 8.38966 7.48734H8.83277C9.46549 7.48734 9.98024 6.97259 9.98024 6.33987V4.70411C9.98024 4.07139 9.46549 3.55664 8.83277 3.55664ZM9.24781 6.33987C9.24781 6.56873 9.06163 6.75491 8.83277 6.75491H8.38966C8.1608 6.75491 7.97461 6.56873 7.97461 6.33987V4.70411C7.97461 4.47525 8.1608 4.28907 8.38966 4.28907H8.83277C9.06163 4.28907 9.24781 4.47525 9.24781 4.70411V6.33987Z" fill="#21273A"/>
<path d="M10.8428 6.2168C10.6405 6.2168 10.4766 6.38076 10.4766 6.58301V7.12012C10.4766 7.32237 10.6405 7.48634 10.8428 7.48634C11.045 7.48634 11.209 7.32237 11.209 7.12012V6.58301C11.209 6.38076 11.045 6.2168 10.8428 6.2168Z" fill="#21273A"/>
<path d="M13.2937 3.55664H12.8506C12.2179 3.55664 11.7031 4.07139 11.7031 4.70411V6.33987C11.7031 6.97259 12.2179 7.48734 12.8506 7.48734H13.2937C13.9264 7.48734 14.4412 6.97259 14.4412 6.33987V4.70411C14.4412 4.07139 13.9264 3.55664 13.2937 3.55664ZM13.7088 6.33987C13.7088 6.56873 13.5226 6.75491 13.2937 6.75491H12.8506C12.6217 6.75491 12.4356 6.56873 12.4356 6.33987V4.70411C12.4356 4.47525 12.6217 4.28907 12.8506 4.28907H13.2937C13.5226 4.28907 13.7088 4.47525 13.7088 4.70411V6.33987Z" fill="#21273A"/>
</svg>
