<svg width="25" height="25" viewBox="0 0 25 25" fill="none" xmlns="http://www.w3.org/2000/svg">
<path d="M16.8294 18.4631C16.4648 18.4631 16.2694 18.0171 16.5129 17.7486C19.1445 14.8478 20.4715 11.179 20.4597 6.83987C18.4536 6.38074 17.0021 4.79035 16.8462 2.88394H8.15527C7.99939 4.79121 6.54688 6.38186 4.53951 6.84035C4.49357 11.3423 5.70687 15.0121 8.14816 17.7513C8.30522 17.9275 8.28967 18.1976 8.11344 18.3546C7.93727 18.5116 7.66707 18.4961 7.50997 18.3199C6.33262 16.9989 5.41141 15.4446 4.77183 13.7002C3.99026 11.5683 3.62653 9.13779 3.69085 6.47615C3.69571 6.27358 3.84223 6.10227 4.04165 6.066C4.04507 6.06535 4.04881 6.06477 4.05222 6.06423C5.95009 5.76685 7.32199 4.27951 7.3143 2.52769C7.31312 2.27144 7.45778 2.0293 7.74138 2.0293H17.26C17.5403 2.0293 17.695 2.27182 17.6871 2.52807C17.6795 4.27978 19.0515 5.76701 20.9494 6.06429C21.1544 6.09639 21.3067 6.27102 21.3106 6.47844C21.3594 9.06487 20.9455 11.4705 20.0805 13.6284C19.3848 15.3639 18.3975 16.9434 17.146 18.3229C17.0617 18.4158 16.9458 18.4631 16.8294 18.4631Z" fill="#21273A"/>
<path d="M12.4999 16.691C9.84851 16.691 7.69141 14.5383 7.69141 11.8924C7.69141 9.24642 9.84851 7.09375 12.4999 7.09375C15.1513 7.09375 17.3084 9.24642 17.3084 11.8924C17.3084 14.5383 15.1513 16.691 12.4999 16.691ZM12.4999 7.94845C10.3199 7.94845 8.54627 9.71768 8.54627 11.8924C8.54627 14.067 10.3199 15.8363 12.4999 15.8363C14.6799 15.8363 16.4535 14.067 16.4535 11.8924C16.4535 9.71768 14.68 7.94845 12.4999 7.94845Z" fill="#21273A"/>
<path d="M11.3686 13.4973L10.245 12.1626C10.0929 11.9821 10.1161 11.7125 10.2967 11.5605C10.4773 11.4086 10.747 11.4318 10.899 11.6123L11.7148 12.5814L14.3449 9.81268C14.5075 9.64164 14.7781 9.63464 14.9492 9.79714C15.1203 9.95969 15.1273 10.2301 14.9647 10.4014L12.0054 13.5165C11.8318 13.6874 11.5646 13.7007 11.3686 13.4973Z" fill="#21273A"/>
<path d="M22.9866 20.5256L24.9078 18.1412C25.1311 17.864 24.9213 17.4668 24.5749 17.4668H19.8584C19.635 17.4668 19.431 17.6337 19.431 17.8665L19.4311 19.3899H5.57372L5.56966 17.8706C5.56902 17.6351 5.37788 17.4668 5.14225 17.4668H0.425692C0.0770279 17.4668 -0.130878 17.8688 0.0928399 18.1464L2.01394 20.5282L0.0928399 22.9114C-0.127993 23.1855 0.0736091 23.61 0.425692 23.61H4.75454V24.5715C4.75454 24.8075 4.92014 24.9989 5.15619 24.9989H19.859C20.095 24.9989 20.2994 24.8075 20.2994 24.5715V23.61H24.5748C24.9268 23.61 25.1282 23.185 24.9077 22.9112L22.9866 20.5256ZM1.3188 22.7553L2.89562 20.7959C3.02169 20.6394 3.02169 20.4257 2.89562 20.2691L1.31885 18.3215H4.71592L4.72767 22.7553H1.3188ZM19.4458 24.1442H5.60924V20.2446H19.4312L19.4458 24.1442ZM20.3007 22.7553L20.2858 18.3215H23.6818L22.105 20.268C21.9789 20.4245 21.9789 20.6446 22.105 20.8011L23.6817 22.7553H20.3007Z" fill="#21273A"/>
<path d="M22.7594 1.49909C22.5234 1.49909 22.332 1.30775 22.332 1.07174V0.42735C22.332 0.191346 22.5234 0 22.7594 0C22.9954 0 23.1868 0.191346 23.1868 0.42735V1.07174C23.1868 1.30769 22.9955 1.49909 22.7594 1.49909Z" fill="#21273A"/>
<path d="M22.7594 4.2804C22.5234 4.2804 22.332 4.08905 22.332 3.85304V3.2086C22.332 2.9726 22.5234 2.78125 22.7594 2.78125C22.9954 2.78125 23.1868 2.9726 23.1868 3.2086V3.85299C23.1868 4.08905 22.9955 4.2804 22.7594 4.2804Z" fill="#21273A"/>
<path d="M24.4695 2.56759H23.8258C23.5898 2.56759 23.3984 2.37625 23.3984 2.14024C23.3984 1.90424 23.5898 1.71289 23.8258 1.71289H24.4695C24.7056 1.71289 24.8969 1.90424 24.8969 2.14024C24.8969 2.37625 24.7055 2.56759 24.4695 2.56759Z" fill="#21273A"/>
<path d="M21.6922 2.56759H21.0485C20.8124 2.56759 20.6211 2.37625 20.6211 2.14024C20.6211 1.90424 20.8125 1.71289 21.0485 1.71289H21.6922C21.9283 1.71289 22.1196 1.90424 22.1196 2.14024C22.1196 2.37625 21.9283 2.56759 21.6922 2.56759Z" fill="#21273A"/>
<path d="M2.34928 1.49909C2.11322 1.49909 1.92188 1.30775 1.92188 1.07174V0.42735C1.92188 0.191346 2.11322 0 2.34928 0C2.58534 0 2.77668 0.191346 2.77668 0.42735V1.07174C2.77668 1.30769 2.58534 1.49909 2.34928 1.49909Z" fill="#21273A"/>
<path d="M2.34928 4.2804C2.11322 4.2804 1.92188 4.08905 1.92188 3.85304V3.2086C1.92188 2.9726 2.11322 2.78125 2.34928 2.78125C2.58534 2.78125 2.77668 2.9726 2.77668 3.2086V3.85299C2.77668 4.08905 2.58534 4.2804 2.34928 4.2804Z" fill="#21273A"/>
<path d="M4.05938 2.56759H3.41568C3.17963 2.56759 2.98828 2.37625 2.98828 2.14024C2.98828 1.90424 3.17963 1.71289 3.41568 1.71289H4.05938C4.29544 1.71289 4.48678 1.90424 4.48678 2.14024C4.48678 2.37625 4.29544 2.56759 4.05938 2.56759Z" fill="#21273A"/>
<path d="M1.28204 2.56759H0.638342C0.402284 2.56759 0.210938 2.37625 0.210938 2.14024C0.210938 1.90424 0.402284 1.71289 0.638342 1.71289H1.28204C1.5181 1.71289 1.70944 1.90424 1.70944 2.14024C1.70944 2.37625 1.5181 2.56759 1.28204 2.56759Z" fill="#21273A"/>
</svg>
