<svg width="25" height="25" viewBox="0 0 25 25" fill="none" xmlns="http://www.w3.org/2000/svg">
<g clip-path="url(#clip0)">
<path d="M4.67969 15.0889C4.67969 15.2911 4.8436 15.4551 5.0459 15.4551H15.2191C15.4214 15.4551 15.5854 15.2911 15.5854 15.0889C15.5854 14.8866 15.4214 14.7227 15.2191 14.7227H5.0459C4.8436 14.7227 4.67969 14.8866 4.67969 15.0889Z" fill="#21273A"/>
<path d="M5.0459 18.0996H15.2191C15.4214 18.0996 15.5854 17.9357 15.5854 17.7334C15.5854 17.5311 15.4214 17.3672 15.2191 17.3672H5.0459C4.8436 17.3672 4.67969 17.5311 4.67969 17.7334C4.67969 17.9357 4.8436 18.0996 5.0459 18.0996Z" fill="#21273A"/>
<path d="M15.2203 20.0117H8.28418C8.08188 20.0117 7.91797 20.1757 7.91797 20.3779C7.91797 20.5802 8.08188 20.7441 8.28418 20.7441H15.2203C15.4226 20.7441 15.5865 20.5802 15.5865 20.3779C15.5865 20.1757 15.4225 20.0117 15.2203 20.0117Z" fill="#21273A"/>
<path d="M6.06535 10.2831C6.77102 11.747 9.04656 12.2693 9.29348 12.3221C9.37917 12.3493 9.94079 12.5382 10.2677 12.9172C10.3568 13.0205 10.4859 13.0798 10.622 13.0798H10.6221C10.7582 13.0798 10.8874 13.0206 10.9765 12.9173C11.3046 12.5369 11.8688 12.348 11.951 12.3221C11.9764 12.3165 12.0268 12.3053 12.0977 12.2876C12.3997 12.2121 12.9965 12.0394 13.6006 11.731C14.396 11.3249 14.934 10.823 15.1995 10.2392C15.4933 9.59339 15.4447 8.87879 15.0549 8.11517V8.11522C13.8808 5.81497 14.653 4.47903 14.8198 4.2344C14.9542 4.03719 14.9185 3.77146 14.7367 3.61629L13.4249 2.4969C13.282 2.37483 13.0812 2.35017 12.9132 2.43401C11.6936 3.04329 11.0834 2.65066 10.9254 2.51565C10.7495 2.36575 10.4945 2.3659 10.3188 2.5158C10.1609 2.65061 9.55071 3.04309 8.33093 2.43391C8.16301 2.35022 7.96213 2.37498 7.81946 2.49681L6.50774 3.61614C6.32571 3.77137 6.29001 4.03724 6.42463 4.2345C6.51882 4.37254 6.74504 4.76224 6.81203 5.39725C6.89895 6.22108 6.68948 7.13548 6.18947 8.11507C5.7905 8.89676 5.74875 9.6262 6.06535 10.2831ZM6.84177 8.44813C8.00964 6.16014 7.49416 4.64891 7.15456 4.02703L8.16394 3.16565C8.77663 3.4449 9.34734 3.54881 9.86272 3.47415C10.2008 3.42532 10.4531 3.30706 10.6222 3.19934C10.7914 3.30706 11.0436 3.42532 11.3817 3.47415C11.897 3.54866 12.4678 3.4448 13.0804 3.16565L14.0899 4.02703C13.7503 4.64886 13.2347 6.16009 14.4026 8.44808V8.44813C14.6898 9.01068 14.7324 9.49735 14.5329 9.93587C14.159 10.7578 12.9381 11.3225 11.9201 11.5769C11.8386 11.5973 11.7902 11.6074 11.7865 11.6082C11.7769 11.6101 11.7673 11.6125 11.7579 11.6152C11.7282 11.6238 11.1096 11.8062 10.6222 12.237C10.1348 11.8062 9.51623 11.6237 9.4865 11.6152C9.47727 11.6125 9.46755 11.6102 9.45813 11.6082C9.45256 11.6071 8.89416 11.4909 8.27073 11.2176C7.72556 10.9786 7.01477 10.5672 6.72468 9.96395C6.51028 9.51834 6.54861 9.02244 6.84177 8.44813Z" fill="#21273A"/>
<path d="M9.14162 7.83432L8.95265 8.93623C8.92228 9.11328 8.99367 9.28891 9.13898 9.39458C9.28439 9.50019 9.4735 9.51382 9.63258 9.43032L10.6221 8.9101L11.6118 9.43037C11.681 9.4667 11.7558 9.48462 11.8303 9.48462C11.9271 9.48462 12.0232 9.45429 12.1054 9.39458C12.2507 9.28891 12.3221 9.11328 12.2917 8.93623L12.1028 7.83432L12.9033 7.054C13.032 6.92856 13.0774 6.74443 13.0219 6.57353C12.9663 6.40264 12.8214 6.28047 12.6436 6.25464L11.5372 6.09385L11.0424 5.09141C10.963 4.93022 10.8019 4.83008 10.6222 4.83008C10.4425 4.83008 10.2814 4.93022 10.202 5.09136L9.70714 6.09385L8.60085 6.25464C8.42301 6.28047 8.27804 6.40268 8.22253 6.57358C8.16696 6.74448 8.21242 6.92861 8.34108 7.05405L9.14162 7.83432ZM10.0029 6.79097C10.1222 6.77368 10.2254 6.69873 10.2787 6.59062L10.6222 5.89468L10.9656 6.59062C11.019 6.69873 11.1221 6.77363 11.2414 6.79097L12.0094 6.90254L11.4536 7.44424C11.3673 7.52842 11.3279 7.64961 11.3484 7.76841L11.4796 8.53335L10.7926 8.17221C10.7393 8.14419 10.6808 8.13017 10.6222 8.13017C10.5637 8.13017 10.5052 8.14419 10.4518 8.17221L9.76496 8.5333L9.89616 7.76841C9.91657 7.64961 9.87716 7.52842 9.79089 7.44424L9.23512 6.90254L10.0029 6.79097Z" fill="#21273A"/>
<path d="M19.8771 13.2031C18.8938 13.2031 18.0938 14.0032 18.0938 14.9865C18.0938 15.9698 18.8938 16.7698 19.8771 16.7698C20.8604 16.7698 21.6604 15.9698 21.6604 14.9865C21.6604 14.0032 20.8604 13.2031 19.8771 13.2031ZM19.8771 16.0375C19.2976 16.0375 18.8262 15.566 18.8262 14.9865C18.8262 14.407 19.2976 13.9356 19.8771 13.9356C20.4566 13.9356 20.928 14.407 20.928 14.9865C20.928 15.566 20.4566 16.0375 19.8771 16.0375Z" fill="#21273A"/>
<path d="M23.326 14.9855C23.326 13.2076 21.9736 11.74 20.2435 11.5565V1.58691C20.2435 0.711865 19.5316 0 18.6566 0H2.68457C1.78716 0 1 0.741504 1 1.58691V4.08311C1 4.2854 1.16396 4.44932 1.36621 4.44932C1.56851 4.44932 1.73242 4.2854 1.73242 4.08311V1.58691C1.73242 1.1397 2.18623 0.732422 2.68457 0.732422H18.6566C19.1278 0.732422 19.5111 1.11577 19.5111 1.58691V11.5565C17.7811 11.74 16.4287 13.2077 16.4287 14.9856C16.4287 16.0769 16.9388 17.0507 17.7324 17.6831V21.4685C17.7324 21.7206 17.8753 21.9413 18.1055 22.0443C18.3357 22.1473 18.5955 22.1071 18.7836 21.9391L19.5111 21.2894V23.4131C19.5111 23.8842 19.1278 24.2676 18.6566 24.2676H15.4181C15.2158 24.2676 15.0519 24.4315 15.0519 24.6338C15.0519 24.8361 15.2158 25 15.4181 25H18.6566C19.5317 25 20.2436 24.2881 20.2436 23.4131V21.2894L20.9711 21.9391C21.0902 22.0455 21.2381 22.1006 21.389 22.1006C21.4764 22.1006 21.5647 22.0821 21.6491 22.0444C21.8793 21.9414 22.0223 21.7207 22.0223 21.4685V20.3776C22.0223 20.1753 21.8584 20.0114 21.6561 20.0114C21.4538 20.0114 21.2899 20.1753 21.2899 20.3776V21.2418L20.1212 20.1982C19.9848 20.0762 19.7699 20.0766 19.6334 20.1983L18.4648 21.2418V18.1305C18.8962 18.325 19.3741 18.4342 19.8773 18.4342C20.3806 18.4342 20.8584 18.325 21.2899 18.1305V18.7773C21.2899 18.9796 21.4538 19.1436 21.6561 19.1436C21.8584 19.1436 22.0223 18.9796 22.0223 18.7773V17.6831C22.8159 17.0507 23.326 16.0769 23.326 14.9855ZM17.1611 14.9855C17.1611 13.4878 18.3796 12.2693 19.8773 12.2693C21.3751 12.2693 22.5936 13.4878 22.5936 14.9855C22.5936 16.4833 21.3751 17.7018 19.8773 17.7018C18.3796 17.7018 17.1611 16.4833 17.1611 14.9855Z" fill="#21273A"/>
<path d="M13.822 24.2672H6.67764V20.9087C6.67764 20.0338 5.96582 19.322 5.09092 19.322H1.73242V5.67871C1.73242 5.47642 1.56851 5.3125 1.36621 5.3125C1.16396 5.3125 1 5.47642 1 5.67871V19.6882C1 19.7843 1.03931 19.8792 1.10723 19.9472L6.05244 24.8924C6.12051 24.9602 6.21509 24.9999 6.31143 24.9996H13.822C14.0243 24.9996 14.1882 24.8357 14.1882 24.6334C14.1882 24.4311 14.0243 24.2672 13.822 24.2672ZM5.94521 20.9087V23.7493L2.25024 20.0544H5.09092C5.56201 20.0544 5.94521 20.4376 5.94521 20.9087Z" fill="#21273A"/>
</g>
<defs>
<clipPath id="clip0">
<rect width="25" height="25" fill="white"/>
</clipPath>
</defs>
</svg>
