<svg width="15" height="15" viewBox="0 0 15 15" fill="none" xmlns="http://www.w3.org/2000/svg">
<path d="M15 5.14629V0.439453C15 0.196724 14.8033 0 14.5605 0H5.14664C5.14652 0 5.14641 0 5.14629 0H0.439453C0.196724 0 0 0.196724 0 0.439453V9.85336V9.85371V14.5605C0 14.8033 0.196724 15 0.439453 15H14.5605C14.8033 15 15 14.8033 15 14.5605V5.14664C15 5.14652 15 5.14641 15 5.14629ZM12.2071 3.41446L13.939 5.14652L9.85348 9.23206L8.12153 7.5L12.2071 3.41446ZM7.5 6.87847L3.41446 2.79293L5.14652 1.06098L9.23206 5.14652L7.5 6.87847ZM9.85348 4.52499L8.12141 2.79293L10.0356 0.878906H13.4996L9.85348 4.52499ZM7.5 2.17152L6.20739 0.878906H8.79261L7.5 2.17152ZM2.79293 2.17152L1.50043 0.878906H4.08554L2.79293 2.17152ZM0.878906 1.50043L4.52499 5.14652L2.79293 6.87847L0.878906 4.96445V1.50043ZM2.17152 7.5L0.878906 8.79261V6.20739L2.17152 7.5ZM1.06098 9.85348L5.14652 5.76794L6.87847 7.5L2.79293 11.5855L1.06098 9.85348ZM2.17152 12.2071L0.878906 13.4996V10.9145L2.17152 12.2071ZM7.5 8.12153L11.5855 12.207L9.85348 13.939L5.76794 9.85348L7.5 8.12153ZM8.79261 14.1211H6.20739L7.5 12.8285L8.79261 14.1211ZM12.2071 12.8285L13.4996 14.1211H10.9145L12.2071 12.8285ZM14.1211 13.4996L10.475 9.85348L12.2071 8.12153L14.1211 10.0356V13.4996ZM12.8285 7.5L14.1211 6.20739V8.79261L12.8285 7.5ZM12.8285 2.79293L14.1211 1.50043V4.08554L12.8285 2.79293ZM1.50043 14.1211L5.14652 10.475L6.87847 12.2071L4.96445 14.1211H1.50043Z" fill="#30374E"/>
</svg>
