<svg width="25" height="25" viewBox="0 0 25 25" fill="none" xmlns="http://www.w3.org/2000/svg">
<g clip-path="url(#clip0)">
<path d="M8.50223 11.661C8.15653 11.3153 7.69696 11.125 7.20814 11.125C6.71932 11.125 6.2597 11.3153 5.91405 11.661C5.20053 12.3746 5.20053 13.5356 5.91405 14.2492C6.2597 14.5948 6.71937 14.7852 7.20819 14.7852C7.69701 14.7852 8.15662 14.5948 8.50218 14.2492C8.84788 13.9036 9.03826 13.4439 9.03826 12.9551C9.03831 12.4662 8.84793 12.0066 8.50223 11.661ZM7.98455 13.7315C7.77718 13.939 7.50145 14.0532 7.20819 14.0532C6.91488 14.0532 6.6391 13.939 6.43163 13.7315C6.00355 13.3035 6.00355 12.6068 6.43168 12.1786C6.63905 11.9712 6.91478 11.857 7.20814 11.857C7.50145 11.857 7.77718 11.9712 7.9846 12.1787C8.19202 12.386 8.30628 12.6618 8.30628 12.9551C8.30623 13.2484 8.19202 13.5241 7.98455 13.7315Z" fill="#21273A"/>
<path d="M13.3343 16.493C12.9886 16.1474 12.5291 15.957 12.0402 15.957C11.5513 15.957 11.0917 16.1474 10.7461 16.493C10.0326 17.2066 10.0326 18.3677 10.7461 19.0812C11.0917 19.4269 11.5513 19.6172 12.0402 19.6172C12.529 19.6172 12.9886 19.4268 13.3343 19.0812C13.68 18.7356 13.8703 18.276 13.8703 17.7872C13.8704 17.2983 13.68 16.8387 13.3343 16.493ZM12.8166 18.5636C12.6092 18.771 12.3334 18.8852 12.0401 18.8852C11.7468 18.8852 11.4711 18.771 11.2637 18.5636C10.8356 18.1355 10.8356 17.4388 11.2637 17.0106C11.4711 16.8032 11.7469 16.689 12.0402 16.689C12.3335 16.689 12.6093 16.8032 12.8167 17.0106C13.024 17.2181 13.1383 17.4938 13.1383 17.7871C13.1382 18.0804 13.024 18.3561 12.8166 18.5636Z" fill="#21273A"/>
<path d="M13.3312 11.6619C13.1883 11.519 12.9565 11.519 12.8136 11.6619L5.91188 18.5637C5.76896 18.7066 5.76896 18.9384 5.91188 19.0813C5.98331 19.1527 6.07701 19.1885 6.17067 19.1885C6.26432 19.1885 6.35802 19.1528 6.42945 19.0813L13.3312 12.1795C13.4742 12.0366 13.4742 11.8048 13.3312 11.6619Z" fill="#21273A"/>
<path d="M24.6958 0.31348C24.2016 -0.180709 23.2464 -0.0741171 21.9337 0.622024C20.8001 1.22324 19.5016 2.21631 18.3712 3.34673C17.9313 3.78667 17.5219 4.24111 17.1515 4.6997L12.0158 4.08374C11.948 4.07544 11.8762 4.07104 11.802 4.07104C11.5043 4.07202 11.1783 4.13691 10.8606 4.25991C10.5307 4.38925 10.2594 4.5581 10.0544 4.7621L5.47128 9.34471C5.32875 9.48768 5.32875 9.71952 5.47128 9.86253C5.54057 9.93133 5.63231 9.96942 5.73041 9.96942C5.82802 9.96942 5.91976 9.93133 5.98905 9.86253L10.5717 5.27944C10.6951 5.15449 10.9025 5.02861 11.1261 4.94223C11.3486 4.85537 11.5999 4.80312 11.7981 4.80312H11.802C11.8469 4.80312 11.8893 4.80556 11.9284 4.81044L18.6178 5.61279C18.7891 5.63232 18.9775 5.73041 19.121 5.87533C19.2659 6.01879 19.364 6.20722 19.3835 6.37851L19.521 7.52431C18.9609 7.95184 18.4093 8.30546 17.8946 8.56283C17.7995 8.61039 17.6997 8.65677 17.5979 8.70057C17.5191 8.3847 17.3559 8.09496 17.1197 7.85883C16.7765 7.51557 16.32 7.3265 15.8346 7.3265C15.3491 7.3265 14.8927 7.51557 14.5493 7.85883C13.8407 8.56752 13.8407 9.72059 14.5494 10.4292C14.8926 10.7725 15.3491 10.9616 15.8346 10.9616C16.32 10.9616 16.7765 10.7725 17.1197 10.4292C17.3817 10.1673 17.5535 9.83944 17.6204 9.48314C17.8059 9.41297 18.0058 9.32567 18.2219 9.21761C18.6694 8.99383 19.1413 8.70326 19.6211 8.35975L20.1858 13.0679C20.1907 13.107 20.1931 13.1494 20.1931 13.1944C20.1936 13.3935 20.1419 13.6463 20.054 13.8703C19.9676 14.0938 19.8417 14.3007 19.7168 14.4247L10.0544 24.0865C9.94017 24.2007 9.78694 24.2637 9.62298 24.2642C9.45901 24.2637 9.30574 24.2007 9.19158 24.0865L0.909666 15.8047C0.795457 15.6905 0.732518 15.5373 0.73203 15.3733C0.732518 15.2093 0.795457 15.0561 0.909666 14.9419L4.95346 10.8976C5.09643 10.7551 5.09643 10.5228 4.95346 10.3803C4.88466 10.311 4.79242 10.2729 4.69482 10.2729C4.59721 10.2729 4.50546 10.311 4.43617 10.3803L0.391894 14.424C0.264501 14.5519 0.165429 14.7012 0.0976072 14.8681C0.0327148 15.0297 0 15.1995 0 15.3732C0 15.5469 0.0327148 15.7168 0.0976072 15.8779C0.165429 16.0452 0.264501 16.1946 0.391894 16.3219L8.67425 24.6043C8.80164 24.7317 8.95047 24.8308 9.11737 24.8981C9.2784 24.963 9.44827 24.9962 9.62151 24.9962H9.62444C9.79817 24.9962 9.96751 24.963 10.1286 24.8981C10.2955 24.8308 10.4449 24.7317 10.5722 24.6043L20.2342 14.9418C20.4382 14.7368 20.607 14.4655 20.7359 14.1356C20.8589 13.8174 20.9243 13.4919 20.9253 13.1942C20.9253 13.1205 20.9209 13.0488 20.9126 12.9804L20.2966 7.84486C20.7515 7.47719 21.2069 7.06762 21.6496 6.62499C22.7823 5.49233 23.7776 4.19663 24.3802 3.07012C25.0806 1.76069 25.1897 0.807473 24.6958 0.31348ZM15.6106 9.38578C15.7899 9.56512 16.0735 9.71917 16.5185 9.71917C16.5951 9.71917 16.6765 9.71454 16.763 9.70477C16.718 9.77884 16.665 9.84862 16.6021 9.91151C16.3971 10.1165 16.1245 10.2295 15.8346 10.2295C15.5446 10.2295 15.272 10.1165 15.067 9.91151C14.6437 9.48827 14.6437 8.79964 15.067 8.3764C15.272 8.17133 15.5446 8.05844 15.8346 8.05844C16.1245 8.05844 16.3971 8.17138 16.6022 8.37636C16.7574 8.53163 16.8596 8.72567 16.9002 8.93661C16.5649 9.01346 16.2734 9.01337 16.1281 8.8682C15.9852 8.72523 15.7534 8.72528 15.6105 8.8682C15.4676 9.01112 15.4676 9.24286 15.6106 9.38578ZM23.7346 2.72485C23.1645 3.79062 22.2158 5.02353 21.1319 6.10741C20.823 6.41635 20.5083 6.70756 20.1927 6.97875L20.1102 6.29101C20.0677 5.94745 19.9047 5.62436 19.6388 5.35742C19.3718 5.09145 19.0487 4.92846 18.7052 4.88598L18.0176 4.80356C18.2903 4.48593 18.5816 4.17158 18.8888 3.8643C21.4701 1.28301 23.7803 0.433353 24.1781 0.831106C24.3628 1.01582 24.2974 1.673 23.7346 2.72485Z" fill="#21273A"/>
</g>
<defs>
<clipPath id="clip0">
<rect width="25" height="25" fill="white"/>
</clipPath>
</defs>
</svg>
