<svg width="25" height="25" viewBox="0 0 25 25" fill="none" xmlns="http://www.w3.org/2000/svg">
<g clip-path="url(#clip0)">
<path d="M16.6232 18.4636C16.3939 18.4447 16.1927 18.6153 16.1738 18.8446C16.1552 19.0701 16.3199 19.2692 16.5449 19.2932C21.7943 19.7919 23.7505 20.9939 23.7505 21.6364C23.7505 22.6931 19.471 24.1668 12.5009 24.1668C5.5307 24.1668 1.25127 22.6931 1.25127 21.6364C1.25127 20.9939 3.20954 19.7919 8.45685 19.2919C8.68564 19.2675 8.85142 19.0623 8.82705 18.8335C8.80309 18.6086 8.60398 18.4438 8.37852 18.4624C6.51109 18.6403 0.417969 19.3911 0.417969 21.6364C0.417969 23.8447 6.4965 25.0001 12.5009 25.0001C18.5052 25.0001 24.5838 23.8447 24.5838 21.6364C24.5838 19.3911 18.4907 18.6403 16.6232 18.4636Z" fill="#21273A"/>
<path d="M17.6154 2.08707C16.2692 0.723994 14.4244 -0.0296767 12.5089 0.000895126C9.89883 0.009124 7.49428 1.41861 6.21204 3.69201C4.89255 6.02292 4.81453 8.85636 6.00371 11.2563C7.4446 14.1884 9.1961 16.9574 11.2281 19.5156L12.1827 20.7168C12.2617 20.8163 12.3818 20.8743 12.5089 20.8743C12.6363 20.8742 12.7566 20.8157 12.8356 20.7156L13.7651 19.5365C15.794 16.9638 17.5532 14.1895 19.0149 11.2572C20.5107 8.20836 19.9525 4.55089 17.6154 2.08707ZM18.2674 10.8863C16.8318 13.767 15.1042 16.4925 13.1118 19.0202L12.5081 19.786L11.8831 18.9973C9.88696 16.4855 8.16619 13.7667 6.75035 10.8876C5.68325 8.73501 5.75283 6.19338 6.93618 4.10242C8.07702 2.08332 10.2164 0.834616 12.5356 0.834199C14.2141 0.808679 15.8306 1.4686 17.0117 2.66163C19.1084 4.87114 19.6093 8.15186 18.2674 10.8863Z" fill="#21273A"/>
<path d="M15.6517 6.15825C15.5667 5.94456 15.3247 5.84014 15.1109 5.92493C14.8971 6.00997 14.7927 6.25231 14.8778 6.4661C14.8778 6.46626 14.8779 6.46642 14.878 6.46657C15.0754 6.96364 15.119 7.50857 15.003 8.03068C14.7869 8.98206 14.0494 9.72818 13.1006 9.9552C12.2424 10.1601 11.3394 9.9038 10.7169 9.27856C10.0794 8.63743 9.81537 7.71403 10.0178 6.83281C10.3214 5.46239 11.6786 4.59758 13.049 4.90126C13.205 4.93585 13.3575 4.98506 13.5043 5.04829C13.716 5.1386 13.9608 5.04022 14.0512 4.82851C14.1415 4.61679 14.0431 4.37196 13.8314 4.28165C13.1708 4.00041 12.4383 3.93536 11.7385 4.09582C10.4697 4.38654 9.48251 5.38333 9.20403 6.6549C8.93936 7.81403 9.28867 9.02784 10.129 9.86895C10.7633 10.5009 11.6227 10.855 12.5181 10.8531C12.7753 10.8537 13.0317 10.8258 13.2826 10.7698C14.551 10.4778 15.5373 9.48058 15.8151 8.20901C15.9679 7.52456 15.911 6.80989 15.6517 6.15825Z" fill="#21273A"/>
</g>
<defs>
<clipPath id="clip0">
<rect width="25" height="25" fill="white"/>
</clipPath>
</defs>
</svg>
