<svg width="14" height="14" viewBox="0 0 14 14" fill="none" xmlns="http://www.w3.org/2000/svg">
<path d="M13.905 2.75095C13.9045 2.74939 13.904 2.74788 13.9035 2.74638C13.8458 2.56487 13.7629 2.39124 13.6556 2.23027L12.534 0.547914C12.3053 0.204832 11.9225 0 11.5102 0H2.48981C2.07747 0 1.69474 0.204832 1.46601 0.547941L0.344449 2.23024C0.237125 2.39121 0.154191 2.56487 0.0964688 2.74638C0.0959766 2.74788 0.0954844 2.74939 0.0950195 2.75089C0.032457 2.94913 0 3.1567 0 3.36785V12.7695C0 13.448 0.551988 14 1.23047 14H12.7695C13.448 14 14 13.448 14 12.7695V3.36785C14 3.15673 13.9675 2.94913 13.905 2.75095ZM7.41016 0.820312H11.5102C11.6476 0.820312 11.7752 0.88859 11.8515 1.00294L12.8235 2.46094H7.41016V0.820312ZM2.14851 1.00297C2.22477 0.88859 2.35236 0.820312 2.48981 0.820312H6.58984V2.46094H1.17655L2.14851 1.00297ZM13.1797 12.7695C13.1797 12.9957 12.9957 13.1797 12.7695 13.1797H1.23047C1.00431 13.1797 0.820312 12.9957 0.820312 12.7695C0.820312 2.77495 0.818727 3.34797 0.823402 3.28125H13.1766C13.1812 3.34742 13.1797 2.76489 13.1797 12.7695Z" fill="#30374E"/>
</svg>
