<svg width="10" height="14" viewBox="0 0 10 14" fill="none" xmlns="http://www.w3.org/2000/svg">
<path d="M1.82094 0.556863C1.63045 0.552673 1.44339 0.607892 1.28577 0.714929C1.12814 0.821966 1.00778 0.975529 0.94142 1.15413C0.87506 1.33274 0.865997 1.52755 0.915491 1.71154C0.964984 1.89553 1.07058 2.05946 1.21758 2.18067L6.8268 6.986L1.21758 11.7896C1.11589 11.8644 1.03073 11.9593 0.967421 12.0684C0.904116 12.1776 0.864037 12.2987 0.849691 12.4241C0.835346 12.5495 0.847045 12.6765 0.884055 12.7971C0.921064 12.9178 0.982587 13.0295 1.06477 13.1253C1.14696 13.2211 1.24803 13.2988 1.36167 13.3537C1.4753 13.4086 1.59905 13.4394 1.72516 13.4443C1.85127 13.4492 1.97703 13.428 2.09456 13.382C2.21209 13.3361 2.31886 13.2663 2.40818 13.1771L8.83021 7.68244C8.93106 7.59638 9.01205 7.48955 9.06758 7.36916C9.12311 7.24877 9.15187 7.11773 9.15187 6.98515C9.15187 6.85257 9.12311 6.72153 9.06758 6.60114C9.01205 6.48075 8.93106 6.37382 8.83021 6.28775L2.40818 0.787777C2.24595 0.643679 2.03786 0.561756 1.82094 0.556651V0.556863Z" fill="white"/>
</svg>
