<svg width="24" height="24" viewBox="0 0 24 24" fill="none" xmlns="http://www.w3.org/2000/svg">
<path d="M13.3834 16.5852C13.6383 16.5852 13.8449 16.3785 13.8449 16.1236C13.8449 15.8687 13.6383 15.6621 13.3834 15.6621C13.1285 15.6621 12.9219 15.8687 12.9219 16.1236C12.9219 16.3785 13.1285 16.5852 13.3834 16.5852Z" fill="#21273A"/>
<path d="M15.1764 16.5852C15.4313 16.5852 15.6379 16.3785 15.6379 16.1236C15.6379 15.8687 15.4313 15.6621 15.1764 15.6621C14.9215 15.6621 14.7148 15.8687 14.7148 16.1236C14.7148 16.3785 14.9215 16.5852 15.1764 16.5852Z" fill="#21273A"/>
<path d="M16.9733 16.5852C17.2282 16.5852 17.4348 16.3785 17.4348 16.1236C17.4348 15.8687 17.2282 15.6621 16.9733 15.6621C16.7184 15.6621 16.5117 15.8687 16.5117 16.1236C16.5117 16.3785 16.7184 16.5852 16.9733 16.5852Z" fill="#21273A"/>
<path d="M22.7479 6.85771H22.3602V3.18914C22.3703 2.90547 22.2678 2.62933 22.0751 2.42087C21.8825 2.21241 21.6153 2.08852 21.3317 2.07617H2.47453C2.19142 2.08919 1.92488 2.21338 1.73279 2.42177C1.5407 2.63015 1.43858 2.9059 1.4486 3.18914V8.38474H1.34311C1.05999 8.39641 0.79303 8.51982 0.60073 8.72794C0.408429 8.93606 0.306463 9.21192 0.317172 9.49507C0.317172 9.5109 1.4486 20.9623 1.4486 20.9623C1.44421 21.2417 1.54893 21.5118 1.7405 21.7152C1.93207 21.9186 2.1954 22.0392 2.47453 22.0516H21.3317C21.6108 22.0399 21.8744 21.9199 22.0665 21.717C22.2585 21.5141 22.3639 21.2443 22.3602 20.965L23.7712 8.02079C23.7726 8.00411 23.7726 7.98735 23.7712 7.97068C23.782 7.68769 23.6805 7.41193 23.4888 7.20347C23.2971 6.995 23.0308 6.87073 22.7479 6.85771ZM2.37432 3.18914C2.37432 3.0731 2.44025 2.99925 2.47717 2.99925H21.3343C21.3712 2.99925 21.4398 3.0731 21.4398 3.18914V6.85771H20.4561V4.42079C20.4564 4.35996 20.4447 4.29966 20.4217 4.24335C20.3987 4.18705 20.3647 4.13586 20.3218 4.09272C20.2789 4.04959 20.2279 4.01535 20.1718 3.99199C20.1156 3.96864 20.0554 3.95661 19.9945 3.95661H6.40684C6.34623 3.95661 6.28622 3.96855 6.23022 3.99174C6.17422 4.01494 6.12334 4.04894 6.08049 4.09179C6.03763 4.13465 6.00363 4.18553 5.98044 4.24153C5.95724 4.29752 5.9453 4.35754 5.9453 4.41815V5.43353H3.95673C3.83432 5.43353 3.71693 5.48216 3.63038 5.56872C3.54382 5.65527 3.49519 5.77267 3.49519 5.89507V8.38211H2.37432V3.18914ZM13.1875 6.85771C13.1042 6.85774 13.0225 6.88031 12.951 6.92303C12.8795 6.96575 12.8209 7.02702 12.7813 7.10035L12.0983 8.38211H4.40772V6.35925H17.0671V6.85771H13.1875ZM17.5365 5.43353H6.85783V4.87969H19.5172V6.85771H17.9928V5.89771C17.9928 5.7753 17.9442 5.65791 17.8576 5.57135C17.771 5.4848 17.6536 5.43617 17.5312 5.43617L17.5365 5.43353ZM21.4451 20.8885V20.936C21.4451 21.0573 21.3765 21.1285 21.3396 21.1285H2.47453C2.43761 21.1285 2.37168 21.0573 2.37168 20.936C2.37295 20.921 2.37295 20.906 2.37168 20.8911L1.24025 9.47925C1.24025 9.37112 1.30882 9.30782 1.34311 9.30782H12.3699C12.4535 9.30782 12.5356 9.28498 12.6072 9.24175C12.6787 9.19852 12.7371 9.13655 12.7761 9.06255L13.4512 7.78342H22.7479C22.7822 7.78342 22.8429 7.84672 22.8508 7.95485L21.4451 20.8885Z" fill="#21273A"/>
<path d="M11.1204 12.5195H5.22326C5.10085 12.5195 4.98346 12.5682 4.8969 12.6547C4.81035 12.7413 4.76172 12.8587 4.76172 12.9811V18.0237C4.76172 18.1461 4.81035 18.2635 4.8969 18.3501C4.98346 18.4366 5.10085 18.4852 5.22326 18.4852H11.1204C11.2428 18.4852 11.3602 18.4366 11.4468 18.3501C11.5333 18.2635 11.5819 18.1461 11.5819 18.0237V12.9811C11.5819 12.8587 11.5333 12.7413 11.4468 12.6547C11.3602 12.5682 11.2428 12.5195 11.1204 12.5195ZM10.6589 17.5622H5.6848V13.4505H10.6589V17.5622Z" fill="#21273A"/>
<path d="M18.8535 13.4004H13.3678C13.2454 13.4004 13.128 13.449 13.0414 13.5356C12.9549 13.6221 12.9062 13.7395 12.9062 13.8619C12.9062 13.9843 12.9549 14.1017 13.0414 14.1883C13.128 14.2748 13.2454 14.3235 13.3678 14.3235H18.8535C18.9759 14.3235 19.0933 14.2748 19.1799 14.1883C19.2664 14.1017 19.315 13.9843 19.315 13.8619C19.315 13.7395 19.2664 13.6221 19.1799 13.5356C19.0933 13.449 18.9759 13.4004 18.8535 13.4004Z" fill="#21273A"/>
</svg>
