<svg width="28" height="28" viewBox="0 0 28 28" fill="none" xmlns="http://www.w3.org/2000/svg">
<path d="M0 0V28H28V0H0ZM8.20312 1.64062H19.7969V3.33594H8.20312V1.64062ZM1.64062 8.25781H3.28125V19.7422H1.64062V8.25781ZM19.7969 26.3594H8.20312V24.6641H19.7969V26.3594ZM21.4375 26.3594V23.0234H6.5625V26.3594H1.64062V21.3828H4.92188V6.61719H1.64062V1.64062H6.5625V4.97656H21.4375V1.64062H26.3594V6.61719H23.0781V21.3828H26.3594V26.3594H21.4375ZM26.3594 8.25781V19.7422H24.7188V8.25781H26.3594Z" fill="#21273A"/>
<path d="M6.5625 21.3828H21.4375V6.61719H6.5625V21.3828ZM8.20312 18.1016H13.1797V19.7422H8.20312V18.1016ZM14.8203 13.1797V11.5391H19.7969V13.1797H14.8203ZM19.7969 14.8203V16.4609H14.8203V14.8203H19.7969ZM13.1797 13.1797H8.20312V11.5391H13.1797V13.1797ZM13.1797 14.8203V16.4609H8.20312V14.8203H13.1797ZM14.8203 19.7422V18.1016H19.7969V19.7422H14.8203ZM19.7969 9.89844H14.8203V8.25781H19.7969V9.89844ZM13.1797 8.25781V9.89844H8.20312V8.25781H13.1797Z" fill="#21273A"/>
</svg>
