<svg width="15" height="15" viewBox="0 0 15 15" fill="none" xmlns="http://www.w3.org/2000/svg">
<path d="M14.1535 12.0612L14.8053 10.5868L14.1535 9.11272L14.8054 7.63855L14.1535 6.16444L14.8054 4.69035L14.1535 3.21642L15 1.3022H6.49176C5.96429 0.691133 4.62575 0.407227 3.36233 0.407227C1.74294 0.407197 0 0.873596 0 1.89757C0 1.89962 0.000146722 1.90162 0.000176066 1.90367H0V13.9636L0.600385 14.1577C1.4953 14.447 2.42537 14.5936 3.36565 14.5936C3.37777 14.5936 3.39003 14.5936 3.40218 14.5935C4.35485 14.5897 5.2963 14.4354 6.20037 14.135L6.67988 13.9757H14.9999L14.1535 12.0612ZM11.6914 4.69035L11.0395 6.16441L11.6914 7.63852L11.0395 9.11269L11.6914 10.5868L11.0396 12.0612L11.4968 13.0954H6.72466V2.1825H11.4967L11.0395 3.21642L11.6914 4.69035ZM1.55748 1.53109C2.05005 1.37403 2.69102 1.28753 3.36233 1.28753C4.03364 1.28753 4.67461 1.37403 5.16718 1.53109C5.62997 1.67866 5.80264 1.83674 5.83958 1.89757C5.80261 1.9584 5.62994 2.11648 5.16716 2.26405C4.67461 2.4211 4.03364 2.50758 3.36233 2.50758C2.69102 2.50758 2.05005 2.4211 1.55751 2.26405C1.09472 2.11648 0.922058 1.9584 0.885084 1.89757C0.922028 1.83671 1.09469 1.67866 1.55748 1.53109ZM0.88033 13.323V2.94548C1.53568 3.2455 2.46777 3.38788 3.36233 3.38788C4.25689 3.38788 5.18902 3.24547 5.84433 2.94548V13.3252C4.22033 13.847 2.50592 13.8465 0.88033 13.323ZM13.6482 13.0954H12.4593L12.0021 12.0612L12.6539 10.5868L12.0021 9.11272L12.6539 7.63855L12.0021 6.16444L12.6539 4.69035L12.0021 3.21642L12.4593 2.18253H13.6482L13.191 3.21645L13.8428 4.69038L13.191 6.16444L13.8428 7.63855L13.191 9.11272L13.8428 10.5869L13.191 12.0612L13.6482 13.0954Z" fill="#30374E"/>
</svg>
