<svg width="24" height="24" viewBox="0 0 24 24" fill="none" xmlns="http://www.w3.org/2000/svg">
<g clip-path="url(#clip0)">
<path d="M17.9062 24C18.1651 24 18.375 23.7901 18.375 23.5313C18.375 23.2724 18.1651 23.0625 17.9062 23.0625C17.6474 23.0625 17.4375 23.2724 17.4375 23.5313C17.4375 23.7901 17.6474 24 17.9062 24Z" fill="#21273A"/>
<path d="M23.5312 6.1875H18.375V3.84375C18.375 3.58491 18.1651 3.375 17.9062 3.375H12.4688V0.46875C12.4688 0.209906 12.2588 0 12 0H0.46875C0.209859 0 0 0.209906 0 0.46875V17.9062C0 18.1651 0.209859 18.375 0.46875 18.375H5.90625V20.7188C5.90625 20.9776 6.11611 21.1875 6.375 21.1875H11.8125V23.5312C11.8125 23.7901 12.0224 24 12.2812 24H15.7969C16.0557 24 16.2656 23.7901 16.2656 23.5312C16.2656 23.2724 16.0557 23.0625 15.7969 23.0625H12.75V18.7433C12.9366 18.9813 13.1274 19.2943 13.2872 19.5564C13.776 20.3584 14.2814 21.1875 15.0938 21.1875C15.9061 21.1875 16.4115 20.3584 16.9003 19.5564C17.2042 19.0578 17.6204 18.375 17.9062 18.375C18.1921 18.375 18.6083 19.0578 18.9122 19.5564C19.401 20.3584 19.9064 21.1875 20.7188 21.1875C21.5311 21.1875 22.0365 20.3584 22.5253 19.5564C22.6851 19.2943 22.8759 18.9813 23.0625 18.7433V23.0625H20.0156C19.7568 23.0625 19.5469 23.2724 19.5469 23.5312C19.5469 23.7901 19.7568 24 20.0156 24H23.5312C23.7901 24 24 23.7901 24 23.5312V6.65625C24 6.39741 23.7901 6.1875 23.5312 6.1875ZM11.8125 11.8125H6.84375V8.53125H11.8125V11.8125ZM6.84375 12.75H11.8125V16.0312H6.84375V12.75ZM12.75 10.3058C12.9366 10.5438 13.1274 10.8568 13.2872 11.1189C13.776 11.9209 14.2814 12.75 15.0938 12.75C15.9061 12.75 16.4115 11.9209 16.9003 11.1189C17.2042 10.6203 17.6204 9.9375 17.9062 9.9375C18.1921 9.9375 18.6083 10.6203 18.9122 11.1189C19.401 11.9209 19.9064 12.75 20.7188 12.75C21.5311 12.75 22.0365 11.9209 22.5253 11.1189C22.6851 10.8568 22.8759 10.5438 23.0625 10.3058V13.3187C22.5099 13.5623 22.112 14.2144 21.7247 14.8498C21.4208 15.3484 21.0046 16.0312 20.7188 16.0312C20.4329 16.0312 20.0167 15.3484 19.7128 14.8498C19.224 14.0479 18.7186 13.2188 17.9062 13.2188C17.0939 13.2188 16.5885 14.0479 16.0997 14.8498C15.7958 15.3484 15.3796 16.0312 15.0938 16.0312C14.8079 16.0312 14.3917 15.3484 14.0878 14.8498C13.7005 14.2144 13.3026 13.5623 12.75 13.3188V10.3058ZM23.0625 9.09998C22.5099 9.34355 22.112 9.99562 21.7247 10.631C21.4208 11.1297 21.0046 11.8125 20.7188 11.8125C20.4329 11.8125 20.0167 11.1297 19.7128 10.6311C19.224 9.82913 18.7186 9 17.9062 9C17.0939 9 16.5885 9.82913 16.0997 10.6311C15.7958 11.1297 15.3796 11.8125 15.0938 11.8125C14.8079 11.8125 14.3917 11.1297 14.0878 10.6311C13.7005 9.99567 13.3026 9.34359 12.75 9.10003V7.125H23.0625V9.09998ZM17.4375 6.1875H12.2812C12.0224 6.1875 11.8125 6.39741 11.8125 6.65625V7.59375H6.84375V4.3125H17.4375V6.1875ZM0.9375 17.4375V0.9375H11.5312V3.375H6.375C6.11611 3.375 5.90625 3.58491 5.90625 3.84375V17.4375H0.9375ZM6.84375 20.25V16.9688H11.8125V20.25H6.84375ZM21.7247 19.0686C21.4208 19.5672 21.0046 20.25 20.7188 20.25C20.4329 20.25 20.0167 19.5672 19.7128 19.0686C19.224 18.2666 18.7186 17.4375 17.9062 17.4375C17.0939 17.4375 16.5885 18.2666 16.0997 19.0686C15.7958 19.5672 15.3796 20.25 15.0938 20.25C14.8079 20.25 14.3917 19.5672 14.0878 19.0686C13.7005 18.4332 13.3026 17.7811 12.75 17.5375V14.5246C12.9366 14.7626 13.1274 15.0756 13.2872 15.3377C13.776 16.1396 14.2814 16.9688 15.0938 16.9688C15.9061 16.9688 16.4115 16.1396 16.9003 15.3377C17.2042 14.8391 17.6204 14.1562 17.9062 14.1562C18.1921 14.1562 18.6083 14.8391 18.9122 15.3377C19.401 16.1396 19.9064 16.9688 20.7188 16.9688C21.5311 16.9688 22.0365 16.1396 22.5253 15.3377C22.6851 15.0755 22.8759 14.7625 23.0625 14.5245V17.5375C22.5099 17.7811 22.112 18.4331 21.7247 19.0686Z" fill="#21273A"/>
</g>
<defs>
<clipPath id="clip0">
<rect width="24" height="24" fill="white"/>
</clipPath>
</defs>
</svg>
